<svg width="1920" height="1841" viewBox="0 0 1920 1841" fill="none" xmlns="http://www.w3.org/2000/svg">
<g opacity="0.6">
<circle opacity="0.1" cx="689.834" cy="1268.37" r="888.5" transform="rotate(20.8052 689.834 1268.37)" fill="#3A7FE7" stroke="#3A7FE7"/>
<circle opacity="0.2" cx="689.833" cy="1268.37" r="915.5" transform="rotate(20.8052 689.833 1268.37)" stroke="#3A7FE7"/>
<circle opacity="0.8" cx="689.833" cy="1268.37" r="942.5" transform="rotate(20.8052 689.833 1268.37)" stroke="#3A7FE7"/>
<path d="M1029.88 370.616L1014.14 383.89L1032.84 390.994L1029.88 370.616Z" fill="#3A7FE7"/>
<circle cx="467.573" cy="352.721" r="6" transform="rotate(20.8052 467.573 352.721)" fill="#3A7FE7"/>
<circle cx="1465" cy="731.711" r="6" transform="rotate(20.8052 1465 731.711)" fill="#3A7FE7"/>
<g opacity="0.2">
<path d="M965.255 339.033C960.891 337.942 957.66 335.572 955.56 331.923C953.461 328.273 952.958 324.294 954.05 319.984C955.15 315.647 957.491 312.378 961.073 310.179C964.662 307.951 968.639 307.383 973.002 308.474C975.625 309.129 977.882 310.363 979.772 312.175C981.697 313.965 983.011 316.079 983.714 318.516L978.051 320.181C977.666 318.686 976.903 317.409 975.762 316.35C974.628 315.263 973.233 314.513 971.576 314.099C968.759 313.394 966.254 313.721 964.06 315.077C961.894 316.44 960.449 318.548 959.725 321.403C959.009 324.229 959.279 326.752 960.537 328.971C961.823 331.197 963.874 332.662 966.691 333.366C968.348 333.78 969.932 333.789 971.442 333.393C972.986 332.975 974.267 332.209 975.284 331.095L979.479 335.223C977.697 337.039 975.542 338.301 973.013 339.008C970.492 339.687 967.906 339.695 965.255 339.033Z" fill="#3A7FE7"/>
<path d="M1006.89 327.395L1010.81 328.607L1004.37 349.282L999.229 347.692L1002.89 335.948L989.645 344.726L985.73 343.514L992.17 322.838L997.308 324.429L993.65 336.172L1006.89 327.395Z" fill="#3A7FE7"/>
<path d="M1029.35 346.99C1031.01 348.738 1031.44 350.723 1030.62 352.946C1029.98 354.68 1028.74 355.87 1026.9 356.515C1025.05 357.161 1022.85 357.012 1020.28 356.07C1016.22 354.579 1014.06 351.937 1013.78 348.145L1018.92 347.17C1018.88 349.249 1019.92 350.676 1022.03 351.451C1022.99 351.804 1023.79 351.884 1024.44 351.691C1025.11 351.508 1025.57 351.091 1025.81 350.441C1026.27 349.194 1025.71 348.281 1024.13 347.702L1021.29 346.657L1022.93 342.186L1025.1 342.98C1026.65 343.549 1027.65 343.211 1028.11 341.964C1028.33 341.368 1028.27 340.81 1027.95 340.291C1027.63 339.772 1027.09 339.375 1026.34 339.1C1024.6 338.462 1023.05 338.86 1021.67 340.292L1018.4 336.322C1021.07 333.765 1024.25 333.164 1027.93 334.518C1030.23 335.362 1031.83 336.625 1032.73 338.308C1033.66 339.974 1033.82 341.647 1033.2 343.327C1032.47 345.306 1031.19 346.526 1029.35 346.99Z" fill="#3A7FE7"/>
<path d="M1060.75 348.159L1065.81 350.323L1057.32 370.247L1052.26 368.083L1053.26 365.732C1050.92 367.022 1048.37 367.08 1045.62 365.906C1043 364.787 1041.18 362.816 1040.16 359.992C1039.17 357.152 1039.31 354.258 1040.56 351.309C1041.82 348.361 1043.81 346.274 1046.53 345.049C1049.28 343.809 1051.97 343.748 1054.58 344.867C1057.33 346.041 1059.05 347.922 1059.74 350.51L1060.75 348.159ZM1045.43 358.192C1046.01 359.665 1047.08 360.736 1048.65 361.407C1050.22 362.078 1051.74 362.114 1053.2 361.514C1054.7 360.899 1055.8 359.768 1056.5 358.121C1057.2 356.474 1057.25 354.909 1056.65 353.425C1056.08 351.926 1055.01 350.841 1053.44 350.17C1051.87 349.499 1050.35 349.477 1048.87 350.103C1047.41 350.703 1046.33 351.827 1045.63 353.474C1044.93 355.121 1044.86 356.694 1045.43 358.192Z" fill="#3A7FE7"/>
<path d="M1095.45 362.986L1086.41 382.661L1081.41 380.35L1088.21 365.554L1082.86 363.082L1079.84 369.654C1077.04 375.74 1073.06 377.221 1067.88 374.098L1070.07 369.336C1070.99 370.077 1071.85 370.27 1072.67 369.918C1073.5 369.539 1074.27 368.589 1074.97 367.067L1080.11 355.892L1095.45 362.986Z" fill="#3A7FE7"/>
<path d="M1110.67 379.146C1112.84 380.197 1114.31 381.656 1115.05 383.523C1115.81 385.363 1115.71 387.286 1114.75 389.291C1113.79 391.296 1112.35 392.588 1110.43 393.169C1108.52 393.723 1106.48 393.475 1104.3 392.423L1095.61 388.231L1104.97 368.705L1109.93 371.098L1106.94 377.346L1110.67 379.146ZM1106.47 387.99C1107.16 388.324 1107.82 388.401 1108.45 388.221C1109.11 388.027 1109.59 387.604 1109.91 386.953C1110.22 386.302 1110.24 385.657 1109.98 385.018C1109.74 384.391 1109.28 383.911 1108.59 383.577L1104.82 381.759L1102.7 386.172L1106.47 387.99Z" fill="#3A7FE7"/>
</g>
<g opacity="0.2">
<path d="M422.425 338.47L419.615 339.348L406.36 332.127L409.597 342.481L407.459 343.149L400.774 321.77L402.912 321.101L405.968 330.875L412.625 318.065L415.435 317.186L408.419 330.779L422.425 338.47Z" fill="#19181C"/>
<path d="M442.666 331.357C441.531 333.332 439.833 334.633 437.572 335.26C435.311 335.888 433.175 335.65 431.164 334.547C429.169 333.418 427.854 331.713 427.221 329.431C426.588 327.149 426.839 325.021 427.974 323.046C429.123 321.044 430.828 319.73 433.09 319.103C435.351 318.475 437.479 318.726 439.475 319.855C441.486 320.958 442.808 322.65 443.441 324.932C444.074 327.214 443.815 329.355 442.666 331.357ZM432.22 332.727C433.717 333.574 435.318 333.76 437.025 333.287C438.731 332.814 440.007 331.828 440.854 330.332C441.695 328.814 441.879 327.202 441.405 325.496C440.932 323.79 439.947 322.514 438.45 321.667C436.948 320.8 435.343 320.603 433.637 321.076C431.931 321.549 430.657 322.545 429.816 324.062C428.97 325.559 428.783 327.16 429.256 328.867C429.73 330.573 430.718 331.86 432.22 332.727Z" fill="#19181C"/>
<path d="M466.354 326.575L463.619 327.248L454.009 321.669L455.851 329.158L453.8 329.662L449.979 314.125L452.03 313.621L453.719 320.488L459.426 311.802L462.222 311.114L456.039 320.544L466.354 326.575Z" fill="#19181C"/>
<path d="M486.933 319.492C485.683 321.396 483.911 322.594 481.616 323.085C479.322 323.577 477.204 323.212 475.262 321.992C473.337 320.746 472.127 318.966 471.631 316.65C471.135 314.335 471.512 312.225 472.762 310.321C474.028 308.391 475.809 307.181 478.104 306.689C480.398 306.198 482.508 306.575 484.433 307.82C486.374 309.041 487.593 310.809 488.089 313.124C488.585 315.44 488.2 317.562 486.933 319.492ZM476.425 320.238C477.868 321.172 479.456 321.454 481.187 321.083C482.919 320.712 484.251 319.804 485.186 318.361C486.116 316.896 486.395 315.298 486.024 313.567C485.653 311.835 484.746 310.502 483.302 309.568C481.854 308.613 480.264 308.321 478.533 308.692C476.801 309.063 475.471 309.981 474.541 311.445C473.607 312.889 473.325 314.477 473.696 316.208C474.067 317.939 474.976 319.283 476.425 320.238Z" fill="#19181C"/>
<path d="M506.823 317.154C504.452 317.588 502.335 317.162 500.473 315.876C498.608 314.569 497.462 312.751 497.035 310.421C496.609 308.092 497.039 305.997 498.325 304.135C499.607 302.252 501.433 301.093 503.805 300.66C505.358 300.375 506.822 300.498 508.199 301.027C509.571 301.535 510.656 302.366 511.453 303.522L509.932 304.808C509.339 303.941 508.521 303.321 507.477 302.948C506.45 302.55 505.348 302.459 504.173 302.674C502.432 302.993 501.074 303.87 500.101 305.306C499.123 306.721 498.794 308.3 499.113 310.041C499.432 311.783 500.3 313.153 501.719 314.151C503.134 315.129 504.713 315.458 506.454 315.139C507.629 314.924 508.629 314.459 509.452 313.745C510.272 313.009 510.858 312.121 511.209 311.081L513.125 311.771C512.705 313.149 511.933 314.321 510.808 315.286C509.683 316.251 508.355 316.873 506.823 317.154Z" fill="#19181C"/>
</g>
<g opacity="0.2">
<path d="M1435.5 658.626L1437.01 657.343C1437.86 658.669 1438.98 659.245 1440.37 659.072C1441.79 658.902 1443.71 657.796 1446.11 655.754L1455.61 647.703L1465 658.784L1447.92 673.271L1446.47 671.562L1461.94 658.441L1455.45 650.777L1447.51 657.503C1445.97 658.814 1444.57 659.789 1443.32 660.428C1442.07 661.067 1440.97 661.377 1440 661.358C1439.06 661.341 1438.23 661.107 1437.51 660.654C1436.82 660.204 1436.15 659.528 1435.5 658.626Z" fill="#19181C"/>
<path d="M1476.46 681.89L1477.78 683.544L1465.24 693.49L1463.93 691.836L1466.39 689.887C1463.63 690.192 1461.38 689.234 1459.61 687.012C1458.19 685.224 1457.61 683.191 1457.88 680.913C1458.15 678.652 1459.21 676.792 1461.05 675.333C1462.88 673.874 1464.94 673.267 1467.2 673.513C1469.48 673.775 1471.33 674.8 1472.75 676.588C1474.51 678.81 1474.93 681.227 1474.01 683.839L1476.46 681.89ZM1459.96 681.221C1459.76 682.929 1460.22 684.477 1461.32 685.864C1462.42 687.251 1463.82 688.043 1465.53 688.239C1467.25 688.422 1468.81 687.964 1470.2 686.863C1471.58 685.762 1472.38 684.357 1472.57 682.649C1472.79 680.927 1472.34 679.373 1471.24 677.986C1470.14 676.599 1468.73 675.814 1467 675.631C1465.29 675.434 1463.75 675.886 1462.36 676.987C1460.97 678.088 1460.17 679.499 1459.96 681.221Z" fill="#19181C"/>
<path d="M1491.56 702.6L1489.92 703.825L1486.53 699.287L1475.35 707.635L1474.08 705.942L1485.26 697.595L1481.87 693.056L1483.52 691.831L1491.56 702.6Z" fill="#19181C"/>
<path d="M1500.95 715.669C1502.31 717.608 1502.72 719.656 1502.17 721.811C1501.65 723.971 1500.46 725.707 1498.59 727.017C1498.4 727.151 1498.11 727.324 1497.74 727.534L1489.68 716.03C1488.47 717.135 1487.81 718.435 1487.68 719.929C1487.59 721.429 1488.03 722.877 1489.01 724.275C1489.71 725.271 1490.51 725.986 1491.41 726.421C1492.34 726.86 1493.27 727.031 1494.19 726.933L1494.37 729.077C1493.04 729.15 1491.75 728.878 1490.51 728.261C1489.27 727.645 1488.21 726.7 1487.31 725.424C1485.87 723.363 1485.34 721.233 1485.73 719.034C1486.11 716.835 1487.3 715.038 1489.29 713.642C1491.25 712.27 1493.33 711.763 1495.53 712.12C1497.74 712.477 1499.54 713.66 1500.95 715.669ZM1499.28 716.845C1498.32 715.482 1497.11 714.626 1495.64 714.275C1494.2 713.93 1492.77 714.123 1491.35 714.854L1498.2 724.629C1499.46 723.487 1500.16 722.201 1500.31 720.771C1500.45 719.342 1500.11 718.033 1499.28 716.845Z" fill="#19181C"/>
<path d="M1506.06 753.077L1504.52 750.724L1506.57 739.803L1500.12 744.037L1498.97 742.272L1512.34 733.487L1513.5 735.252L1507.59 739.135L1517.68 741.618L1519.26 744.025L1508.31 741.341L1506.06 753.077Z" fill="#19181C"/>
<path d="M1515.28 769.224C1514.02 767.172 1513.64 765.045 1514.17 762.843C1514.71 760.63 1515.99 758.903 1518 757.66C1520.02 756.418 1522.13 756.058 1524.33 756.58C1526.55 757.092 1528.29 758.374 1529.55 760.426C1530.38 761.77 1530.8 763.179 1530.81 764.653C1530.83 766.117 1530.45 767.429 1529.66 768.591L1527.91 767.641C1528.51 766.774 1528.79 765.786 1528.75 764.678C1528.75 763.576 1528.44 762.517 1527.81 761.5C1526.88 759.993 1525.57 759.046 1523.88 758.66C1522.21 758.263 1520.62 758.529 1519.11 759.458C1517.6 760.387 1516.64 761.694 1516.23 763.378C1515.83 765.052 1516.09 766.642 1517.02 768.149C1517.65 769.166 1518.45 769.929 1519.41 770.437C1520.39 770.934 1521.43 771.157 1522.53 771.108L1522.58 773.143C1521.15 773.252 1519.77 772.957 1518.47 772.259C1517.16 771.561 1516.1 770.55 1515.28 769.224Z" fill="#19181C"/>
</g>
<circle cx="144.366" cy="499.491" r="6" transform="rotate(20.8052 144.366 499.491)" fill="#3A7FE7"/>
<g opacity="0.2">
<path d="M31.1125 564.029L29.027 566.107L13.935 565.831L21.5919 573.515L20.0051 575.096L4.19448 559.228L5.78125 557.647L13.009 564.901L12.9897 550.465L15.0752 548.387L15.1381 563.683L31.1125 564.029Z" fill="#19181C"/>
<path d="M45.1778 547.864C45.0958 550.141 44.2011 552.084 42.4937 553.694C40.7863 555.304 38.7862 556.09 36.4934 556.053C34.2015 555.985 32.2433 555.09 30.6188 553.367C28.9943 551.644 28.223 549.645 28.305 547.368C28.3879 545.062 29.2831 543.104 30.9905 541.494C32.6979 539.884 34.6975 539.113 36.9894 539.18C39.2823 539.217 41.2409 540.097 42.8654 541.82C44.4899 543.543 45.2607 545.558 45.1778 547.864ZM36.5779 553.95C38.2968 554.001 39.8004 553.418 41.0887 552.204C42.377 550.989 43.0465 549.522 43.097 547.803C43.1329 546.069 42.5435 544.557 41.3288 543.269C40.114 541.981 38.6472 541.311 36.9283 541.261C35.1947 541.195 33.6838 541.769 32.3955 542.984C31.1072 544.199 30.4451 545.673 30.4092 547.408C30.3586 549.127 30.9407 550.63 32.1554 551.919C33.3701 553.207 34.8443 553.884 36.5779 553.95Z" fill="#19181C"/>
<path d="M52.8215 522.06L54.3967 520.653L65.0545 532.586L63.4792 533.993L58.8324 528.79L51.9587 534.929L56.6054 540.132L55.0302 541.539L44.3724 529.605L45.9477 528.198L50.5945 533.402L57.4682 527.263L52.8215 522.06Z" fill="#19181C"/>
<path d="M78.1419 521.835C76.3029 523.394 74.2558 524.08 72.0008 523.894C69.7319 523.692 67.8319 522.687 66.3008 520.881C64.7697 519.074 64.0972 517.044 64.2833 514.788C64.4556 512.517 65.4612 510.602 67.3002 509.043C68.5045 508.023 69.835 507.398 71.2917 507.17C72.7347 506.926 74.0897 507.106 75.3567 507.71L74.6799 509.584C73.7337 509.128 72.7151 508.998 71.6241 509.196C70.5356 509.363 69.5357 509.833 68.6243 510.606C67.2736 511.751 66.5344 513.188 66.4068 514.918C66.2654 516.632 66.7671 518.164 67.912 519.515C69.0568 520.866 70.4931 521.62 72.2207 521.778C73.9346 521.919 75.4669 521.418 76.8177 520.273C77.729 519.5 78.3634 518.599 78.7209 517.569C79.0645 516.523 79.1294 515.461 78.9156 514.384L80.9203 514.027C81.2434 515.431 81.1581 516.832 80.6644 518.229C80.1707 519.626 79.3299 520.828 78.1419 521.835Z" fill="#19181C"/>
<path d="M99.842 503.528L97.6494 505.295L86.5812 504.31L91.4203 510.315L89.7758 511.64L79.7362 499.182L81.3807 497.857L85.8182 503.363L87.3108 493.078L89.5533 491.271L87.9438 502.431L99.842 503.528Z" fill="#19181C"/>
<path d="M105.653 478.807L107.075 477.718L116.803 490.421L115.126 491.705L107.636 481.924L107.555 497.503L106.133 498.592L96.4048 485.889L98.0816 484.605L105.572 494.387L105.653 478.807Z" fill="#19181C"/>
<path d="M115.576 468.228L114.487 466.726L121.221 461.84L122.311 463.342L115.576 468.228ZM124.436 464.963L125.886 463.911L135.282 476.862L133.572 478.102L126.338 468.13L125.854 483.702L124.403 484.754L115.008 471.803L116.717 470.563L123.952 480.535L124.436 464.963Z" fill="#19181C"/>
<path d="M157.613 451.573C159.423 451.134 160.843 451.687 161.873 453.231C162.595 454.314 162.829 455.453 162.575 456.648C162.327 457.814 161.528 458.846 160.179 459.746L153.71 464.061L144.832 450.75L150.769 446.79C152.064 445.926 153.292 445.595 154.452 445.796C155.6 445.979 156.523 446.594 157.221 447.641C158.109 448.972 158.24 450.283 157.613 451.573ZM151.905 448.494L147.726 451.282L150.425 455.328L154.604 452.541C156.148 451.511 156.459 450.304 155.535 448.919C155.121 448.298 154.597 447.955 153.964 447.89C153.337 447.796 152.651 447.997 151.905 448.494ZM159.043 458.042C159.824 457.521 160.294 456.939 160.454 456.294C160.631 455.637 160.495 454.971 160.045 454.297C159.631 453.676 159.092 453.33 158.43 453.259C157.773 453.158 157.054 453.368 156.273 453.889L151.561 457.032L154.331 461.185L159.043 458.042Z" fill="#19181C"/>
<path d="M181.436 443.679C180.917 445.897 179.665 447.631 177.68 448.883C175.695 450.134 173.581 450.52 171.338 450.042C169.102 449.535 167.352 448.28 166.09 446.276C164.827 444.273 164.455 442.162 164.974 439.944C165.499 437.697 166.755 435.947 168.74 434.696C170.725 433.445 172.836 433.073 175.072 433.581C177.315 434.058 179.068 435.299 180.33 437.302C181.593 439.306 181.961 441.431 181.436 443.679ZM171.825 447.995C173.502 448.376 175.09 448.094 176.588 447.15C178.086 446.206 179.025 444.895 179.406 443.218C179.775 441.523 179.487 439.927 178.543 438.428C177.599 436.93 176.289 435.991 174.612 435.611C172.923 435.212 171.33 435.485 169.832 436.429C168.334 437.373 167.4 438.693 167.031 440.388C166.651 442.065 166.933 443.652 167.877 445.15C168.821 446.648 170.137 447.597 171.825 447.995Z" fill="#19181C"/>
<path d="M195.445 418.914L203.606 432.676L201.79 433.753L194.673 421.753L188.452 425.442L192.092 431.579C193.453 433.873 193.948 435.712 193.579 437.097C193.228 438.471 192.258 439.554 190.67 440.347L189.658 438.641C190.769 438.131 191.393 437.426 191.529 436.527C191.684 435.616 191.266 434.326 190.276 432.657L185.591 424.757L195.445 418.914Z" fill="#19181C"/>
<path d="M222.822 419.49C222.184 421.677 220.84 423.341 218.79 424.483C216.74 425.625 214.608 425.897 212.395 425.299C210.189 424.671 208.51 423.323 207.358 421.255C206.206 419.186 205.948 417.058 206.586 414.871C207.232 412.656 208.58 410.977 210.63 409.835C212.68 408.693 214.808 408.435 217.013 409.063C219.227 409.661 220.91 410.995 222.062 413.063C223.215 415.132 223.468 417.274 222.822 419.49ZM212.992 423.281C214.646 423.751 216.247 423.556 217.794 422.694C219.34 421.832 220.349 420.574 220.82 418.92C221.28 417.248 221.079 415.638 220.217 414.091C219.356 412.544 218.098 411.536 216.444 411.065C214.779 410.576 213.174 410.762 211.627 411.624C210.08 412.486 209.076 413.753 208.616 415.425C208.146 417.08 208.341 418.68 209.203 420.227C210.065 421.774 211.328 422.792 212.992 423.281Z" fill="#19181C"/>
<path d="M240.712 412.663C238.575 413.779 236.427 413.998 234.268 413.32C232.099 412.623 230.467 411.226 229.371 409.127C228.275 407.028 228.065 404.899 228.743 402.74C229.411 400.562 230.813 398.915 232.95 397.799C234.349 397.069 235.785 396.752 237.256 396.85C238.717 396.93 239.999 397.403 241.102 398.271L240.03 399.951C239.207 399.297 238.242 398.947 237.135 398.899C236.036 398.823 234.957 399.062 233.898 399.615C232.328 400.434 231.291 401.674 230.786 403.334C230.271 404.974 230.423 406.579 231.243 408.149C232.062 409.719 233.297 410.77 234.948 411.304C236.589 411.819 238.194 411.667 239.764 410.847C240.823 410.294 241.64 409.555 242.215 408.629C242.78 407.684 243.077 406.662 243.106 405.564L245.14 405.657C245.146 407.098 244.755 408.446 243.966 409.7C243.177 410.954 242.092 411.942 240.712 412.663Z" fill="#19181C"/>
</g>
</g>
</svg>
