<svg width="111" height="105" viewBox="0 0 111 105" fill="none" xmlns="http://www.w3.org/2000/svg">
<path d="M27.9723 118.328L26.3099 117.187L24.1689 105.94C23.5722 102.736 22.5966 100.67 21.242 99.7408C20.0633 98.9323 18.8951 98.6742 17.7374 98.9665C16.5741 99.2292 15.6425 99.8708 14.9426 100.891C13.6393 102.791 13.5628 104.769 14.7131 106.826L12.7215 107.749C11.9762 106.385 11.6573 105.002 11.7646 103.601C11.8543 102.188 12.3155 100.874 13.1482 99.6602C14.1619 98.1825 15.5502 97.2334 17.3132 96.8129C19.0707 96.3628 20.8027 96.7231 22.5091 97.8936C23.5822 98.6298 24.4062 99.6348 24.9811 100.909C25.5559 102.183 26.0146 103.739 26.3571 105.578L27.9881 114.458L34.2331 105.354L36.0275 106.585L27.9723 118.328Z" fill="white"/>
<path d="M42.9061 92.4596C43.7369 94.8778 43.3643 97.1757 41.7885 99.3533C40.2126 101.531 38.1401 102.612 35.5709 102.596C32.997 102.55 30.2842 101.496 27.4325 99.432C24.5809 97.3684 22.7397 95.1275 21.9089 92.7094C21.0734 90.2614 21.4436 87.9486 23.0194 85.771C24.5952 83.5934 26.6701 82.5274 29.2441 82.573C31.8133 82.5889 34.5237 83.6286 37.3753 85.6923C40.227 87.7559 42.0706 90.0116 42.9061 92.4596ZM35.328 100.366C37.3091 100.43 38.875 99.6676 40.0256 98.0776C41.1762 96.4876 41.4051 94.7704 40.7122 92.9259C40.0317 91.0642 38.4817 89.2579 36.0621 87.5069C33.6426 85.756 31.4422 84.8484 29.4611 84.7841C27.4925 84.7025 25.9329 85.4567 24.7822 87.0467C23.6316 88.6367 23.3965 90.3626 24.0769 92.2243C24.7699 94.0687 26.3261 95.8664 28.7457 97.6174C31.1653 99.3683 33.3594 100.285 35.328 100.366Z" fill="white"/>
<path d="M53.525 78.6179C54.2895 81.0578 53.8544 83.3447 52.2198 85.4786C50.5852 87.6124 48.4839 88.6364 45.9162 88.5505C43.3444 88.4346 40.6614 87.3064 37.867 85.1658C35.0727 83.0252 33.2933 80.7349 32.5288 78.295C31.7604 75.8252 32.1935 73.5234 33.8281 71.3895C35.4627 69.2557 37.5659 68.2467 40.1377 68.3625C42.7055 68.4484 45.3865 69.5617 48.1808 71.7023C50.9752 73.8429 52.7566 76.1481 53.525 78.6179ZM45.7341 86.3149C47.7128 86.4332 49.2989 85.7133 50.4924 84.1553C51.686 82.5972 51.9615 80.8869 51.3192 79.0242C50.6898 77.1447 49.1896 75.2967 46.8186 73.4805C44.4477 71.6642 42.2729 70.6969 40.2943 70.5786C38.3286 70.4434 36.749 71.1547 35.5555 72.7128C34.3619 74.2708 34.0799 75.9897 34.7093 77.8692C35.3516 79.7319 36.8583 81.5713 39.2292 83.3876C41.6002 85.2039 43.7685 86.1796 45.7341 86.3149Z" fill="white"/>
<path d="M73.2894 58.925L71.6528 60.8935L60.4084 59.4523L63.8792 70.2443L62.2427 72.2129L58.0645 59.1683L45.3244 57.524L46.9405 55.58L57.3325 56.8952L54.1413 46.9183L55.7574 44.9743L59.7011 57.1997L73.2894 58.925Z" fill="white"/>
<path d="M65.4003 34.1408L66.678 32.7078L83.3972 47.6151L81.9065 49.287L67.0264 36.0195L64.8055 40.7703L62.9891 39.9224L65.4003 34.1408Z" fill="white"/>
<path d="M94.0453 32.0718C94.5712 34.574 93.9178 36.8084 92.0851 38.7748C90.2525 40.7412 88.0624 41.5579 85.5148 41.225C82.9662 40.8619 80.4043 39.4804 77.8293 37.0805C75.2542 34.6806 73.7038 32.2296 73.1779 29.7274C72.651 27.195 73.3039 24.9456 75.1365 22.9792C76.9692 21.0128 79.1598 20.2111 81.7084 20.5742C84.256 20.9071 86.8173 22.2735 89.3924 24.6734C91.9674 27.0733 93.5184 29.5394 94.0453 32.0718ZM85.5491 38.9823C87.5071 39.2907 89.1552 38.727 90.4933 37.2912C91.8314 35.8554 92.2705 34.1796 91.8106 32.2637C91.3652 30.3322 90.0501 28.3483 87.8652 26.3121C85.6803 24.2758 83.6088 23.1035 81.6508 22.7951C79.7073 22.471 78.0665 23.0269 76.7284 24.4627C75.3903 25.8985 74.9439 27.5822 75.3893 29.5136C75.8492 31.4295 77.1716 33.4056 79.3565 35.4419C81.5414 37.4781 83.6056 38.6583 85.5491 38.9823Z" fill="white"/>
<path d="M106.293 19.6466C106.751 22.1623 106.037 24.3779 104.151 26.2936C102.266 28.2094 100.054 28.9661 97.5166 28.5638C94.9788 28.1313 92.4556 26.6805 89.9469 24.2113C87.4382 21.7421 85.9552 19.2497 85.4978 16.734C85.0401 14.1882 85.7541 11.9574 87.6397 10.0417C89.5252 8.12603 91.7369 7.3844 94.2747 7.81685C96.8122 8.21913 99.3353 9.65488 101.844 12.1241C104.353 14.5933 105.836 17.1008 106.293 19.6466ZM97.6119 26.3228C99.5608 26.6845 101.224 26.166 102.6 24.7672C103.977 23.3685 104.462 21.7052 104.054 19.7775C103.662 17.8346 102.401 15.8156 100.273 13.7205C98.1441 11.6254 96.1054 10.397 94.1565 10.0353C92.2226 9.65845 90.5673 10.1694 89.1905 11.5682C87.8137 12.9669 87.3216 14.6378 87.7141 16.5807C88.1216 18.5084 89.3896 20.5198 91.5182 22.6149C93.6468 24.71 95.678 25.9459 97.6119 26.3228Z" fill="white"/>
</svg>
