<svg xmlns:osb="http://www.openswatchbook.org/uri/2009/osb" xmlns:dc="http://purl.org/dc/elements/1.1/" xmlns:cc="http://creativecommons.org/ns#" xmlns:rdf="http://www.w3.org/1999/02/22-rdf-syntax-ns#" xmlns:svg="http://www.w3.org/2000/svg" xmlns="http://www.w3.org/2000/svg" xmlns:xlink="http://www.w3.org/1999/xlink" xmlns:sodipodi="http://sodipodi.sourceforge.net/DTD/sodipodi-0.dtd" xmlns:inkscape="http://www.inkscape.org/namespaces/inkscape" width="1803.3047mm" height="813.83765mm" viewBox="0 0 1803.3047 813.83765" version="1.1" id="svg4285" inkscape:version="0.92.4 (5da689c313, 2019-01-14)" sodipodi:docname="moooon полный вектор.svg">
  <defs id="defs4279">
    <linearGradient gradientTransform="translate(-121.52323,751.57997)" inkscape:collect="always" xlink:href="#linearGradient3817" id="linearGradient3553-7" x1="-12063.911" y1="-2617.3225" x2="-12284.979" y2="-1925.7499" gradientUnits="userSpaceOnUse"/>
    <linearGradient id="linearGradient3817" inkscape:collect="always">
      <stop id="stop3811" offset="0" style="stop-color:#052aff;stop-opacity:1"/>
      <stop style="stop-color:#3ad9e7;stop-opacity:1" offset="0.63499701" id="stop3813"/>
      <stop id="stop3815" offset="1" style="stop-color:#0530ff;stop-opacity:1"/>
    </linearGradient>
    <linearGradient gradientTransform="translate(-121.52323,751.57997)" inkscape:collect="always" xlink:href="#linearGradient3825" id="linearGradient3551-3" x1="-12063.911" y1="-2617.3225" x2="-12284.979" y2="-1925.7499" gradientUnits="userSpaceOnUse"/>
    <linearGradient id="linearGradient3825" inkscape:collect="always">
      <stop id="stop3819" offset="0" style="stop-color:#052aff;stop-opacity:1"/>
      <stop style="stop-color:#3ad9e7;stop-opacity:1" offset="0.6330483" id="stop3821"/>
      <stop id="stop3823" offset="1" style="stop-color:#0530ff;stop-opacity:1"/>
    </linearGradient>
    <linearGradient id="linearGradient2080" gradientTransform="matrix(10.531826,0,0,10.531826,-426171.2,-55297.278)" osb:paint="solid">
      <stop style="stop-color:#000000;stop-opacity:1;" offset="0" id="stop2078"/>
    </linearGradient>
    <linearGradient inkscape:collect="always" xlink:href="#linearGradient3825" id="linearGradient5016" gradientUnits="userSpaceOnUse" gradientTransform="translate(-121.52323,751.57997)" x1="-12063.911" y1="-2617.3225" x2="-12284.979" y2="-1925.7499"/>
    <linearGradient inkscape:collect="always" xlink:href="#linearGradient3825" id="linearGradient5018" gradientUnits="userSpaceOnUse" gradientTransform="translate(-121.52323,751.57997)" x1="-12063.911" y1="-2617.3225" x2="-12284.979" y2="-1925.7499"/>
    <linearGradient inkscape:collect="always" xlink:href="#linearGradient3825" id="linearGradient5020" gradientUnits="userSpaceOnUse" gradientTransform="translate(-121.52323,751.57997)" x1="-12063.911" y1="-2617.3225" x2="-12284.979" y2="-1925.7499"/>
    <linearGradient inkscape:collect="always" xlink:href="#linearGradient3825" id="linearGradient5022" gradientUnits="userSpaceOnUse" gradientTransform="translate(-121.52323,751.57997)" x1="-12063.911" y1="-2617.3225" x2="-12284.979" y2="-1925.7499"/>
    <linearGradient inkscape:collect="always" xlink:href="#linearGradient3825" id="linearGradient5024" gradientUnits="userSpaceOnUse" gradientTransform="translate(-121.52323,751.57997)" x1="-12063.911" y1="-2617.3225" x2="-12284.979" y2="-1925.7499"/>
    <linearGradient inkscape:collect="always" xlink:href="#linearGradient3825" id="linearGradient5026" gradientUnits="userSpaceOnUse" gradientTransform="translate(-121.52323,751.57997)" x1="-12063.911" y1="-2617.3225" x2="-12284.979" y2="-1925.7499"/>
  </defs>
  <sodipodi:namedview id="base" pagecolor="#ffffff" bordercolor="#666666" borderopacity="1.0" inkscape:pageopacity="0.0" inkscape:pageshadow="2" inkscape:zoom="0.061871843" inkscape:cx="4048.3832" inkscape:cy="1891.706" inkscape:document-units="mm" inkscape:current-layer="g5922" showgrid="false"/>
  <metadata id="metadata4282">
    <rdf:RDF>
      <cc:Work rdf:about="">
        <dc:format>image/svg+xml</dc:format>
        <dc:type rdf:resource="http://purl.org/dc/dcmitype/StillImage"/>
        <dc:title/>
      </cc:Work>
    </rdf:RDF>
  </metadata>
  <g inkscape:label="Layer 1" inkscape:groupmode="layer" id="layer1" transform="translate(925.0869,276.98429)">
    <g transform="translate(-11701.101,2688.1649)" id="g5922">
      <g transform="matrix(1.4999982,0,0,1.4999982,-6350.3089,1183.2965)" id="g5905">
        <path sodipodi:arc-type="arc" sodipodi:open="true" sodipodi:end="3.9883721" sodipodi:start="1.1419777" sodipodi:ry="150.00752" sodipodi:rx="150.00751" sodipodi:cy="-1483.0322" sodipodi:cx="-12509.987" sodipodi:type="arc" style="opacity:1;fill:none;fill-opacity:1;stroke:url(#linearGradient3553-7);stroke-width:23.23426628;stroke-linecap:round;stroke-linejoin:miter;stroke-miterlimit:4;stroke-dasharray:none;stroke-dashoffset:2.26771998;stroke-opacity:0.97276264;paint-order:fill markers stroke" id="path3150-0-9-9-20-1-4-8-2-0" transform="matrix(-0.99669305,0.08125868,0.08125868,0.99669305,0,0)" d="m -12447.615,-1346.6067 a 150.00751,150.00752 0 0 1 -188.142,-54.6678 150.00751,150.00752 0 0 1 26.405,-194.136"/>
        <path sodipodi:arc-type="arc" style="opacity:1;fill:none;fill-opacity:1;stroke:url(#linearGradient5016);stroke-width:18.49487686;stroke-linecap:round;stroke-linejoin:miter;stroke-miterlimit:4;stroke-dasharray:none;stroke-dashoffset:2.26771998;stroke-opacity:0.97276264;paint-order:fill markers stroke" id="path3150-5-3-6-7-9-8-4-3" sodipodi:type="arc" sodipodi:cx="-12509.987" sodipodi:cy="-1483.0322" sodipodi:rx="103.77678" sodipodi:ry="103.77678" sodipodi:start="1.4506365" sodipodi:end="2.8935369" transform="matrix(-0.99669305,0.08125868,0.08125868,0.99669305,0,0)" sodipodi:open="true" d="m -12497.547,-1380.0037 a 103.77678,103.77678 0 0 1 -113.041,-77.5493"/>
        <path sodipodi:arc-type="arc" style="opacity:1;fill:none;fill-opacity:1;stroke:url(#linearGradient5018);stroke-width:27.62104416;stroke-linecap:round;stroke-linejoin:miter;stroke-miterlimit:4;stroke-dasharray:none;stroke-dashoffset:2.26771998;stroke-opacity:0.97276264;paint-order:fill markers stroke" id="path3150-0-6-46-4-3-5-5-3-7-6" transform="matrix(-0.99669305,0.08125868,0.08125868,0.99669305,0,0)" sodipodi:type="arc" sodipodi:cx="-12509.987" sodipodi:cy="-1483.0322" sodipodi:rx="178.33058" sodipodi:ry="178.33061" sodipodi:start="3.6579401" sodipodi:end="4.324123" sodipodi:open="true" d="m -12665.069,-1571.0753 a 178.33058,178.33061 0 0 1 87.569,-77.0138"/>
        <path sodipodi:arc-type="arc" sodipodi:open="true" sodipodi:end="1.7702824" sodipodi:start="0.56473671" sodipodi:ry="212.42325" sodipodi:rx="212.42323" sodipodi:cy="-1482.686" sodipodi:cx="-12510.336" sodipodi:type="arc" style="opacity:1;fill:none;fill-opacity:1;stroke:url(#linearGradient5020);stroke-width:32.90171814;stroke-linecap:round;stroke-linejoin:miter;stroke-miterlimit:4;stroke-dasharray:none;stroke-dashoffset:2.26771998;stroke-opacity:0.97276264;paint-order:fill markers stroke" id="path3150-0-6-4-6-5-9-7-0-1-7-1" transform="matrix(-0.99669305,0.08125868,0.08125868,0.99669305,0,0)" d="m -12330.896,-1368.9985 a 212.42323,212.42325 0 0 1 -221.535,94.5231"/>
        <path sodipodi:arc-type="arc" style="opacity:1;fill:none;fill-opacity:1;stroke:url(#linearGradient5022);stroke-width:38.99459076;stroke-linecap:round;stroke-linejoin:miter;stroke-miterlimit:4;stroke-dasharray:none;stroke-dashoffset:2.26771998;stroke-opacity:0.97276264;paint-order:fill markers stroke" id="path3150-0-6-4-0-3-8-0-1-4-8-5-0" sodipodi:type="arc" sodipodi:cx="-12510.336" sodipodi:cy="-1482.686" sodipodi:rx="251.76085" sodipodi:ry="251.76086" sodipodi:start="0.2523189" sodipodi:end="4.7792808" transform="matrix(-0.99669305,0.08125868,0.08125868,0.99669305,0,0)" sodipodi:open="true" d="m -12266.547,-1419.8339 a 251.76085,251.76086 0 0 1 -291.462,184.3538 251.76085,251.76086 0 0 1 -202.006,-279.5184 251.76085,251.76086 0 0 1 266.507,-218.8854"/>
        <path sodipodi:arc-type="arc" style="opacity:1;fill:none;fill-opacity:1;stroke:url(#linearGradient5024);stroke-width:19.53057861;stroke-linecap:round;stroke-linejoin:miter;stroke-miterlimit:4;stroke-dasharray:none;stroke-dashoffset:2.26771998;stroke-opacity:0.97276264;paint-order:fill markers stroke" id="path3152-4-5-7-8-6-8-9-4-6" sodipodi:type="arc" sodipodi:cx="-12509.987" sodipodi:cy="-1483.0322" sodipodi:rx="125.86376" sodipodi:ry="125.86375" sodipodi:start="1.7551767" sodipodi:end="3.623897" sodipodi:open="true" transform="matrix(-0.99669305,0.08125868,0.08125868,0.99669305,0,0)" d="m -12533.063,-1359.3019 a 125.86376,125.86375 0 0 1 -90.145,-68.7511 125.86376,125.86375 0 0 1 1.714,-113.3576"/>
        <path sodipodi:arc-type="arc" transform="matrix(-0.99669305,0.08125868,0.08125868,0.99669305,0,0)" id="path3150-0-6-4-6-5-2-8-9-7-6-8-3" style="opacity:1;fill:none;fill-opacity:1;stroke:url(#linearGradient5026);stroke-width:32.90171814;stroke-linecap:round;stroke-linejoin:miter;stroke-miterlimit:4;stroke-dasharray:none;stroke-dashoffset:2.26771998;stroke-opacity:0.97276264;paint-order:fill markers stroke" sodipodi:type="arc" sodipodi:cx="-12510.336" sodipodi:cy="-1482.686" sodipodi:rx="212.42323" sodipodi:ry="212.42325" sodipodi:start="2.2988998" sodipodi:end="4.5682715" sodipodi:open="true" d="m -12651.694,-1324.1253 a 212.42323,212.42325 0 0 1 -62.074,-219.7092 212.42323,212.42325 0 0 1 172.924,-149.0726"/>
        <path sodipodi:arc-type="arc" style="opacity:1;fill:none;fill-opacity:1;stroke:url(#linearGradient3551-3);stroke-width:27.62104416;stroke-linecap:round;stroke-linejoin:miter;stroke-miterlimit:4;stroke-dasharray:none;stroke-dashoffset:2.26771998;stroke-opacity:0.97276264;paint-order:fill markers stroke" id="path3150-0-6-46-4-7-7-8-1-4-1-2" transform="matrix(-0.99669305,0.08125868,0.08125868,0.99669305,0,0)" sodipodi:type="arc" sodipodi:cx="-12509.987" sodipodi:cy="-1483.0322" sodipodi:rx="178.33058" sodipodi:ry="178.33061" sodipodi:start="0.81982348" sodipodi:end="2.9832498" sodipodi:open="true" d="m -12388.303,-1352.668 a 178.33058,178.33061 0 0 1 -179.596,38.3013 178.33058,178.33061 0 0 1 -118.188,-140.546"/>
      </g>
      <g transform="translate(6097.0125,-2119.426)" id="g4435-7-0" style="fill:url(#linearGradient2080)">
        <g transform="matrix(2.6329014,0,0,2.6329014,9863.6573,-718.19236)" id="g2634-1-7-3-8-4-3-4-5-6" style="fill:url(#linearGradient2080)">
          <g aria-label="MADELSON" style="font-style:normal;font-variant:normal;font-weight:normal;font-stretch:normal;font-size:50.79999924px;line-height:1.25;font-family:'URW Gothic L';-inkscape-font-specification:'URW Gothic L';letter-spacing:0px;word-spacing:0px;fill:url(#linearGradient2080);fill-opacity:1;stroke:none;stroke-width:0.26458299" id="text935-0-64-9-3-4-0-0-2-0-7-3-1">
            <path d="m -1904.939,51.488664 q 2.6459,0 4.5509,1.904994 2.0108,1.799161 2.0108,4.550819 v 61.277303 q 0,2.75166 -1.7992,4.65666 -1.7991,1.79916 -4.7625,1.79916 -2.9633,0 -4.8683,-1.79916 -1.7991,-1.79916 -1.7991,-4.65666 V 76.571085 l -17.4625,26.669915 q -1.0583,1.27 -2.4341,2.11666 -1.3759,0.74083 -2.8575,0.635 -1.3759,0.10583 -2.7517,-0.635 -1.3758,-0.84666 -2.4342,-2.11666 l -17.4624,-27.622412 v 43.603192 q 0,2.8575 -1.6933,4.65666 -1.6934,1.79916 -4.445,1.79916 -2.6458,0 -4.3392,-1.79916 -1.6933,-1.905 -1.6933,-4.65666 V 57.944477 q 0,-2.645825 1.905,-4.550819 2.0108,-1.904994 4.7625,-1.904994 1.5875,0 3.175,0.846664 1.5875,0.740831 2.4341,2.010827 l 23.0716,35.454055 23.7066,-35.454055 q 0.8467,-1.269996 2.2225,-2.010827 1.4817,-0.846664 2.9633,-0.846664 z" style="font-style:normal;font-variant:normal;font-weight:bold;font-stretch:normal;font-size:105.83300018px;font-family:Quicksand;-inkscape-font-specification:'Quicksand Bold';fill:url(#linearGradient2080);fill-opacity:1;stroke-width:0.26458299" id="path5144"/>
            <path d="m -1824.4678,117.42262 q 0.5291,1.37583 0.5291,2.54 0,2.75165 -1.7991,4.55081 -1.7992,1.69333 -4.1275,1.69333 -1.905,0 -3.4925,-1.16416 -1.4817,-1.16416 -2.3283,-3.17499 l -5.5034,-12.80579 h -31.5382 l -5.5033,12.91162 q -0.7408,2.01083 -2.3283,3.17499 -1.4817,1.05833 -3.2809,1.05833 -2.7516,0 -4.2333,-1.48166 -1.3758,-1.48166 -1.3758,-4.02165 0,-0.9525 0.3175,-2.01083 l 26.3524,-63.288135 q 0.8467,-2.11666 2.54,-3.280823 1.6933,-1.164163 3.81,-0.952497 1.905,0 3.4925,1.164163 1.6933,1.05833 2.4341,3.069157 z m -43.0741,-20.531599 h 21.1666 l -10.6891,-24.764922 z" style="font-style:normal;font-variant:normal;font-weight:bold;font-stretch:normal;font-size:105.83300018px;font-family:Quicksand;-inkscape-font-specification:'Quicksand Bold';fill:url(#linearGradient2080);fill-opacity:1;stroke-width:0.26458299" id="path5146"/>
            <path d="m -1783.2277,51.594497 q 9.9483,0 17.0391,4.974151 7.1967,4.868318 10.9008,13.334958 3.81,8.360807 3.81,18.732441 0,10.371634 -3.81,18.838273 -3.7041,8.36081 -10.9008,13.33496 -7.0908,4.86832 -17.0391,4.86832 h -25.2941 q -2.7516,0 -4.6566,-1.79916 -1.7992,-1.905 -1.7992,-4.65666 V 58.05031 q 0,-2.751658 1.7992,-4.550819 1.905,-1.904994 4.6566,-1.904994 z m -1.0583,61.912303 q 9.5249,0 14.2874,-6.98498 4.7625,-7.090807 4.7625,-17.885773 0,-10.794966 -4.8683,-17.779944 -4.7625,-7.090811 -14.1816,-7.090811 h -17.4625 V 113.5068 Z" style="font-style:normal;font-variant:normal;font-weight:bold;font-stretch:normal;font-size:105.83300018px;font-family:Quicksand;-inkscape-font-specification:'Quicksand Bold';fill:url(#linearGradient2080);fill-opacity:1;stroke-width:0.26458299" id="path5148"/>
            <path d="m -1697.4137,113.5068 q 2.7517,0 4.5508,1.905 1.905,1.79916 1.905,4.23332 0,2.64582 -1.905,4.33915 -1.7991,1.69333 -4.5508,1.69333 h -35.454 q -2.7517,0 -4.6567,-1.79916 -1.7991,-1.905 -1.7991,-4.65666 V 58.05031 q 0,-2.751658 1.7991,-4.550819 1.905,-1.904994 4.6567,-1.904994 h 35.454 q 2.7517,0 4.5508,1.799161 1.905,1.693328 1.905,4.444986 0,2.645825 -1.7991,4.339153 -1.7992,1.587495 -4.6567,1.587495 h -28.6807 v 17.99161 h 23.9182 q 2.7517,0 4.5509,1.799161 1.905,1.693328 1.905,4.444986 0,2.645825 -1.7992,4.339153 -1.7992,1.587495 -4.6567,1.587495 h -23.9182 V 113.5068 Z" style="font-style:normal;font-variant:normal;font-weight:bold;font-stretch:normal;font-size:105.83300018px;font-family:Quicksand;-inkscape-font-specification:'Quicksand Bold';fill:url(#linearGradient2080);fill-opacity:1;stroke-width:0.26458299" id="path5150"/>
            <path d="m -1637.9074,113.29514 q 2.7516,0 4.5508,1.79916 1.905,1.69333 1.905,4.44498 0,2.64583 -1.905,4.44499 -1.7992,1.69333 -4.5508,1.69333 h -34.3958 q -2.7516,0 -4.6566,-1.79916 -1.7992,-1.905 -1.7992,-4.65666 V 58.05031 q 0,-2.751658 1.905,-4.550819 1.905,-1.904994 4.8683,-1.904994 2.6459,0 4.5509,1.904994 1.905,1.799161 1.905,4.550819 v 55.24483 z" style="font-style:normal;font-variant:normal;font-weight:bold;font-stretch:normal;font-size:105.83300018px;font-family:Quicksand;-inkscape-font-specification:'Quicksand Bold';fill:url(#linearGradient2080);fill-opacity:1;stroke-width:0.26458299" id="path5152"/>
            <path d="m -1595.4155,126.73593 q -7.62,0 -13.5466,-1.905 -5.9266,-1.90499 -11.1125,-6.45581 -2.8575,-2.53999 -2.8575,-5.60915 0,-2.43416 1.7992,-4.23332 1.7992,-1.90499 4.3392,-1.90499 2.0108,0 3.5983,1.26999 4.2333,3.49249 8.255,5.07999 4.0216,1.58749 9.5249,1.58749 5.9267,0 10.16,-2.64582 4.3391,-2.64583 4.3391,-6.56165 0,-4.76248 -4.2333,-7.408309 -4.2333,-2.751658 -13.4408,-4.127487 -23.1774,-3.386656 -23.1774,-21.589932 0,-6.667479 3.4925,-11.535797 3.4925,-4.974151 9.525,-7.514143 6.0324,-2.645825 13.4408,-2.645825 6.6674,0 12.4883,2.010827 5.9266,2.010827 9.8424,5.29165 3.0692,2.434159 3.0692,5.609149 0,2.434159 -1.7992,4.339153 -1.7991,1.799161 -4.2333,1.799161 -1.5875,0 -2.8575,-0.952497 -2.7517,-2.222493 -7.7258,-4.021654 -4.8683,-1.904994 -8.7841,-1.904994 -6.6675,0 -10.3717,2.539992 -3.5983,2.434159 -3.5983,6.455813 0,4.550819 3.7042,6.879145 3.8099,2.328326 11.8533,3.809988 9.1016,1.587495 14.4991,4.127487 5.5033,2.434159 8.2549,6.773312 2.7517,4.23332 2.7517,11.324131 0,6.66748 -3.81,11.74746 -3.7041,4.97415 -9.9483,7.72581 -6.2441,2.64583 -13.4408,2.64583 z" style="font-style:normal;font-variant:normal;font-weight:bold;font-stretch:normal;font-size:105.83300018px;font-family:Quicksand;-inkscape-font-specification:'Quicksand Bold';fill:url(#linearGradient2080);fill-opacity:1;stroke-width:0.26458299" id="path5154"/>
            <path d="m -1487.8197,88.636047 q 0,10.477467 -4.6566,19.261603 -4.6567,8.67831 -12.9117,13.75829 -8.1491,5.07999 -18.4149,5.07999 -10.2658,0 -18.5208,-5.07999 -8.1491,-5.07998 -12.8058,-13.75829 -4.5508,-8.784136 -4.5508,-19.261603 0,-10.477467 4.5508,-19.155773 4.6567,-8.784139 12.8058,-13.864123 8.255,-5.079984 18.5208,-5.079984 10.2658,0 18.4149,5.079984 8.255,5.079984 12.9117,13.864123 4.6566,8.678306 4.6566,19.155773 z m -13.7583,0 q 0,-7.090811 -2.8575,-12.805793 -2.8574,-5.820815 -7.9374,-9.207471 -5.08,-3.386656 -11.43,-3.386656 -6.4558,0 -11.5358,3.386656 -4.9741,3.280823 -7.8316,9.101638 -2.7517,5.820815 -2.7517,12.911626 0,7.090811 2.7517,12.911623 2.8575,5.82082 7.8316,9.20747 5.08,3.28083 11.5358,3.28083 6.35,0 11.43,-3.38666 5.08,-3.38665 7.9374,-9.10164 2.8575,-5.820812 2.8575,-12.911623 z" style="font-style:normal;font-variant:normal;font-weight:bold;font-stretch:normal;font-size:105.83300018px;font-family:Quicksand;-inkscape-font-specification:'Quicksand Bold';fill:url(#linearGradient2080);fill-opacity:1;stroke-width:0.26458299" id="path5156"/>
            <path d="m -1419.3705,51.594497 q 2.5399,0 4.1274,1.693328 1.5875,1.693328 1.5875,4.23332 v 61.700635 q 0,2.75166 -1.905,4.65666 -1.7991,1.79916 -4.5508,1.79916 -1.4816,0 -2.9633,-0.42333 -1.3758,-0.52917 -2.0108,-1.37583 l -38.8407,-49.318182 v 45.190692 q 0,2.53999 -1.6934,4.23332 -1.5875,1.69333 -4.2333,1.69333 -2.54,0 -4.1275,-1.69333 -1.5875,-1.69333 -1.5875,-4.23332 V 58.05031 q 0,-2.751658 1.7992,-4.550819 1.905,-1.904994 4.6566,-1.904994 1.5875,0 3.0692,0.634998 1.5875,0.634998 2.3283,1.693328 l 38.5232,49.106517 V 57.521145 q 0,-2.539992 1.5875,-4.23332 1.6934,-1.693328 4.2334,-1.693328 z" style="font-style:normal;font-variant:normal;font-weight:bold;font-stretch:normal;font-size:105.83300018px;font-family:Quicksand;-inkscape-font-specification:'Quicksand Bold';fill:url(#linearGradient2080);fill-opacity:1;stroke-width:0.26458299" id="path5158"/>
          </g>
          <g aria-label=" " style="font-style:normal;font-weight:normal;font-size:76.73290253px;line-height:1.25;font-family:sans-serif;letter-spacing:0px;word-spacing:0px;fill:url(#linearGradient2080);fill-opacity:1;stroke:none;stroke-width:1.91831994" id="text3403-4-4-7-4-6-5"/>
        </g>
      </g>
    </g>
  </g>
</svg>