<svg width="1920" height="1943" viewBox="0 0 1920 1943" fill="none" xmlns="http://www.w3.org/2000/svg">
<g opacity="0.6">
<circle opacity="0.1" cx="689.834" cy="1276.37" r="888.5" transform="rotate(20.8052 689.834 1276.37)" fill="#3A7FE7" stroke="#3A7FE7"/>
<circle opacity="0.2" cx="689.833" cy="1276.37" r="915.5" transform="rotate(20.8052 689.833 1276.37)" stroke="#3A7FE7"/>
<circle opacity="0.8" cx="689.833" cy="1276.37" r="942.5" transform="rotate(20.8052 689.833 1276.37)" stroke="#3A7FE7"/>
<path d="M1029.88 378.616L1014.14 391.891L1032.84 398.995L1029.88 378.616Z" fill="#3A7FE7"/>
<circle cx="467.573" cy="360.72" r="6" transform="rotate(20.8052 467.573 360.72)" fill="#3A7FE7"/>
<circle cx="1465" cy="739.711" r="6" transform="rotate(20.8052 1465 739.711)" fill="#3A7FE7"/>
<g opacity="0.2">
<path d="M965.254 347.034C960.891 345.943 957.66 343.573 955.56 339.924C953.461 336.274 952.957 332.295 954.05 327.985C955.15 323.648 957.491 320.379 961.073 318.18C964.662 315.952 968.638 315.384 973.002 316.475C975.625 317.13 977.882 318.364 979.772 320.175C981.697 321.966 983.011 324.08 983.714 326.517L978.05 328.182C977.666 326.687 976.903 325.41 975.762 324.351C974.628 323.264 973.233 322.514 971.576 322.099C968.759 321.395 966.254 321.721 964.06 323.078C961.894 324.441 960.449 326.549 959.725 329.404C959.008 332.23 959.279 334.753 960.537 336.972C961.823 339.198 963.874 340.663 966.691 341.367C968.348 341.781 969.931 341.79 971.441 341.394C972.986 340.976 974.267 340.21 975.284 339.095L979.479 343.224C977.697 345.04 975.542 346.302 973.013 347.009C970.492 347.688 967.905 347.696 965.254 347.034Z" fill="#3A7FE7"/>
<path d="M1006.89 335.396L1010.81 336.608L1004.37 357.283L999.228 355.693L1002.89 343.949L989.644 352.726L985.729 351.515L992.169 330.839L997.308 332.43L993.65 344.173L1006.89 335.396Z" fill="#3A7FE7"/>
<path d="M1029.35 354.99C1031.01 356.739 1031.44 358.724 1030.62 360.947C1029.98 362.681 1028.74 363.871 1026.9 364.516C1025.05 365.162 1022.85 365.013 1020.28 364.071C1016.22 362.58 1014.06 359.938 1013.78 356.146L1018.92 355.171C1018.88 357.25 1019.92 358.676 1022.03 359.452C1022.99 359.805 1023.79 359.885 1024.44 359.692C1025.11 359.509 1025.57 359.092 1025.81 358.442C1026.27 357.195 1025.71 356.282 1024.13 355.703L1021.29 354.658L1022.93 350.186L1025.1 350.981C1026.65 351.55 1027.65 351.212 1028.11 349.965C1028.33 349.369 1028.27 348.811 1027.95 348.292C1027.63 347.773 1027.09 347.376 1026.34 347.101C1024.6 346.463 1023.05 346.861 1021.67 348.293L1018.4 344.323C1021.07 341.766 1024.25 341.164 1027.93 342.519C1030.23 343.362 1031.83 344.626 1032.73 346.309C1033.66 347.975 1033.82 349.648 1033.2 351.328C1032.47 353.307 1031.19 354.527 1029.35 354.99Z" fill="#3A7FE7"/>
<path d="M1060.75 356.16L1065.81 358.324L1057.32 378.248L1052.26 376.083L1053.26 373.732C1050.92 375.023 1048.37 375.081 1045.62 373.907C1043 372.788 1041.18 370.817 1040.16 367.993C1039.17 365.153 1039.31 362.259 1040.56 359.31C1041.82 356.362 1043.81 354.275 1046.53 353.05C1049.28 351.81 1051.97 351.749 1054.58 352.867C1057.33 354.042 1059.05 355.923 1059.74 358.511L1060.75 356.16ZM1045.43 366.193C1046.01 367.665 1047.08 368.737 1048.65 369.408C1050.22 370.079 1051.74 370.115 1053.2 369.515C1054.7 368.9 1055.8 367.769 1056.5 366.122C1057.2 364.475 1057.25 362.909 1056.65 361.426C1056.08 359.927 1055.01 358.842 1053.44 358.171C1051.87 357.5 1050.35 357.478 1048.87 358.104C1047.41 358.704 1046.33 359.828 1045.63 361.475C1044.93 363.122 1044.86 364.694 1045.43 366.193Z" fill="#3A7FE7"/>
<path d="M1095.45 370.987L1086.41 390.661L1081.41 388.351L1088.21 373.555L1082.86 371.083L1079.84 377.654C1077.04 383.74 1073.06 385.222 1067.88 382.099L1070.07 377.337C1070.99 378.077 1071.85 378.271 1072.67 377.919C1073.5 377.54 1074.27 376.59 1074.97 375.068L1080.11 363.893L1095.45 370.987Z" fill="#3A7FE7"/>
<path d="M1110.67 387.147C1112.84 388.198 1114.31 389.657 1115.05 391.524C1115.81 393.364 1115.71 395.287 1114.75 397.292C1113.79 399.296 1112.35 400.589 1110.43 401.17C1108.52 401.724 1106.48 401.476 1104.3 400.424L1095.61 396.232L1104.97 376.706L1109.93 379.099L1106.94 385.347L1110.67 387.147ZM1106.47 395.991C1107.16 396.325 1107.82 396.402 1108.45 396.221C1109.11 396.027 1109.59 395.605 1109.9 394.954C1110.22 394.303 1110.24 393.658 1109.98 393.019C1109.74 392.392 1109.28 391.912 1108.59 391.578L1104.82 389.76L1102.7 394.173L1106.47 395.991Z" fill="#3A7FE7"/>
</g>
<g opacity="0.2">
<path d="M422.424 346.47L419.615 347.348L406.36 340.127L409.597 350.481L407.459 351.149L400.774 329.77L402.912 329.101L405.968 338.875L412.625 326.064L415.434 325.186L408.419 338.779L422.424 346.47Z" fill="#19181C"/>
<path d="M442.667 339.356C441.532 341.331 439.834 342.633 437.573 343.26C435.312 343.887 433.176 343.649 431.165 342.547C429.17 341.418 427.855 339.713 427.222 337.431C426.589 335.149 426.84 333.02 427.975 331.045C429.124 329.044 430.829 327.729 433.091 327.102C435.352 326.475 437.48 326.726 439.476 327.854C441.487 328.957 442.809 330.649 443.442 332.931C444.075 335.213 443.816 337.355 442.667 339.356ZM432.221 340.726C433.718 341.573 435.319 341.76 437.026 341.286C438.732 340.813 440.008 339.828 440.855 338.331C441.696 336.814 441.88 335.202 441.406 333.496C440.933 331.79 439.948 330.513 438.451 329.666C436.949 328.799 435.344 328.602 433.638 329.076C431.932 329.549 430.658 330.544 429.817 332.062C428.971 333.558 428.784 335.16 429.257 336.866C429.731 338.572 430.719 339.859 432.221 340.726Z" fill="#19181C"/>
<path d="M466.354 334.576L463.619 335.248L454.009 329.67L455.85 337.159L453.8 337.663L449.979 322.126L452.03 321.622L453.718 328.489L459.425 319.803L462.222 319.115L456.039 328.545L466.354 334.576Z" fill="#19181C"/>
<path d="M486.934 327.492C485.684 329.396 483.912 330.594 481.617 331.085C479.322 331.577 477.204 331.213 475.263 329.992C473.338 328.747 472.128 326.966 471.631 324.651C471.135 322.335 471.512 320.225 472.763 318.321C474.029 316.392 475.81 315.181 478.104 314.69C480.399 314.198 482.509 314.575 484.434 315.821C486.375 317.041 487.594 318.809 488.09 321.124C488.586 323.44 488.201 325.562 486.934 327.492ZM476.425 328.238C477.869 329.172 479.457 329.454 481.188 329.083C482.919 328.712 484.252 327.805 485.187 326.361C486.116 324.896 486.396 323.298 486.025 321.567C485.654 319.835 484.747 318.503 483.303 317.568C481.855 316.613 480.265 316.321 478.533 316.692C476.802 317.063 475.471 317.981 474.542 319.445C473.607 320.889 473.326 322.477 473.697 324.208C474.068 325.94 474.977 327.283 476.425 328.238Z" fill="#19181C"/>
<path d="M506.823 325.153C504.452 325.587 502.335 325.161 500.473 323.875C498.607 322.568 497.461 320.75 497.035 318.421C496.609 316.091 497.039 313.996 498.325 312.134C499.607 310.251 501.433 309.093 503.805 308.659C505.357 308.375 506.822 308.497 508.198 309.026C509.571 309.534 510.656 310.365 511.453 311.521L509.931 312.808C509.339 311.94 508.521 311.32 507.477 310.947C506.449 310.55 505.348 310.458 504.173 310.673C502.432 310.992 501.074 311.869 500.101 313.305C499.123 314.72 498.794 316.299 499.113 318.041C499.431 319.782 500.3 321.152 501.719 322.151C503.134 323.128 504.712 323.457 506.454 323.138C507.629 322.923 508.629 322.459 509.452 321.744C510.272 321.008 510.858 320.12 511.209 319.08L513.125 319.771C512.705 321.149 511.932 322.32 510.808 323.285C509.683 324.25 508.355 324.873 506.823 325.153Z" fill="#19181C"/>
</g>
<g opacity="0.2">
<path d="M1435.5 666.627L1437.02 665.344C1437.86 666.67 1438.98 667.246 1440.37 667.073C1441.79 666.903 1443.71 665.796 1446.11 663.754L1455.61 655.704L1465 666.785L1447.92 681.271L1446.47 679.563L1461.94 666.442L1455.45 658.778L1447.51 665.504C1445.97 666.815 1444.57 667.79 1443.32 668.429C1442.07 669.068 1440.97 669.378 1440 669.359C1439.06 669.342 1438.23 669.107 1437.51 668.655C1436.83 668.204 1436.15 667.529 1435.5 666.627Z" fill="#19181C"/>
<path d="M1476.47 689.89L1477.78 691.544L1465.25 701.49L1463.93 699.836L1466.39 697.887C1463.64 698.193 1461.38 697.234 1459.61 695.012C1458.19 693.224 1457.62 691.191 1457.88 688.913C1458.15 686.652 1459.21 684.792 1461.05 683.333C1462.89 681.874 1464.94 681.267 1467.2 681.513C1469.48 681.775 1471.33 682.8 1472.75 684.588C1474.51 686.81 1474.93 689.227 1474.01 691.839L1476.47 689.89ZM1459.96 689.221C1459.76 690.929 1460.22 692.477 1461.32 693.864C1462.42 695.251 1463.82 696.043 1465.53 696.239C1467.26 696.422 1468.81 695.964 1470.2 694.863C1471.59 693.762 1472.38 692.358 1472.57 690.649C1472.79 688.927 1472.34 687.373 1471.24 685.986C1470.14 684.599 1468.73 683.814 1467 683.631C1465.3 683.434 1463.75 683.886 1462.36 684.987C1460.97 686.088 1460.17 687.499 1459.96 689.221Z" fill="#19181C"/>
<path d="M1491.56 710.6L1489.92 711.826L1486.53 707.287L1475.35 715.635L1474.09 713.943L1485.26 705.595L1481.88 701.057L1483.52 699.831L1491.56 710.6Z" fill="#19181C"/>
<path d="M1500.95 723.669C1502.31 725.609 1502.72 727.656 1502.17 729.811C1501.65 731.971 1500.46 733.707 1498.59 735.017C1498.4 735.152 1498.11 735.324 1497.74 735.534L1489.68 724.03C1488.47 725.135 1487.81 726.435 1487.68 727.929C1487.59 729.429 1488.03 730.878 1489.01 732.275C1489.71 733.271 1490.51 733.986 1491.41 734.421C1492.35 734.861 1493.27 735.031 1494.19 734.933L1494.37 737.077C1493.04 737.15 1491.75 736.878 1490.51 736.262C1489.27 735.645 1488.21 734.7 1487.31 733.424C1485.87 731.363 1485.34 729.233 1485.73 727.034C1486.11 724.835 1487.3 723.038 1489.29 721.642C1491.25 720.271 1493.33 719.763 1495.53 720.12C1497.74 720.477 1499.54 721.66 1500.95 723.669ZM1499.28 724.845C1498.32 723.482 1497.11 722.626 1495.64 722.275C1494.2 721.93 1492.77 722.123 1491.35 722.855L1498.21 732.629C1499.46 731.487 1500.16 730.201 1500.31 728.771C1500.45 727.342 1500.11 726.033 1499.28 724.845Z" fill="#19181C"/>
<path d="M1506.07 761.078L1504.52 758.725L1506.57 747.804L1500.13 752.039L1498.97 750.273L1512.34 741.488L1513.5 743.254L1507.59 747.137L1517.68 749.619L1519.26 752.026L1508.31 749.343L1506.07 761.078Z" fill="#19181C"/>
<path d="M1515.28 777.224C1514.02 775.172 1513.64 773.045 1514.17 770.844C1514.71 768.631 1515.99 766.903 1518 765.661C1520.02 764.418 1522.13 764.058 1524.33 764.581C1526.55 765.092 1528.29 766.374 1529.55 768.426C1530.38 769.77 1530.8 771.179 1530.81 772.654C1530.83 774.117 1530.45 775.43 1529.66 776.592L1527.91 775.641C1528.51 774.774 1528.79 773.787 1528.75 772.678C1528.75 771.577 1528.44 770.518 1527.81 769.501C1526.88 767.994 1525.57 767.047 1523.88 766.661C1522.21 766.264 1520.62 766.53 1519.11 767.459C1517.6 768.388 1516.64 769.695 1516.23 771.379C1515.83 773.052 1516.09 774.642 1517.02 776.15C1517.65 777.167 1518.45 777.929 1519.41 778.437C1520.39 778.934 1521.43 779.158 1522.53 779.108L1522.58 781.144C1521.15 781.252 1519.77 780.958 1518.47 780.26C1517.16 779.562 1516.1 778.55 1515.28 777.224Z" fill="#19181C"/>
</g>
<circle cx="144.366" cy="507.49" r="6" transform="rotate(20.8052 144.366 507.49)" fill="#3A7FE7"/>
<g opacity="0.2">
<path d="M31.1126 572.03L29.0272 574.108L13.9351 573.832L21.592 581.516L20.0053 583.097L4.1946 567.23L5.78137 565.649L13.0091 572.902L12.9898 558.466L15.0753 556.388L15.1383 571.684L31.1126 572.03Z" fill="#19181C"/>
<path d="M45.1781 555.865C45.096 558.141 44.2013 560.084 42.4939 561.694C40.7866 563.304 38.7865 564.091 36.4937 564.053C34.2017 563.986 32.2435 563.091 30.619 561.368C28.9945 559.645 28.2233 557.645 28.3053 555.369C28.3882 553.062 29.2833 551.104 30.9907 549.494C32.6981 547.884 34.6978 547.113 36.9897 547.181C39.2825 547.218 41.2412 548.098 42.8657 549.821C44.4902 551.544 45.261 553.558 45.1781 555.865ZM36.5781 561.951C38.2971 562.001 39.8007 561.419 41.089 560.204C42.3773 558.99 43.0467 557.523 43.0972 555.804C43.1331 554.069 42.5437 552.558 41.329 551.27C40.1143 549.981 38.6475 549.312 36.9285 549.261C35.1949 549.195 33.684 549.77 32.3957 550.984C31.1074 552.199 30.4453 553.674 30.4094 555.408C30.3589 557.127 30.941 558.631 32.1557 559.919C33.3704 561.207 34.8445 561.884 36.5781 561.951Z" fill="#19181C"/>
<path d="M52.8221 530.061L54.3974 528.654L65.0551 540.588L63.4799 541.994L58.8331 536.791L51.9593 542.93L56.6061 548.133L55.0309 549.54L44.3731 537.606L45.9484 536.2L50.5951 541.403L57.4689 535.264L52.8221 530.061Z" fill="#19181C"/>
<path d="M78.1415 529.836C76.3026 531.395 74.2555 532.081 72.0004 531.895C69.7316 531.693 67.8316 530.688 66.3005 528.882C64.7694 527.075 64.0969 525.045 64.283 522.79C64.4552 520.518 65.4609 518.603 67.2999 517.044C68.5042 516.024 69.8347 515.399 71.2914 515.171C72.7344 514.927 74.0894 515.107 75.3564 515.711L74.6796 517.585C73.7334 517.129 72.7148 516.999 71.6238 517.197C70.5353 517.364 69.5354 517.834 68.624 518.607C67.2733 519.752 66.5341 521.189 66.4065 522.919C66.2651 524.633 66.7668 526.165 67.9117 527.516C69.0565 528.867 70.4928 529.621 72.2204 529.779C73.9343 529.92 75.4666 529.419 76.8174 528.274C77.7287 527.501 78.3631 526.6 78.7206 525.57C79.0642 524.524 79.1291 523.462 78.9152 522.385L80.92 522.028C81.2431 523.432 81.1578 524.833 80.6641 526.23C80.1704 527.627 79.3296 528.829 78.1415 529.836Z" fill="#19181C"/>
<path d="M99.8411 511.528L97.6485 513.295L86.5803 512.31L91.4194 518.315L89.7749 519.64L79.7353 507.182L81.3798 505.856L85.8173 511.363L87.3099 501.078L89.5524 499.27L87.9429 510.431L99.8411 511.528Z" fill="#19181C"/>
<path d="M105.653 486.809L107.076 485.72L116.803 498.423L115.127 499.707L107.636 489.925L107.556 505.505L106.133 506.594L96.405 493.891L98.0818 492.607L105.572 502.388L105.653 486.809Z" fill="#19181C"/>
<path d="M115.576 476.229L114.487 474.727L121.221 469.841L122.311 471.344L115.576 476.229ZM124.436 472.965L125.886 471.912L135.282 484.863L133.572 486.103L126.338 476.131L125.854 491.703L124.403 492.755L115.008 479.805L116.717 478.565L123.952 488.537L124.436 472.965Z" fill="#19181C"/>
<path d="M157.613 459.573C159.424 459.134 160.844 459.687 161.874 461.231C162.596 462.314 162.83 463.453 162.576 464.648C162.327 465.814 161.529 466.846 160.18 467.746L153.711 472.061L144.833 458.75L150.769 454.79C152.065 453.926 153.293 453.595 154.452 453.796C155.6 453.979 156.524 454.594 157.222 455.641C158.11 456.972 158.24 458.283 157.613 459.573ZM151.906 456.494L147.726 459.282L150.425 463.328L154.605 460.541C156.149 459.511 156.459 458.304 155.536 456.919C155.122 456.298 154.598 455.955 153.965 455.89C153.338 455.796 152.651 455.997 151.906 456.494ZM159.044 466.042C159.824 465.521 160.295 464.939 160.454 464.294C160.632 463.637 160.495 462.971 160.046 462.297C159.631 461.676 159.093 461.33 158.43 461.259C157.773 461.158 157.055 461.368 156.274 461.889L151.562 465.032L154.331 469.185L159.044 466.042Z" fill="#19181C"/>
<path d="M181.436 451.68C180.917 453.898 179.665 455.632 177.68 456.884C175.694 458.135 173.58 458.521 171.337 458.043C169.101 457.536 167.352 456.281 166.09 454.277C164.827 452.274 164.455 450.163 164.974 447.945C165.499 445.698 166.754 443.949 168.74 442.697C170.725 441.446 172.836 441.074 175.072 441.582C177.315 442.06 179.067 443.3 180.33 445.304C181.592 447.307 181.961 449.432 181.436 451.68ZM171.825 455.996C173.502 456.377 175.09 456.095 176.588 455.151C178.086 454.207 179.025 452.896 179.405 451.219C179.774 449.524 179.487 447.928 178.543 446.43C177.599 444.932 176.288 443.992 174.611 443.612C172.923 443.213 171.33 443.486 169.832 444.43C168.334 445.374 167.4 446.694 167.031 448.389C166.651 450.066 166.932 451.653 167.876 453.151C168.82 454.649 170.137 455.598 171.825 455.996Z" fill="#19181C"/>
<path d="M195.444 426.915L203.606 440.677L201.789 441.754L194.672 429.754L188.452 433.443L192.092 439.581C193.452 441.874 193.948 443.713 193.578 445.098C193.227 446.472 192.258 447.556 190.669 448.349L189.657 446.642C190.769 446.132 191.392 445.427 191.529 444.528C191.683 443.618 191.266 442.328 190.275 440.658L185.591 432.759L195.444 426.915Z" fill="#19181C"/>
<path d="M222.821 427.491C222.184 429.678 220.84 431.342 218.79 432.484C216.74 433.626 214.608 433.898 212.394 433.3C210.189 432.672 208.51 431.324 207.358 429.256C206.205 427.187 205.948 425.059 206.586 422.873C207.232 420.657 208.58 418.978 210.63 417.836C212.68 416.694 214.807 416.436 217.013 417.064C219.226 417.662 220.909 418.996 222.062 421.064C223.214 423.133 223.467 425.275 222.821 427.491ZM212.992 431.282C214.646 431.752 216.246 431.557 217.793 430.695C219.34 429.833 220.349 428.575 220.819 426.921C221.279 425.249 221.079 423.639 220.217 422.092C219.355 420.545 218.097 419.537 216.443 419.066C214.779 418.577 213.173 418.763 211.626 419.625C210.079 420.487 209.076 421.754 208.616 423.427C208.145 425.081 208.341 426.681 209.203 428.228C210.064 429.775 211.327 430.793 212.992 431.282Z" fill="#19181C"/>
<path d="M240.711 420.664C238.575 421.78 236.427 421.999 234.268 421.321C232.099 420.625 230.467 419.227 229.371 417.128C228.274 415.029 228.065 412.9 228.743 410.741C229.411 408.563 230.813 406.916 232.95 405.801C234.349 405.07 235.785 404.754 237.256 404.852C238.717 404.931 239.999 405.405 241.102 406.273L240.03 407.952C239.207 407.298 238.242 406.948 237.134 406.901C236.036 406.825 234.957 407.063 233.898 407.616C232.328 408.436 231.291 409.675 230.786 411.335C230.271 412.976 230.423 414.581 231.243 416.15C232.062 417.72 233.297 418.772 234.948 419.306C236.589 419.821 238.194 419.668 239.763 418.849C240.822 418.296 241.64 417.556 242.215 416.63C242.78 415.685 243.077 414.664 243.106 413.566L245.14 413.659C245.146 415.1 244.755 416.447 243.966 417.701C243.177 418.956 242.092 419.943 240.711 420.664Z" fill="#19181C"/>
</g>
<g clip-path="url(#clip0_1382:4150)">
<path d="M147.34 47.5039C139.23 47.5039 132.633 54.1014 132.633 62.2111L132.633 82.7967C132.633 90.9064 139.23 97.5039 147.34 97.5039C155.45 97.5039 162.047 90.9064 162.047 82.7967L162.047 62.2111C162.047 54.1014 155.45 47.5039 147.34 47.5039ZM159.047 82.7967C159.047 89.2519 153.795 94.504 147.34 94.504C140.885 94.504 135.633 89.2519 135.633 82.7967L135.633 62.2111C135.633 55.7559 140.885 50.5038 147.34 50.5038C153.795 50.5038 159.047 55.7559 159.047 62.2111L159.047 82.7967Z" fill="#3A7FE7"/>
<path d="M147.34 57.4512C146.511 57.4512 145.84 58.1226 145.84 58.9511L145.84 65.8549C145.84 66.6831 146.511 67.3549 147.34 67.3549C148.168 67.3549 148.84 66.6831 148.84 65.8549L148.84 58.9511C148.84 58.1226 148.168 57.4512 147.34 57.4512Z" fill="#3A7FE7"/>
</g>
</g>
<defs>
<clipPath id="clip0_1382:4150">
<rect width="50" height="50" fill="white" transform="translate(122.379 47.5039)"/>
</clipPath>
</defs>
</svg>
