<svg width="51" height="51" viewBox="0 0 51 51" fill="none" xmlns="http://www.w3.org/2000/svg">
<g clip-path="url(#clip0_2:110)">
<path d="M25.3391 0.503174C17.2295 0.503174 10.632 7.10069 10.632 15.2104L10.632 35.796C10.632 43.9057 17.2295 50.5032 25.3391 50.5032C33.4488 50.5032 40.0463 43.9057 40.0463 35.796L40.0463 15.2104C40.0463 7.10069 33.4488 0.503174 25.3391 0.503174ZM37.0464 35.796C37.0464 42.2512 31.7944 47.5033 25.3391 47.5033C18.8839 47.5033 13.6318 42.2512 13.6318 35.796L13.6318 15.2104C13.6318 8.75513 18.8839 3.50305 25.3391 3.50305C31.7944 3.50305 37.0464 8.75513 37.0464 15.2104L37.0464 35.796Z" fill="#3A7FE7"/>
<path d="M25.3395 10.4496C24.511 10.4496 23.8396 11.121 23.8396 11.9495L23.8396 18.8534C23.8396 19.6815 24.511 20.3533 25.3395 20.3533C26.1677 20.3533 26.8395 19.6815 26.8395 18.8534L26.8395 11.9495C26.8395 11.121 26.1681 10.4496 25.3395 10.4496Z" fill="#3A7FE7"/>
</g>
<defs>
<clipPath id="clip0_2:110">
<rect width="50" height="50" fill="white" transform="translate(0.378052 0.503174)"/>
</clipPath>
</defs>
</svg>
