<svg width="50" height="50" viewBox="0 0 50 50" fill="none" xmlns="http://www.w3.org/2000/svg">
<circle cx="25" cy="25" r="24.5" stroke="#3A7FE7"/>
<g clip-path="url(#clip0_1382:4119)">
<path d="M16.113 29.942C19.072 33.4791 22.634 36.264 26.6995 38.2346C28.2473 38.9681 30.3174 39.8384 32.6236 39.9876C32.7666 39.9938 32.9033 40 33.0463 40C34.5942 40 35.8375 39.4654 36.8507 38.3651C36.8569 38.3589 36.8694 38.3465 36.8756 38.334C37.2361 37.8989 37.6464 37.5073 38.0753 37.0908C38.3675 36.811 38.6659 36.5189 38.9518 36.2205C40.2759 34.8404 40.2759 33.0874 38.9394 31.7509L35.2034 28.0149C34.5693 27.356 33.8109 27.0079 33.0152 27.0079C32.2196 27.0079 31.4549 27.356 30.8022 28.0087L28.5768 30.2341C28.3716 30.116 28.1603 30.0104 27.9614 29.9109C27.7127 29.7866 27.4827 29.6685 27.2776 29.5379C25.251 28.2511 23.411 26.5727 21.6518 24.4157C20.7629 23.2905 20.1661 22.3456 19.7496 21.3821C20.3339 20.8537 20.881 20.3005 21.4094 19.7596C21.5958 19.5669 21.7886 19.3742 21.9813 19.1815C22.6526 18.5102 23.0132 17.7331 23.0132 16.9436C23.0132 16.1542 22.6588 15.3771 21.9813 14.7058L20.1288 12.8533C19.9112 12.6357 19.7061 12.4244 19.4947 12.2068C19.0845 11.7841 18.6555 11.3489 18.2328 10.9573C17.5925 10.3295 16.8404 10 16.0447 10C15.2552 10 14.4968 10.3295 13.8317 10.9635L11.5067 13.2884C10.6613 14.1339 10.1827 15.1596 10.0832 16.3469C9.9651 17.8326 10.2386 19.4115 10.9473 21.3199C12.0351 24.2727 13.6762 27.0141 16.113 29.942ZM11.6 16.4774C11.6746 15.6506 11.9916 14.9606 12.5884 14.3639L14.9009 12.0514C15.2614 11.7033 15.6593 11.523 16.0447 11.523C16.4239 11.523 16.8093 11.7033 17.1636 12.0638C17.5801 12.4492 17.9717 12.8533 18.3944 13.2822C18.6058 13.4998 18.8234 13.7174 19.0409 13.9412L20.8934 15.7936C21.2788 16.179 21.4777 16.5707 21.4777 16.9561C21.4777 17.3415 21.2788 17.7331 20.8934 18.1185C20.7007 18.3112 20.508 18.5102 20.3153 18.7029C19.7372 19.2872 19.1963 19.8404 18.5996 20.3688C18.5871 20.3813 18.5809 20.3875 18.5685 20.3999C18.0525 20.9159 18.1334 21.407 18.2577 21.7799C18.2639 21.7986 18.2701 21.811 18.2763 21.8297C18.755 22.9797 19.4201 24.0738 20.4583 25.3792C22.3232 27.6792 24.2875 29.4633 26.4508 30.8371C26.7181 31.0112 27.0041 31.1479 27.2714 31.2847C27.52 31.409 27.75 31.5271 27.9552 31.6577C27.98 31.6701 27.9987 31.6826 28.0235 31.695C28.2287 31.8007 28.4276 31.8504 28.6265 31.8504C29.1238 31.8504 29.4471 31.5334 29.5527 31.4277L31.8777 29.1028C32.2382 28.7422 32.6298 28.5495 33.0152 28.5495C33.4877 28.5495 33.8731 28.8417 34.1155 29.1028L37.864 32.845C38.6099 33.591 38.6037 34.3991 37.8453 35.1886C37.5842 35.4683 37.3107 35.7356 37.0186 36.0153C36.5834 36.438 36.1296 36.8732 35.7193 37.3643C35.0045 38.1351 34.1528 38.4956 33.0525 38.4956C32.9469 38.4956 32.835 38.4894 32.7293 38.4832C30.6903 38.3527 28.7944 37.557 27.3708 36.8794C23.5043 35.0083 20.1101 32.3539 17.2941 28.9847C14.9755 26.1935 13.4152 23.5951 12.3832 20.8102C11.743 19.1007 11.5005 17.7269 11.6 16.4774Z" fill="#3A7FE7"/>
</g>
<defs>
<clipPath id="clip0_1382:4119">
<rect width="30" height="30" fill="white" transform="translate(10 10)"/>
</clipPath>
</defs>
</svg>
