<svg width="15" height="15" viewBox="0 0 15 15" fill="none" xmlns="http://www.w3.org/2000/svg">
<circle cx="7.49979" cy="7.5" r="7" stroke="white"/>
<g clip-path="url(#clip0_2:599)">
<path d="M4.83405 8.98259C5.72174 10.0437 6.79033 10.8792 8.00997 11.4704C8.47433 11.6904 9.09534 11.9515 9.78722 11.9963C9.83011 11.9981 9.87114 12 9.91403 12C10.3784 12 10.7514 11.8396 11.0554 11.5095C11.0572 11.5077 11.0609 11.5039 11.0628 11.5002C11.171 11.3697 11.2941 11.2522 11.4227 11.1272C11.5104 11.0433 11.5999 10.9557 11.6857 10.8661C12.0829 10.4521 12.0829 9.92623 11.682 9.52528L10.5612 8.40448C10.3709 8.2068 10.1434 8.10236 9.90471 8.10236C9.666 8.10236 9.43662 8.2068 9.24081 8.40261L8.57317 9.07024C8.51163 9.03481 8.44822 9.00311 8.38855 8.97327C8.31395 8.93597 8.24495 8.90054 8.18341 8.86138C7.57545 8.47534 7.02344 7.97182 6.49567 7.3247C6.22899 6.98715 6.04996 6.70369 5.92502 6.41463C6.10032 6.25611 6.26443 6.09014 6.42294 5.92789C6.47889 5.87008 6.5367 5.81227 6.59451 5.75445C6.79592 5.55305 6.90409 5.31993 6.90409 5.08309C6.90409 4.84625 6.79779 4.61314 6.59451 4.41173L6.03877 3.85599C5.9735 3.79072 5.91196 3.72731 5.84855 3.66204C5.72547 3.53523 5.59679 3.40468 5.46998 3.28719C5.2779 3.09884 5.05224 3 4.81354 3C4.57669 3 4.34918 3.09884 4.14963 3.28906L3.45216 3.98653C3.19853 4.24016 3.05494 4.54787 3.0251 4.90406C2.98967 5.34977 3.07172 5.82346 3.28432 6.39598C3.61068 7.28181 4.10301 8.10423 4.83405 8.98259ZM3.48013 4.94322C3.50251 4.69519 3.59762 4.48819 3.77665 4.30916L4.47039 3.61542C4.57856 3.51098 4.69791 3.4569 4.81354 3.4569C4.92729 3.4569 5.04292 3.51098 5.14922 3.61915C5.27417 3.73477 5.39165 3.85599 5.51847 3.98467C5.58187 4.04994 5.64715 4.11521 5.71242 4.18235L6.26816 4.73809C6.38378 4.85371 6.44346 4.9712 6.44346 5.08682C6.44346 5.20245 6.38378 5.31993 6.26816 5.43556C6.21035 5.49337 6.15253 5.55305 6.09472 5.61086C5.92129 5.78616 5.75904 5.95213 5.58001 6.11065C5.57628 6.11438 5.57441 6.11625 5.57069 6.11998C5.4159 6.27476 5.44014 6.42209 5.47744 6.53398C5.47931 6.53958 5.48117 6.54331 5.48303 6.5489C5.62663 6.89391 5.82618 7.22213 6.13761 7.61376C6.69708 8.30377 7.28639 8.839 7.93538 9.25114C8.01557 9.30336 8.10135 9.34438 8.18154 9.38541C8.25614 9.42271 8.32514 9.45814 8.38668 9.49731C8.39414 9.50104 8.39974 9.50477 8.4072 9.5085C8.46874 9.5402 8.52841 9.55512 8.58809 9.55512C8.73728 9.55512 8.83426 9.46001 8.86596 9.42831L9.56343 8.73083C9.6716 8.62267 9.78909 8.56486 9.90471 8.56486C10.0464 8.56486 10.1621 8.65251 10.2348 8.73083L11.3593 9.8535C11.5831 10.0773 11.5813 10.3197 11.3537 10.5566C11.2754 10.6405 11.1934 10.7207 11.1057 10.8046C10.9752 10.9314 10.839 11.062 10.7159 11.2093C10.5015 11.4405 10.246 11.5487 9.9159 11.5487C9.88419 11.5487 9.85063 11.5468 9.81892 11.545C9.20724 11.5058 8.63844 11.2671 8.21138 11.0638C7.05141 10.5025 6.03318 9.70617 5.18838 8.6954C4.49277 7.85806 4.02468 7.07853 3.71511 6.24306C3.52303 5.73021 3.4503 5.31807 3.48013 4.94322Z" fill="white"/>
</g>
<defs>
<clipPath id="clip0_2:599">
<rect width="9" height="9" fill="white" transform="translate(2.99979 3)"/>
</clipPath>
</defs>
</svg>
