<svg width="30" height="30" viewBox="0 0 30 30" fill="none" xmlns="http://www.w3.org/2000/svg">
<circle cx="15" cy="15.0004" r="15" fill="white"/>
<path d="M25.4 8.06459C24.6414 8.41463 23.833 8.64665 22.9902 8.75931C23.8572 8.2148 24.519 7.35914 24.8301 6.32779C24.0217 6.83475 23.1292 7.19284 22.1781 7.39267C21.4105 6.53299 20.3166 6.00055 19.1232 6.00055C16.8078 6.00055 14.9437 7.97741 14.9437 10.4009C14.9437 10.7496 14.9718 11.0849 15.0406 11.4041C11.5637 11.2257 8.48712 9.4728 6.42035 6.80256C6.05952 7.46107 5.84788 8.2148 5.84788 9.0262C5.84788 10.5498 6.59375 11.9003 7.70555 12.6822C7.03362 12.6688 6.37445 12.4636 5.816 12.1404C5.816 12.1538 5.816 12.1712 5.816 12.1886C5.816 14.3264 7.26567 16.1021 9.1667 16.5112C8.82627 16.6091 8.45525 16.656 8.0702 16.656C7.80245 16.656 7.53215 16.6399 7.27842 16.5809C7.8203 18.3231 9.35795 19.6039 11.1863 19.6455C9.7634 20.8163 7.95673 21.5218 6.00088 21.5218C5.6579 21.5218 5.32895 21.5057 5 21.4614C6.85257 22.7181 9.04813 23.4356 11.4158 23.4356C19.1117 23.4356 23.3192 16.7298 23.3192 10.9172C23.3192 10.7228 23.3128 10.535 23.3039 10.3486C24.1339 9.72896 24.8313 8.95512 25.4 8.06459Z" fill="#3A7FE7"/>
</svg>
