<svg width="30" height="30" viewBox="0 0 30 30" fill="none" xmlns="http://www.w3.org/2000/svg">
<circle cx="15" cy="15.0004" r="15" fill="white"/>
<path d="M24.533 9.4227C23.9796 8.38668 23.3791 8.19611 22.1564 8.12365C20.935 8.03642 17.8635 8.00018 15.2025 8.00018C12.5365 8.00018 9.46377 8.03642 8.2436 8.1223C7.02342 8.19611 6.42162 8.38534 5.86317 9.4227C5.29325 10.4574 5 12.2395 5 15.3771C5 15.3798 5 15.3811 5 15.3811C5 15.3838 5 15.3852 5 15.3852V15.3879C5 18.512 5.29325 20.3076 5.86317 21.3315C6.42162 22.3676 7.02215 22.5554 8.24232 22.6427C9.46377 22.7178 12.5365 22.7621 15.2025 22.7621C17.8635 22.7621 20.9349 22.7178 22.1577 22.644C23.3804 22.5568 23.9809 22.3689 24.5343 21.3329C25.1093 20.3089 25.4 18.5134 25.4 15.3892C25.4 15.3892 25.4 15.3852 25.4 15.3825C25.4 15.3825 25.4 15.3798 25.4 15.3785C25.4 12.2395 25.1093 10.4574 24.533 9.4227ZM12.65 19.4071V11.3552L19.025 15.3811L12.65 19.4071Z" fill="#3A7FE7"/>
</svg>
