<svg width="50" height="50" viewBox="0 0 50 50" fill="none" xmlns="http://www.w3.org/2000/svg"><circle cx="25" cy="25" r="24.5" stroke="#3A7FE7"/><path d="M24.786 24.451c1.986 0 3.704-.712 5.11-2.117 1.404-1.404 2.116-3.123 2.116-5.109 0-1.985-.712-3.703-2.117-5.109C28.49 10.713 26.771 10 24.786 10c-1.985 0-3.704.712-5.109 2.117-1.404 1.404-2.116 3.123-2.116 5.108 0 1.986.712 3.705 2.116 5.11 1.406 1.404 3.125 2.116 5.11 2.116zM20.921 13.36c1.078-1.078 2.342-1.602 3.865-1.602 1.523 0 2.788.524 3.866 1.602 1.078 1.078 1.602 2.342 1.602 3.865 0 1.524-.524 2.788-1.602 3.866-1.078 1.078-2.343 1.602-3.866 1.602-1.523 0-2.787-.524-3.865-1.602-1.078-1.078-1.602-2.342-1.602-3.866 0-1.523.524-2.787 1.602-3.865zM37.43 33.068a17.846 17.846 0 0 0-.244-1.896 14.936 14.936 0 0 0-.466-1.906 9.416 9.416 0 0 0-.784-1.777 6.7 6.7 0 0 0-1.18-1.54 5.208 5.208 0 0 0-1.698-1.067 5.866 5.866 0 0 0-2.167-.392c-.306 0-.602.126-1.174.498-.352.23-.764.496-1.223.79-.393.25-.926.484-1.583.697a6.286 6.286 0 0 1-1.936.313 6.29 6.29 0 0 1-1.937-.313c-.656-.213-1.189-.447-1.581-.698-.456-.29-.868-.556-1.225-.789-.571-.372-.867-.498-1.174-.498-.78 0-1.509.132-2.166.393-.66.26-1.23.62-1.697 1.066a6.704 6.704 0 0 0-1.182 1.54 9.431 9.431 0 0 0-.783 1.777 14.954 14.954 0 0 0-.466 1.906 17.79 17.79 0 0 0-.243 1.896c-.04.573-.06 1.17-.06 1.772 0 1.566.498 2.834 1.48 3.769.969.922 2.252 1.39 3.812 1.39h14.445c1.56 0 2.843-.468 3.812-1.39.982-.935 1.48-2.203 1.48-3.77 0-.604-.02-1.2-.06-1.771zm-2.632 4.267c-.64.61-1.491.906-2.6.906H17.753c-1.11 0-1.96-.296-2.6-.906-.629-.598-.934-1.414-.934-2.495 0-.562.019-1.117.056-1.65.036-.523.11-1.097.22-1.707.108-.603.245-1.169.41-1.68.157-.492.37-.978.637-1.446.254-.446.546-.83.868-1.138a3.456 3.456 0 0 1 1.13-.702 4.047 4.047 0 0 1 1.384-.267c.061.033.17.095.348.211.362.236.778.504 1.239.799.519.33 1.188.63 1.987.887.817.264 1.65.399 2.477.399s1.66-.135 2.476-.398c.8-.259 1.469-.558 1.989-.889.47-.301.876-.562 1.237-.798a4.74 4.74 0 0 1 .349-.21c.505.013.97.102 1.385.266.447.177.827.414 1.129.702.322.308.614.691.868 1.138.266.468.48.955.638 1.445.164.513.302 1.078.41 1.68.11.612.183 1.186.22 1.708.037.531.056 1.086.056 1.65 0 1.08-.306 1.897-.934 2.495z" fill="#3A7FE7"/></svg>