<svg width="50" height="50" viewBox="0 0 50 50" fill="none" xmlns="http://www.w3.org/2000/svg">
<circle cx="25" cy="25" r="24.5" stroke="#3A7FE7"/>
<path d="M24.7863 24.4511C26.7717 24.4511 28.4905 23.7391 29.8954 22.3342C31.2998 20.9295 32.0121 19.2109 32.0121 17.2253C32.0121 15.2405 31.3001 13.5216 29.8952 12.1165C28.4903 10.7121 26.7714 10 24.7863 10C22.8008 10 21.0821 10.7121 19.6775 12.1167C18.2728 13.5213 17.5605 15.2402 17.5605 17.2253C17.5605 19.2109 18.2728 20.9298 19.6775 22.3344C21.0826 23.7388 22.8015 24.4511 24.7863 24.4511ZM20.9208 13.3598C21.9986 12.2819 23.2629 11.758 24.7863 11.758C26.3095 11.758 27.5741 12.2819 28.6521 13.3598C29.7299 14.4378 30.2541 15.7024 30.2541 17.2253C30.2541 18.7488 29.7299 20.0131 28.6521 21.0911C27.5741 22.1692 26.3095 22.6931 24.7863 22.6931C23.2634 22.6931 21.999 22.1689 20.9208 21.0911C19.8427 20.0133 19.3186 18.7488 19.3186 17.2253C19.3186 15.7024 19.8427 14.4378 20.9208 13.3598Z" fill="#3A7FE7"/>
<path d="M37.4294 33.0676C37.3889 32.483 37.3069 31.8453 37.1863 31.172C37.0645 30.4936 36.9078 29.8522 36.7201 29.2661C36.526 28.6602 36.2625 28.0619 35.9364 27.4886C35.5983 26.8935 35.201 26.3753 34.7551 25.9489C34.2889 25.5028 33.7181 25.1441 33.058 24.8825C32.4002 24.6223 31.6712 24.4905 30.8914 24.4905C30.5851 24.4905 30.289 24.6161 29.717 24.9885C29.365 25.2181 28.9532 25.4836 28.4936 25.7772C28.1006 26.0276 27.5683 26.2622 26.9107 26.4746C26.2691 26.6822 25.6177 26.7875 24.9746 26.7875C24.3319 26.7875 23.6805 26.6822 23.0385 26.4746C22.3816 26.2625 21.849 26.0279 21.4567 25.7775C21.0014 25.4866 20.5894 25.2211 20.2321 24.9883C19.6606 24.6159 19.3645 24.4902 19.0582 24.4902C18.2782 24.4902 17.5494 24.6223 16.8919 24.8828C16.2322 25.1439 15.6612 25.5026 15.1945 25.9491C14.7486 26.3758 14.3513 26.8937 14.0134 27.4886C13.6877 28.0619 13.4241 28.66 13.23 29.2663C13.0425 29.8525 12.8857 30.4936 12.764 31.172C12.6431 31.8444 12.5614 32.4823 12.5209 33.0683C12.4811 33.6411 12.4609 34.2374 12.4609 34.8398C12.4609 36.4058 12.9588 37.6736 13.9404 38.6086C14.91 39.5312 16.1926 39.999 17.7529 39.999H32.1981C33.7579 39.999 35.0405 39.5312 36.0103 38.6086C36.9922 37.6743 37.49 36.406 37.49 34.8396C37.4898 34.2351 37.4694 33.6389 37.4294 33.0676ZM34.7982 37.3348C34.1575 37.9446 33.307 38.241 32.1978 38.241H17.7529C16.6435 38.241 15.793 37.9446 15.1526 37.3351C14.5243 36.737 14.219 35.9206 14.219 34.8398C14.219 34.2777 14.2375 33.7226 14.2746 33.1898C14.3108 32.667 14.3847 32.0928 14.4943 31.4826C14.6026 30.8799 14.7404 30.3144 14.9042 29.8023C15.0615 29.3114 15.2759 28.8252 15.5419 28.357C15.7957 27.9106 16.0878 27.5277 16.4101 27.2192C16.7115 26.9306 17.0914 26.6944 17.5391 26.5172C17.9532 26.3533 18.4185 26.2636 18.9236 26.2501C18.9852 26.2828 19.0948 26.3453 19.2724 26.4611C19.6339 26.6967 20.0504 26.9654 20.5109 27.2595C21.03 27.5904 21.6988 27.8894 22.4978 28.1473C23.3147 28.4114 24.1479 28.5456 24.9748 28.5456C25.8017 28.5456 26.6351 28.4114 27.4515 28.1475C28.2512 27.8891 28.9198 27.5904 29.4396 27.259C29.9109 26.9578 30.3157 26.6969 30.6772 26.4611C30.8548 26.3455 30.9644 26.2828 31.026 26.2501C31.5313 26.2636 31.9967 26.3533 32.4109 26.5172C32.8584 26.6944 33.2383 26.9308 33.5398 27.2192C33.862 27.5275 34.1541 27.9104 34.4079 28.3572C34.6741 28.8252 34.8888 29.3116 35.0458 29.8021C35.2099 30.3148 35.3479 30.8801 35.456 31.4823C35.5654 32.0937 35.6395 32.6682 35.6757 33.19V33.1905C35.713 33.7213 35.7318 34.2761 35.732 34.8398C35.7318 35.9208 35.4264 36.737 34.7982 37.3348Z" fill="#3A7FE7"/>
</svg>
