<svg width="1920" height="1841" viewBox="0 0 1920 1841" fill="none" xmlns="http://www.w3.org/2000/svg"><g opacity=".6"><circle opacity=".1" cx="689.834" cy="1268.37" r="888.5" transform="rotate(20.805 689.834 1268.37)" fill="#3A7FE7" stroke="#3A7FE7"/><circle opacity=".2" cx="689.833" cy="1268.37" r="915.5" transform="rotate(20.805 689.833 1268.37)" stroke="#3A7FE7"/><circle opacity=".8" cx="689.833" cy="1268.37" r="942.5" transform="rotate(20.805 689.833 1268.37)" stroke="#3A7FE7"/><path d="M1029.88 370.616l-15.74 13.274 18.7 7.104-2.96-20.378z" fill="#3A7FE7"/><circle cx="467.573" cy="352.721" r="6" transform="rotate(20.805 467.573 352.721)" fill="#3A7FE7"/><circle cx="1465" cy="731.711" r="6" transform="rotate(20.805 1465 731.711)" fill="#3A7FE7"/><path d="M965.255 339.033c-4.364-1.091-7.595-3.461-9.695-7.11-2.099-3.65-2.602-7.629-1.51-11.939 1.1-4.337 3.441-7.606 7.023-9.805 3.589-2.228 7.566-2.796 11.929-1.705 2.623.655 4.88 1.889 6.77 3.701 1.925 1.79 3.239 3.904 3.942 6.341l-5.663 1.665a7.771 7.771 0 0 0-2.289-3.831c-1.134-1.087-2.529-1.837-4.186-2.251-2.817-.705-5.322-.378-7.516.978-2.166 1.363-3.611 3.471-4.335 6.326-.716 2.826-.446 5.349.812 7.568 1.286 2.226 3.337 3.691 6.154 4.395 1.657.414 3.241.423 4.751.027 1.544-.418 2.825-1.184 3.842-2.298l4.195 4.128c-1.782 1.816-3.937 3.078-6.466 3.785-2.521.679-5.107.687-7.758.025zm41.635-11.638l3.92 1.212-6.44 20.675-5.141-1.59 3.661-11.744-13.245 8.778-3.915-1.212 6.44-20.676 5.138 1.591-3.658 11.743 13.24-8.777zm22.46 19.595c1.66 1.748 2.09 3.733 1.27 5.956-.64 1.734-1.88 2.924-3.72 3.569-1.85.646-4.05.497-6.62-.445-4.06-1.491-6.22-4.133-6.5-7.925l5.14-.975c-.04 2.079 1 3.506 3.11 4.281.96.353 1.76.433 2.41.24.67-.183 1.13-.6 1.37-1.25.46-1.247-.1-2.16-1.68-2.739l-2.84-1.045 1.64-4.471 2.17.794c1.55.569 2.55.231 3.01-1.016.22-.596.16-1.154-.16-1.673-.32-.519-.86-.916-1.61-1.191-1.74-.638-3.29-.24-4.67 1.192l-3.27-3.97c2.67-2.557 5.85-3.158 9.53-1.804 2.3.844 3.9 2.107 4.8 3.79.93 1.666 1.09 3.339.47 5.019-.73 1.979-2.01 3.199-3.85 3.663zm31.4 1.169l5.06 2.164-8.49 19.924-5.06-2.164 1-2.351c-2.34 1.29-4.89 1.348-7.64.174-2.62-1.119-4.44-3.09-5.46-5.914-.99-2.84-.85-5.734.4-8.683 1.26-2.948 3.25-5.035 5.97-6.26 2.75-1.24 5.44-1.301 8.05-.182 2.75 1.174 4.47 3.055 5.16 5.643l1.01-2.351zm-15.32 10.033c.58 1.473 1.65 2.544 3.22 3.215 1.57.671 3.09.707 4.55.107 1.5-.615 2.6-1.746 3.3-3.393.7-1.647.75-3.212.15-4.696-.57-1.499-1.64-2.584-3.21-3.255-1.57-.671-3.09-.693-4.57-.067-1.46.6-2.54 1.724-3.24 3.371-.7 1.647-.77 3.22-.2 4.718zm50.02 4.794l-9.04 19.675-5-2.311 6.8-14.796-5.35-2.472-3.02 6.572c-2.8 6.086-6.78 7.567-11.96 4.444l2.19-4.762c.92.741 1.78.934 2.6.582.83-.379 1.6-1.329 2.3-2.851l5.14-11.175 15.34 7.094zm15.22 16.16c2.17 1.051 3.64 2.51 4.38 4.377.76 1.84.66 3.763-.3 5.768s-2.4 3.297-4.32 3.878c-1.91.554-3.95.306-6.13-.746l-8.69-4.192 9.36-19.526 4.96 2.393-2.99 6.248 3.73 1.8zm-4.2 8.844c.69.334 1.35.411 1.98.231.66-.194 1.14-.617 1.46-1.268.31-.651.33-1.296.07-1.935-.24-.627-.7-1.107-1.39-1.441l-3.77-1.818-2.12 4.413 3.77 1.818z" opacity=".2" fill="#3A7FE7"/><path d="M422.425 338.47l-2.81.878-13.255-7.221 3.237 10.354-2.138.668-6.685-21.379 2.138-.669 3.056 9.774 6.657-12.81 2.81-.879-7.016 13.593 14.006 7.691zm20.241-7.113c-1.135 1.975-2.833 3.276-5.094 3.903-2.261.628-4.397.39-6.408-.713-1.995-1.129-3.31-2.834-3.943-5.116-.633-2.282-.382-4.41.753-6.385 1.149-2.002 2.854-3.316 5.116-3.943 2.261-.628 4.389-.377 6.385.752 2.011 1.103 3.333 2.795 3.966 5.077s.374 4.423-.775 6.425zm-10.446 1.37c1.497.847 3.098 1.033 4.805.56 1.706-.473 2.982-1.459 3.829-2.955.841-1.518 1.025-3.13.551-4.836-.473-1.706-1.458-2.982-2.955-3.829-1.502-.867-3.107-1.064-4.813-.591-1.706.473-2.98 1.469-3.821 2.986-.846 1.497-1.033 3.098-.56 4.805.474 1.706 1.462 2.993 2.964 3.86zm34.134-6.152l-2.735.673-9.61-5.579 1.842 7.489-2.051.504-3.821-15.537 2.051-.504 1.689 6.867 5.707-8.686 2.796-.688-6.183 9.43 10.315 6.031zm20.579-7.083c-1.25 1.904-3.022 3.102-5.317 3.593-2.294.492-4.412.127-6.354-1.093-1.925-1.246-3.135-3.026-3.631-5.342-.496-2.315-.119-4.425 1.131-6.329 1.266-1.93 3.047-3.14 5.342-3.632 2.294-.491 4.404-.114 6.329 1.131 1.941 1.221 3.16 2.989 3.656 5.304.496 2.316.111 4.438-1.156 6.368zm-10.508.746c1.443.934 3.031 1.216 4.762.845 1.732-.371 3.064-1.279 3.999-2.722.93-1.465 1.209-3.063.838-4.794-.371-1.732-1.278-3.065-2.722-3.999-1.448-.955-3.038-1.247-4.769-.876-1.732.371-3.062 1.289-3.992 2.753-.934 1.444-1.216 3.032-.845 4.763.371 1.731 1.28 3.075 2.729 4.03zm30.398-3.084c-2.371.434-4.488.008-6.35-1.278-1.865-1.307-3.011-3.125-3.438-5.455-.426-2.329.004-4.424 1.29-6.286 1.282-1.883 3.108-3.042 5.48-3.475 1.553-.285 3.017-.162 4.394.367 1.372.508 2.457 1.339 3.254 2.495l-1.521 1.286c-.593-.867-1.411-1.487-2.455-1.86-1.027-.398-2.129-.489-3.304-.274-1.741.319-3.099 1.196-4.072 2.632-.978 1.415-1.307 2.994-.988 4.735.319 1.742 1.187 3.112 2.606 4.11 1.415.978 2.994 1.307 4.735.988 1.175-.215 2.175-.68 2.998-1.394a6.179 6.179 0 0 0 1.757-2.664l1.916.69c-.42 1.378-1.192 2.55-2.317 3.515-1.125.965-2.453 1.587-3.985 1.868zM1435.5 658.626l1.51-1.283c.85 1.326 1.97 1.902 3.36 1.729 1.42-.17 3.34-1.276 5.74-3.318l9.5-8.051 9.39 11.081-17.08 14.487-1.45-1.709 15.47-13.121-6.49-7.664-7.94 6.726c-1.54 1.311-2.94 2.286-4.19 2.925-1.25.639-2.35.949-3.32.93-.94-.017-1.77-.251-2.49-.704-.69-.45-1.36-1.126-2.01-2.028zm40.96 23.264l1.32 1.654-12.54 9.946-1.31-1.654 2.46-1.949c-2.76.305-5.01-.653-6.78-2.875-1.42-1.788-2-3.821-1.73-6.099.27-2.261 1.33-4.121 3.17-5.58 1.83-1.459 3.89-2.066 6.15-1.82 2.28.262 4.13 1.287 5.55 3.075 1.76 2.222 2.18 4.639 1.26 7.251l2.45-1.949zm-16.5-.669c-.2 1.708.26 3.256 1.36 4.643s2.5 2.179 4.21 2.375c1.72.183 3.28-.275 4.67-1.376 1.38-1.101 2.18-2.506 2.37-4.214.22-1.722-.23-3.276-1.33-4.663-1.1-1.387-2.51-2.172-4.24-2.355-1.71-.197-3.25.255-4.64 1.356-1.39 1.101-2.19 2.512-2.4 4.234zm31.6 21.379l-1.64 1.225-3.39-4.538-11.18 8.348-1.27-1.693 11.18-8.347-3.39-4.539 1.65-1.225 8.04 10.769zm9.39 13.069c1.36 1.939 1.77 3.987 1.22 6.142-.52 2.16-1.71 3.896-3.58 5.206-.19.134-.48.307-.85.517l-8.06-11.504c-1.21 1.105-1.87 2.405-2 3.899-.09 1.5.35 2.948 1.33 4.346.7.996 1.5 1.711 2.4 2.146.93.439 1.86.61 2.78.512l.18 2.144c-1.33.073-2.62-.199-3.86-.816-1.24-.616-2.3-1.561-3.2-2.837-1.44-2.061-1.97-4.191-1.58-6.39.38-2.199 1.57-3.996 3.56-5.392 1.96-1.372 4.04-1.879 6.24-1.522 2.21.357 4.01 1.54 5.42 3.549zm-1.67 1.176c-.96-1.363-2.17-2.219-3.64-2.57-1.44-.345-2.87-.152-4.29.579l6.85 9.775c1.26-1.142 1.96-2.428 2.11-3.858.14-1.429-.2-2.738-1.03-3.926zm6.78 36.232l-1.54-2.353 2.05-10.921-6.45 4.234-1.15-1.765 13.37-8.785 1.16 1.765-5.91 3.883 10.09 2.483 1.58 2.407-10.95-2.684-2.25 11.736zm9.22 16.147c-1.26-2.052-1.64-4.179-1.11-6.381.54-2.213 1.82-3.94 3.83-5.183 2.02-1.242 4.13-1.602 6.33-1.08 2.22.512 3.96 1.794 5.22 3.846.83 1.344 1.25 2.753 1.26 4.227.02 1.464-.36 2.776-1.15 3.938l-1.75-.95c.6-.867.88-1.855.84-2.963 0-1.102-.31-2.161-.94-3.178-.93-1.507-2.24-2.454-3.93-2.84-1.67-.397-3.26-.131-4.77.798-1.51.929-2.47 2.236-2.88 3.92-.4 1.674-.14 3.264.79 4.771.63 1.017 1.43 1.78 2.39 2.288.98.497 2.02.72 3.12.671l.05 2.035a7.37 7.37 0 0 1-4.11-.884c-1.31-.698-2.37-1.709-3.19-3.035z" opacity=".2" fill="#19181C"/><circle cx="144.366" cy="499.491" r="6" transform="rotate(20.805 144.366 499.491)" fill="#3A7FE7"/><path d="M31.113 564.029l-2.086 2.078-15.092-.276 7.657 7.684-1.587 1.581-15.81-15.868 1.586-1.581 7.228 7.254-.02-14.436 2.086-2.078.063 15.296 15.975.346zm14.065-16.165c-.082 2.277-.977 4.22-2.684 5.83-1.708 1.61-3.708 2.396-6 2.359-2.292-.068-4.25-.963-5.875-2.686-1.625-1.723-2.396-3.722-2.314-5.999.083-2.306.978-4.264 2.686-5.874 1.707-1.61 3.706-2.381 5.998-2.314 2.293.037 4.252.917 5.876 2.64 1.625 1.723 2.396 3.738 2.313 6.044zm-8.6 6.086c1.719.051 3.222-.532 4.51-1.746 1.289-1.215 1.959-2.682 2.009-4.401.036-1.734-.553-3.246-1.768-4.534-1.215-1.288-2.682-1.958-4.4-2.008-1.734-.066-3.245.508-4.534 1.723-1.288 1.215-1.95 2.689-1.986 4.424-.05 1.719.532 3.222 1.746 4.511 1.215 1.288 2.69 1.965 4.423 2.031zm16.244-31.89l1.575-1.407 10.658 11.933-1.576 1.407-4.647-5.203-6.873 6.139 4.646 5.203-1.575 1.407-10.658-11.934 1.576-1.407 4.646 5.204 6.874-6.139-4.647-5.203zm25.32-.225c-1.84 1.559-3.886 2.245-6.141 2.059-2.27-.202-4.17-1.207-5.7-3.013-1.531-1.807-2.204-3.837-2.018-6.093.173-2.271 1.178-4.186 3.017-5.745 1.204-1.02 2.535-1.645 3.992-1.873 1.443-.244 2.798-.064 4.065.54l-.677 1.874c-.946-.456-1.965-.586-3.056-.388-1.088.167-2.088.637-3 1.41-1.35 1.145-2.09 2.582-2.217 4.312-.142 1.714.36 3.246 1.505 4.597 1.145 1.351 2.581 2.105 4.309 2.263 1.714.141 3.246-.36 4.597-1.505.911-.773 1.545-1.674 1.903-2.704a6.184 6.184 0 0 0 .195-3.185l2.004-.357c.323 1.404.238 2.805-.256 4.202-.493 1.397-1.334 2.599-2.522 3.606zm21.7-18.307l-2.193 1.767-11.068-.985 4.84 6.005-1.645 1.325-10.04-12.458 1.645-1.325 4.437 5.506 1.493-10.285 2.242-1.807-1.61 11.16 11.899 1.097zm5.811-24.721l1.422-1.089 9.728 12.703-1.677 1.284-7.49-9.781-.081 15.579-1.422 1.089-9.728-12.703 1.677-1.284 7.49 9.782.081-15.58zm9.923-10.579l-1.089-1.502 6.734-4.886 1.09 1.502-6.735 4.886zm8.86-3.265l1.45-1.052 9.396 12.951-1.71 1.24-7.234-9.972-.484 15.572-1.451 1.052-9.395-12.951 1.709-1.24 7.235 9.972.484-15.572zm33.177-13.39c1.81-.439 3.23.114 4.26 1.658.722 1.083.956 2.222.702 3.417-.248 1.166-1.047 2.198-2.396 3.098l-6.469 4.315-8.878-13.311 5.937-3.96c1.295-.864 2.523-1.195 3.683-.994 1.148.183 2.071.798 2.769 1.845.888 1.331 1.019 2.642.392 3.932zm-5.708-3.079l-4.179 2.788 2.699 4.046 4.179-2.787c1.544-1.03 1.855-2.237.931-3.622-.414-.621-.938-.964-1.571-1.029-.627-.094-1.313.107-2.059.604zm7.138 9.548c.781-.521 1.251-1.103 1.411-1.748.177-.657.041-1.323-.409-1.997-.414-.621-.953-.967-1.615-1.038-.657-.101-1.376.109-2.157.63l-4.712 3.143 2.77 4.153 4.712-3.143zm22.393-14.363c-.519 2.218-1.771 3.952-3.756 5.204-1.985 1.251-4.099 1.637-6.342 1.159-2.236-.507-3.986-1.762-5.248-3.766-1.263-2.003-1.635-4.114-1.116-6.332.525-2.247 1.781-3.997 3.766-5.248 1.985-1.251 4.096-1.623 6.332-1.115 2.243.477 3.996 1.718 5.258 3.721 1.263 2.004 1.631 4.129 1.106 6.377zm-9.611 4.316c1.677.381 3.265.099 4.763-.845 1.498-.944 2.437-2.255 2.818-3.932.369-1.695.081-3.291-.863-4.79-.944-1.498-2.254-2.437-3.931-2.817-1.689-.399-3.282-.126-4.78.818-1.498.944-2.432 2.264-2.801 3.959-.38 1.677-.098 3.264.846 4.762.944 1.498 2.26 2.447 3.948 2.845zm23.62-29.081l8.161 13.762-1.816 1.077-7.117-12-6.221 3.689 3.64 6.137c1.361 2.294 1.856 4.133 1.487 5.518-.351 1.374-1.321 2.457-2.909 3.25l-1.012-1.706c1.111-.51 1.735-1.215 1.871-2.114.155-.911-.263-2.201-1.253-3.87l-4.685-7.9 9.854-5.843zm27.377.576c-.638 2.187-1.982 3.851-4.032 4.993-2.05 1.142-4.182 1.414-6.395.816-2.206-.628-3.885-1.976-5.037-4.044-1.152-2.069-1.41-4.197-.772-6.384.646-2.215 1.994-3.894 4.044-5.036 2.05-1.142 4.178-1.4 6.383-.772 2.214.598 3.897 1.932 5.049 4 1.153 2.069 1.406 4.211.76 6.427zm-9.83 3.791c1.654.47 3.255.275 4.802-.587 1.546-.862 2.555-2.12 3.026-3.774.46-1.672.259-3.282-.603-4.829-.861-1.547-2.119-2.555-3.773-3.026-1.665-.489-3.27-.303-4.817.559-1.547.862-2.551 2.129-3.011 3.801-.47 1.655-.275 3.255.587 4.802.862 1.547 2.125 2.565 3.789 3.054zm27.72-10.618c-2.137 1.116-4.285 1.335-6.444.657-2.169-.697-3.801-2.094-4.897-4.193-1.096-2.099-1.306-4.228-.628-6.387.668-2.178 2.07-3.825 4.207-4.941 1.399-.73 2.835-1.047 4.306-.949 1.461.08 2.743.553 3.846 1.421l-1.072 1.68c-.823-.654-1.788-1.004-2.895-1.052-1.099-.076-2.178.163-3.237.716-1.57.819-2.607 2.059-3.112 3.719-.515 1.64-.363 3.245.457 4.815.819 1.57 2.054 2.621 3.705 3.155 1.641.515 3.246.363 4.816-.457 1.059-.553 1.876-1.292 2.451-2.218a6.197 6.197 0 0 0 .891-3.065l2.034.093c.006 1.441-.385 2.789-1.174 4.043-.789 1.254-1.874 2.242-3.254 2.963z" opacity=".2" fill="#19181C"/></g></svg>