<svg width="50" height="50" viewBox="0 0 50 50" fill="none" xmlns="http://www.w3.org/2000/svg">
<circle cx="25" cy="25" r="24.5" stroke="#3A7FE7"/>
<g clip-path="url(#clip0_1382:4129)">
<path d="M39.5546 20.8427C39.1585 20.3457 38.5642 20.0606 37.924 20.0606H32.1464L29.0134 12.8868C28.8192 12.442 28.3011 12.2387 27.8563 12.4331C27.4114 12.6273 27.2083 13.1455 27.4026 13.5903L30.2283 20.0607H19.7717L22.5974 13.5903C22.7917 13.1455 22.5886 12.6274 22.1437 12.4331C21.6989 12.2387 21.1808 12.4419 20.9866 12.8868L17.8536 20.0607H12.076C11.4358 20.0607 10.8415 20.3457 10.4454 20.8428C10.0565 21.3307 9.91299 21.958 10.0517 22.564L13.1371 36.0406C13.3525 36.9816 14.1849 37.6388 15.1614 37.6388H34.8386C35.8151 37.6388 36.6475 36.9816 36.863 36.0406L39.9483 22.564C40.087 21.958 39.9435 21.3307 39.5546 20.8427ZM34.8386 35.8809H15.1614C15.0122 35.8809 14.8814 35.7831 14.8506 35.6482L11.7652 22.1717C11.741 22.066 11.7816 21.9864 11.82 21.9383C11.8557 21.8935 11.9364 21.8185 12.076 21.8185H17.086L16.8558 22.3456C16.6615 22.7905 16.8646 23.3086 17.3095 23.5029C17.4239 23.5529 17.5432 23.5766 17.6607 23.5766C17.9995 23.5766 18.3224 23.3795 18.4666 23.0492L19.0041 21.8186H30.996L31.5335 23.0492C31.6778 23.3796 32.0006 23.5766 32.3394 23.5766C32.4568 23.5766 32.5762 23.5529 32.6907 23.5029C33.1355 23.3086 33.3387 22.7905 33.1444 22.3456L32.9141 21.8185H37.9241C38.0638 21.8185 38.1445 21.8935 38.1801 21.9383C38.2185 21.9865 38.2591 22.066 38.2349 22.1717L35.1496 35.6482C35.1186 35.7831 34.9878 35.8809 34.8386 35.8809Z" fill="#3A7FE7"/>
<path d="M19.7266 25.6289C19.2412 25.6289 18.8477 26.0224 18.8477 26.5078V32.9531C18.8477 33.4385 19.2412 33.832 19.7266 33.832C20.212 33.832 20.6055 33.4385 20.6055 32.9531V26.5078C20.6055 26.0224 20.212 25.6289 19.7266 25.6289Z" fill="#3A7FE7"/>
<path d="M25 25.6289C24.5146 25.6289 24.1211 26.0224 24.1211 26.5078V32.9531C24.1211 33.4385 24.5146 33.832 25 33.832C25.4854 33.832 25.8789 33.4385 25.8789 32.9531V26.5078C25.8789 26.0224 25.4854 25.6289 25 25.6289Z" fill="#3A7FE7"/>
<path d="M30.2734 25.6289C29.788 25.6289 29.3945 26.0224 29.3945 26.5078V32.9531C29.3945 33.4385 29.788 33.832 30.2734 33.832C30.7588 33.832 31.1523 33.4385 31.1523 32.9531V26.5078C31.1523 26.0224 30.7588 25.6289 30.2734 25.6289Z" fill="#3A7FE7"/>
</g>
<defs>
<clipPath id="clip0_1382:4129">
<rect width="30" height="30" fill="white" transform="translate(10 10)"/>
</clipPath>
</defs>
</svg>
