<svg width="50" height="50" viewBox="0 0 50 50" fill="none" xmlns="http://www.w3.org/2000/svg"><circle cx="25" cy="25" r="24.5" stroke="#3A7FE7"/><g clip-path="url(#a)" fill="#3A7FE7"><path d="M39.555 20.843a2.073 2.073 0 0 0-1.631-.782h-5.778l-3.133-7.174a.879.879 0 1 0-1.61.703l2.825 6.47H19.772l2.825-6.47a.879.879 0 1 0-1.61-.703l-3.133 7.174h-5.778a2.07 2.07 0 0 0-1.63.782 2.023 2.023 0 0 0-.394 1.721l3.085 13.477a2.06 2.06 0 0 0 2.024 1.598H34.84a2.06 2.06 0 0 0 2.024-1.598l3.085-13.477a2.024 2.024 0 0 0-.393-1.721zM34.839 35.88H15.16a.314.314 0 0 1-.31-.233l-3.086-13.476a.268.268 0 0 1 .055-.234.32.32 0 0 1 .256-.12h5.01l-.23.528a.879.879 0 1 0 1.61.703l.538-1.23h11.992l.538 1.23a.88.88 0 1 0 1.61-.703l-.23-.527h5.01c.14 0 .22.075.256.12a.269.269 0 0 1 .055.233L35.15 35.648a.315.315 0 0 1-.311.233z"/><path d="M19.727 25.629a.879.879 0 0 0-.88.879v6.445a.879.879 0 0 0 1.758 0v-6.445a.879.879 0 0 0-.878-.88zm5.273 0a.879.879 0 0 0-.879.879v6.445a.879.879 0 0 0 1.758 0v-6.445a.879.879 0 0 0-.879-.88zm5.273 0a.879.879 0 0 0-.878.879v6.445a.879.879 0 0 0 1.757 0v-6.445a.879.879 0 0 0-.879-.88z"/></g><defs><clipPath id="a"><path fill="#fff" transform="translate(10 10)" d="M0 0h30v30H0z"/></clipPath></defs></svg>