<svg width="50" height="50" viewBox="0 0 50 50" fill="none" xmlns="http://www.w3.org/2000/svg">
<circle cx="25" cy="25" r="24.5" stroke="#3A7FE7"/>
<path d="M37.8738 14.2185C36.4563 12.8344 34.4978 12.1426 31.9976 12.1426C31.3057 12.1426 30.5995 12.2625 29.8798 12.5024C29.1598 12.7424 28.49 13.0662 27.8711 13.4735C27.2515 13.8807 26.7189 14.2632 26.2722 14.6202C25.826 14.9774 25.4017 15.3569 25 15.7586C24.5981 15.3569 24.174 14.9774 23.7277 14.6202C23.2811 14.2632 22.7484 13.881 22.1288 13.4735C21.5094 13.066 20.8397 12.7424 20.1199 12.5024C19.4001 12.2626 18.694 12.1426 18.0021 12.1426C15.502 12.1426 13.5435 12.8345 12.1261 14.2185C10.7087 15.6024 10 17.522 10 19.9773C10 20.7251 10.1313 21.4955 10.3935 22.2875C10.6557 23.0799 10.9544 23.7552 11.2892 24.3131C11.6239 24.871 12.0034 25.415 12.4276 25.9452C12.8517 26.4754 13.1616 26.8407 13.3567 27.0416C13.552 27.2425 13.7055 27.3877 13.8171 27.4771L24.2633 37.5553C24.4643 37.7562 24.7098 37.8569 24.9999 37.8569C25.2901 37.8569 25.5358 37.7562 25.7366 37.5553L36.1663 27.5102C38.7221 24.9548 39.9999 22.4437 39.9999 19.9771C40 17.5215 39.2913 15.6022 37.8738 14.2185ZM34.7097 25.9368L25 35.295L15.2737 25.9199C13.1865 23.8334 12.1432 21.8521 12.1432 19.9771C12.1432 19.0732 12.2631 18.2751 12.503 17.5833C12.743 16.8914 13.0499 16.3415 13.4237 15.9342C13.7977 15.5267 14.2524 15.195 14.7881 14.9381C15.3241 14.6814 15.8486 14.5084 16.3619 14.4191C16.8752 14.33 17.422 14.2854 18.0024 14.2854C18.5827 14.2854 19.2078 14.4275 19.8774 14.7122C20.547 14.9968 21.1636 15.3539 21.7271 15.7836C22.2908 16.2135 22.7735 16.6152 23.1755 16.989C23.5772 17.3631 23.9119 17.706 24.1798 18.0186C24.3806 18.2642 24.6542 18.387 25.0001 18.387C25.346 18.387 25.6194 18.2642 25.8204 18.0186C26.0882 17.706 26.4232 17.3629 26.8249 16.989C27.2267 16.6152 27.7094 16.2137 28.2729 15.7836C28.8365 15.3539 29.4532 14.9968 30.123 14.7122C30.7924 14.4276 31.4177 14.2854 31.998 14.2854C32.5784 14.2854 33.125 14.33 33.6385 14.4191C34.152 14.5083 34.6765 14.6814 35.2123 14.9381C35.7481 15.1949 36.2028 15.5269 36.5766 15.9342C36.9505 16.3415 37.2575 16.8914 37.4975 17.5833C37.7371 18.2751 37.8571 19.0732 37.8571 19.9771C37.8569 21.8521 36.8081 23.8389 34.7097 25.9368Z" fill="#3A7FE7"/>
</svg>
