<svg width="50" height="50" viewBox="0 0 50 50" fill="none" xmlns="http://www.w3.org/2000/svg"><circle cx="25" cy="25" r="24.5" stroke="#3A7FE7"/><path d="M37.874 14.219c-1.418-1.385-3.376-2.076-5.876-2.076a6.67 6.67 0 0 0-2.118.36c-.72.24-1.39.563-2.009.97-.62.408-1.152.79-1.599 1.147-.446.357-.87.737-1.272 1.139a15.49 15.49 0 0 0-1.272-1.139c-.447-.357-.98-.739-1.6-1.146a8.569 8.569 0 0 0-2.008-.972 6.677 6.677 0 0 0-2.118-.36c-2.5 0-4.458.693-5.876 2.077C10.71 15.602 10 17.521 10 19.977c0 .748.131 1.518.393 2.31.263.793.561 1.468.896 2.026.335.558.714 1.102 1.139 1.632.424.53.734.896.929 1.097.195.2.349.346.46.435l10.446 10.078c.201.201.447.302.737.302s.536-.1.737-.302l10.43-10.045C38.721 24.955 40 22.444 40 19.977c0-2.456-.709-4.375-2.126-5.758zM34.71 25.937L25 35.295l-9.726-9.375c-2.087-2.087-3.13-4.068-3.13-5.943 0-.904.12-1.702.359-2.394.24-.692.547-1.241.92-1.649.375-.407.83-.739 1.365-.996a6.05 6.05 0 0 1 1.574-.519 9.591 9.591 0 0 1 1.64-.134c.58 0 1.206.143 1.875.427.67.285 1.287.642 1.85 1.072.564.43 1.046.831 1.448 1.205.402.374.737.717 1.005 1.03.2.245.474.368.82.368s.62-.123.82-.368c.268-.313.603-.656 1.005-1.03.402-.374.884-.775 1.448-1.205a8.555 8.555 0 0 1 1.85-1.072c.67-.284 1.295-.427 1.875-.427.58 0 1.127.045 1.64.134a6.04 6.04 0 0 1 1.574.52c.536.256.99.588 1.365.995.373.408.68.957.92 1.65.24.691.36 1.49.36 2.393 0 1.875-1.049 3.862-3.147 5.96z" fill="#3A7FE7"/></svg>