<svg width="30" height="30" viewBox="0 0 30 30" fill="none" xmlns="http://www.w3.org/2000/svg">
<circle cx="15" cy="15.0004" r="15" fill="white"/>
<g clip-path="url(#clip0_2:309)">
<path d="M23.9833 11.7483C23.9434 10.8902 23.7974 10.3002 23.5881 9.78905C23.3723 9.24643 23.0402 8.76062 22.6051 8.35677C22.18 7.94663 21.6652 7.62793 21.1007 7.42607C20.5594 7.22728 19.9417 7.08851 19.0384 7.05068C18.1284 7.00964 17.8395 7.00015 15.5314 7.00015C13.2234 7.00015 12.9345 7.00964 12.0278 7.04748C11.1246 7.08531 10.5036 7.2242 9.96559 7.42286C9.39428 7.62793 8.8829 7.94342 8.4578 8.35677C8.02607 8.76062 7.69073 9.24963 7.47811 9.78597C7.26887 10.3002 7.1228 10.887 7.08297 11.7451C7.03977 12.6096 7.02979 12.8841 7.02979 15.0767C7.02979 17.2694 7.03977 17.5438 7.0796 18.4052C7.11943 19.2633 7.26562 19.8532 7.47487 20.3644C7.69073 20.907 8.02607 21.3928 8.4578 21.7967C8.8829 22.2068 9.39765 22.5255 9.96222 22.7274C10.5036 22.9262 11.1212 23.0649 12.0246 23.1028C12.9311 23.1407 13.2201 23.1501 15.5282 23.1501C17.8363 23.1501 18.1252 23.1407 19.0318 23.1028C19.9351 23.0649 20.5561 22.9262 21.094 22.7274C22.2365 22.3078 23.1398 21.4497 23.5815 20.3644C23.7906 19.8501 23.9368 19.2633 23.9767 18.4052C24.0165 17.5438 24.0265 17.2694 24.0265 15.0767C24.0265 12.8841 24.0231 12.6096 23.9833 11.7483ZM22.4524 18.3421C22.4158 19.1308 22.2763 19.5567 22.1601 19.8406C21.8745 20.5442 21.2867 21.1026 20.5461 21.374C20.2472 21.4844 19.7956 21.6169 18.9686 21.6515C18.072 21.6895 17.803 21.6988 15.5348 21.6988C13.2666 21.6988 12.9943 21.6895 12.1009 21.6515C11.2706 21.6169 10.8223 21.4844 10.5234 21.374C10.1549 21.2446 9.81939 21.0395 9.5471 20.7713C9.26481 20.5095 9.04895 20.194 8.91274 19.8439C8.79651 19.5599 8.65705 19.1308 8.6206 18.3453C8.58065 17.4934 8.57079 17.2378 8.57079 15.083C8.57079 12.9282 8.58065 12.6695 8.6206 11.8209C8.65705 11.0322 8.79651 10.6062 8.91274 10.3223C9.04895 9.97206 9.26481 9.65348 9.55047 9.39468C9.826 9.12651 10.1581 8.92145 10.5268 8.79217C10.8257 8.68175 11.2774 8.54926 12.1042 8.51451C13.0009 8.47668 13.2699 8.46719 15.538 8.46719C17.8097 8.46719 18.0786 8.47668 18.972 8.51451C19.8022 8.54926 20.2506 8.68175 20.5494 8.79217C20.918 8.92145 21.2535 9.12651 21.5258 9.39468C21.808 9.65656 22.0239 9.97206 22.1601 10.3223C22.2763 10.6062 22.4158 11.0352 22.4524 11.8209C22.4922 12.6727 22.5022 12.9282 22.5022 15.083C22.5022 17.2378 22.4922 17.4902 22.4524 18.3421Z" fill="#3A7FE7"/>
<path d="M15.5316 10.928C13.1206 10.928 11.1645 12.7862 11.1645 15.0768C11.1645 17.3673 13.1206 19.2255 15.5316 19.2255C17.9426 19.2255 19.8986 17.3673 19.8986 15.0768C19.8986 12.7862 17.9426 10.928 15.5316 10.928ZM15.5316 17.7679C13.9675 17.7679 12.6987 16.5628 12.6987 15.0768C12.6987 13.5907 13.9675 12.3856 15.5316 12.3856C17.0958 12.3856 18.3644 13.5907 18.3644 15.0768C18.3644 16.5628 17.0958 17.7679 15.5316 17.7679V17.7679Z" fill="#3A7FE7"/>
<path d="M21.0909 10.7643C21.0909 11.2991 20.6344 11.7328 20.0712 11.7328C19.5082 11.7328 19.0517 11.2991 19.0517 10.7643C19.0517 10.2293 19.5082 9.79575 20.0712 9.79575C20.6344 9.79575 21.0909 10.2293 21.0909 10.7643V10.7643Z" fill="#3A7FE7"/>
</g>
<defs>
<clipPath id="clip0_2:309">
<rect width="17" height="16.15" fill="white" transform="translate(7 7.00015)"/>
</clipPath>
</defs>
</svg>
