<svg width="30" height="30" viewBox="0 0 30 30" fill="none" xmlns="http://www.w3.org/2000/svg"><circle cx="15" cy="15" r="15" fill="#fff"/><g clip-path="url(#a)" fill="#3A7FE7"><path d="M23.983 11.748c-.04-.858-.186-1.448-.395-1.959a3.927 3.927 0 0 0-.983-1.432 4.212 4.212 0 0 0-1.504-.93c-.542-.2-1.16-.338-2.063-.376-.91-.041-1.198-.05-3.507-.05-2.308 0-2.597.009-3.503.046-.903.038-1.524.177-2.062.376a4.175 4.175 0 0 0-1.508.934 3.963 3.963 0 0 0-.98 1.429c-.21.514-.355 1.101-.395 1.96-.043.864-.053 1.138-.053 3.33 0 2.193.01 2.468.05 3.33.04.857.186 1.447.395 1.958a3.97 3.97 0 0 0 .983 1.433c.425.41.94.729 1.504.93.542.2 1.16.338 2.063.376.906.038 1.195.047 3.503.047s2.597-.01 3.504-.047c.903-.038 1.524-.177 2.062-.376 1.142-.42 2.046-1.277 2.487-2.363.21-.514.356-1.1.396-1.959.04-.861.05-1.136.05-3.328 0-2.193-.004-2.467-.044-3.329zm-1.53 6.594c-.037.789-.177 1.215-.293 1.499a2.753 2.753 0 0 1-1.614 1.533c-.299.11-.75.243-1.577.277-.897.038-1.166.048-3.434.048-2.268 0-2.54-.01-3.434-.048-.83-.034-1.279-.167-1.578-.277a2.633 2.633 0 0 1-.976-.603 2.501 2.501 0 0 1-.634-.927c-.116-.284-.256-.713-.292-1.499-.04-.852-.05-1.107-.05-3.262 0-2.155.01-2.414.05-3.262.036-.789.176-1.215.292-1.499.136-.35.352-.669.637-.927a2.66 2.66 0 0 1 .977-.603c.299-.11.75-.243 1.577-.277.897-.038 1.166-.048 3.434-.048 2.272 0 2.54.01 3.434.048.83.034 1.279.167 1.577.277.369.13.704.335.977.603.282.262.498.577.634.927.116.284.256.713.292 1.499.04.852.05 1.107.05 3.262 0 2.155-.01 2.407-.05 3.26z"/><path d="M15.532 10.928c-2.411 0-4.367 1.858-4.367 4.149 0 2.29 1.956 4.149 4.367 4.149 2.41 0 4.367-1.859 4.367-4.15 0-2.29-1.956-4.148-4.367-4.148zm0 6.84c-1.565 0-2.833-1.205-2.833-2.691 0-1.486 1.268-2.691 2.833-2.691 1.564 0 2.832 1.205 2.832 2.69 0 1.487-1.268 2.692-2.832 2.692zm5.558-7.004c0 .535-.456.969-1.019.969s-1.02-.434-1.02-.969c0-.535.457-.968 1.02-.968s1.02.433 1.02.968z"/></g><defs><clipPath id="a"><path fill="#fff" transform="translate(7 7)" d="M0 0h17v16.15H0z"/></clipPath></defs></svg>