<svg xmlns:osb="http://www.openswatchbook.org/uri/2009/osb" xmlns="http://www.w3.org/2000/svg" xmlns:xlink="http://www.w3.org/1999/xlink" width="6815.64" height="3075.922" viewBox="0 0 1803.3047 813.83765"><defs><linearGradient gradientTransform="translate(-121.523 751.58)" xlink:href="#a" id="c" x1="-12063.911" y1="-2617.323" x2="-12284.979" y2="-1925.75" gradientUnits="userSpaceOnUse"/><linearGradient id="a"><stop offset="0" stop-color="#052aff"/><stop offset=".635" stop-color="#3ad9e7"/><stop offset="1" stop-color="#0530ff"/></linearGradient><linearGradient gradientTransform="translate(-121.523 751.58)" xlink:href="#b" id="j" x1="-12063.911" y1="-2617.323" x2="-12284.979" y2="-1925.75" gradientUnits="userSpaceOnUse"/><linearGradient id="b"><stop offset="0" stop-color="#052aff"/><stop offset=".633" stop-color="#3ad9e7"/><stop offset="1" stop-color="#0530ff"/></linearGradient><linearGradient id="k" gradientTransform="translate(-426171.2 -55297.278) scale(10.53183)" osb:paint="solid"><stop offset="0"/></linearGradient><linearGradient xlink:href="#b" id="d" gradientUnits="userSpaceOnUse" gradientTransform="translate(-121.523 751.58)" x1="-12063.911" y1="-2617.323" x2="-12284.979" y2="-1925.75"/><linearGradient xlink:href="#b" id="e" gradientUnits="userSpaceOnUse" gradientTransform="translate(-121.523 751.58)" x1="-12063.911" y1="-2617.323" x2="-12284.979" y2="-1925.75"/><linearGradient xlink:href="#b" id="f" gradientUnits="userSpaceOnUse" gradientTransform="translate(-121.523 751.58)" x1="-12063.911" y1="-2617.323" x2="-12284.979" y2="-1925.75"/><linearGradient xlink:href="#b" id="g" gradientUnits="userSpaceOnUse" gradientTransform="translate(-121.523 751.58)" x1="-12063.911" y1="-2617.323" x2="-12284.979" y2="-1925.75"/><linearGradient xlink:href="#b" id="h" gradientUnits="userSpaceOnUse" gradientTransform="translate(-121.523 751.58)" x1="-12063.911" y1="-2617.323" x2="-12284.979" y2="-1925.75"/><linearGradient xlink:href="#b" id="i" gradientUnits="userSpaceOnUse" gradientTransform="translate(-121.523 751.58)" x1="-12063.911" y1="-2617.323" x2="-12284.979" y2="-1925.75"/></defs><g fill="none" stroke-linecap="round" stroke-dashoffset="2.268" stroke-opacity=".973"><path transform="scale(-1.5 1.5) rotate(4.661 -28269.876 141659.323)" d="M-12447.615-1346.607a150.008 150.008 0 0 1-188.142-54.668 150.008 150.008 0 0 1 26.405-194.135" stroke="url(#c)" stroke-width="23.234" paint-order="fill markers stroke"/><path transform="scale(-1.5 1.5) rotate(4.661 -28269.876 141659.323)" d="M-12497.547-1380.004a103.777 103.777 0 0 1-113.041-77.549" stroke="url(#d)" stroke-width="18.495" paint-order="fill markers stroke"/><path transform="scale(-1.5 1.5) rotate(4.661 -28269.876 141659.323)" d="M-12665.069-1571.075a178.33 178.33 0 0 1 87.569-77.014" stroke="url(#e)" stroke-width="27.621" paint-order="fill markers stroke"/><path transform="scale(-1.5 1.5) rotate(4.661 -28269.876 141659.323)" d="M-12330.896-1368.998a212.423 212.423 0 0 1-221.535 94.523" stroke="url(#f)" stroke-width="32.902" paint-order="fill markers stroke"/><path transform="scale(-1.5 1.5) rotate(4.661 -28269.876 141659.323)" d="M-12266.547-1419.834a251.76 251.76 0 0 1-291.462 184.354 251.76 251.76 0 0 1-202.006-279.518 251.76 251.76 0 0 1 266.507-218.886" stroke="url(#g)" stroke-width="38.995" paint-order="fill markers stroke"/><path transform="scale(-1.5 1.5) rotate(4.661 -28269.876 141659.323)" d="M-12533.063-1359.302a125.864 125.864 0 0 1-90.145-68.751 125.864 125.864 0 0 1 1.714-113.358" stroke="url(#h)" stroke-width="19.531" paint-order="fill markers stroke"/><path transform="scale(-1.5 1.5) rotate(4.661 -28269.876 141659.323)" d="M-12651.694-1324.125a212.423 212.423 0 0 1-62.074-219.71 212.423 212.423 0 0 1 172.924-149.072" stroke="url(#i)" stroke-width="32.902" paint-order="fill markers stroke"/><path transform="scale(-1.5 1.5) rotate(4.661 -28269.876 141659.323)" d="M-12388.303-1352.668a178.33 178.33 0 0 1-179.596 38.301 178.33 178.33 0 0 1-118.188-140.546" stroke="url(#j)" stroke-width="27.621" paint-order="fill markers stroke"/></g><g style="line-height:1.25;-inkscape-font-specification:'URW Gothic L'"><path d="M4848.14-582.628q6.967 0 11.983 5.016 5.294 4.737 5.294 11.982v161.337q0 7.245-4.737 12.26-4.737 4.737-12.54 4.737-7.801 0-12.817-4.737-4.737-4.737-4.737-12.26v-112.295l-45.977 70.219q-2.786 3.344-6.409 5.573-3.622 1.95-7.523 1.672-3.623.279-7.245-1.672-3.622-2.23-6.41-5.573l-45.976-72.727v114.803q0 7.523-4.458 12.26-4.459 4.737-11.703 4.737-6.967 0-11.425-4.737-4.458-5.015-4.458-12.26V-565.63q0-6.966 5.015-11.982 5.294-5.016 12.54-5.016 4.18 0 8.359 2.23 4.18 1.95 6.409 5.294l60.745 93.347 62.417-93.347q2.23-3.344 5.852-5.295 3.9-2.229 7.802-2.229zm211.873 173.598q1.394 3.622 1.394 6.687 0 7.245-4.737 11.982-4.737 4.459-10.868 4.459-5.015 0-9.195-3.066-3.901-3.065-6.13-8.359l-14.49-33.716h-83.037l-14.49 33.995q-1.95 5.294-6.13 8.36-3.901 2.786-8.638 2.786-7.245 0-11.146-3.901-3.622-3.902-3.622-10.59 0-2.507.836-5.293l69.383-166.632q2.23-5.573 6.687-8.638 4.459-3.065 10.032-2.508 5.015 0 9.195 3.065 4.458 2.787 6.409 8.081zm-113.41-54.058h55.73l-28.143-65.203zm221.992-119.262q26.192 0 44.862 13.097 18.948 12.818 28.7 35.11 10.032 22.013 10.032 49.32 0 27.308-10.031 49.6-9.753 22.013-28.701 35.11-18.67 12.817-44.862 12.817h-66.597q-7.245 0-12.26-4.737-4.738-5.015-4.738-12.26v-161.059q0-7.244 4.737-11.981 5.016-5.016 12.26-5.016zm-2.787 163.01q25.078 0 37.618-18.39 12.539-18.67 12.539-47.092 0-28.422-12.818-46.813-12.54-18.67-37.339-18.67h-45.977v130.965zm228.726 0q7.245 0 11.982 5.016 5.016 4.737 5.016 11.145 0 6.967-5.016 11.425-4.737 4.458-11.982 4.458h-93.346q-7.245 0-12.261-4.737-4.737-5.015-4.737-12.26v-161.059q0-7.244 4.737-11.981 5.016-5.016 12.26-5.016h93.347q7.245 0 11.982 4.737 5.016 4.458 5.016 11.703 0 6.966-4.737 11.425-4.737 4.18-12.26 4.18h-75.514v47.37h62.974q7.245 0 11.982 4.737 5.016 4.458 5.016 11.703 0 6.966-4.737 11.424-4.737 4.18-12.26 4.18h-62.975v51.55zm156.675-.557q7.244 0 11.981 4.737 5.016 4.458 5.016 11.703 0 6.966-5.016 11.703-4.737 4.458-11.981 4.458h-90.561q-7.245 0-12.26-4.737-4.738-5.015-4.738-12.26v-161.059q0-7.244 5.016-11.981 5.016-5.016 12.818-5.016 6.966 0 11.982 5.016 5.016 4.737 5.016 11.981v145.455zm111.877 35.387q-20.063 0-35.667-5.015-15.604-5.015-29.258-16.997-7.524-6.688-7.524-14.769 0-6.409 4.737-11.146 4.737-5.015 11.425-5.015 5.294 0 9.474 3.344 11.146 9.195 21.734 13.375 10.589 4.18 25.079 4.18 15.604 0 26.75-6.967 11.424-6.966 11.424-17.276 0-12.54-11.146-19.505-11.145-7.245-35.388-10.868-61.024-8.916-61.024-56.844 0-17.555 9.196-30.372 9.195-13.097 25.078-19.784 15.883-6.967 35.388-6.967 17.555 0 32.88 5.295 15.605 5.294 25.915 13.932 8.08 6.409 8.08 14.768 0 6.41-4.736 11.425-4.737 4.737-11.146 4.737-4.18 0-7.524-2.508-7.245-5.851-20.34-10.588-12.819-5.016-23.129-5.016-17.554 0-27.307 6.687-9.474 6.41-9.474 16.998 0 11.982 9.753 18.112 10.03 6.13 31.208 10.031 23.964 4.18 38.175 10.868 14.49 6.409 21.734 17.833 7.245 11.146 7.245 29.815 0 17.555-10.031 30.93-9.753 13.097-26.193 20.342-16.44 6.966-35.388 6.966zm283.289-100.312q0 27.586-12.26 50.714-12.261 22.849-33.996 36.224-21.456 13.375-48.484 13.375-27.03 0-48.764-13.375-21.456-13.375-33.716-36.224-11.982-23.128-11.982-50.714 0-27.587 11.982-50.436 12.26-23.127 33.716-36.503 21.735-13.375 48.764-13.375 27.028 0 48.484 13.375 21.735 13.376 33.995 36.503 12.26 22.85 12.26 50.436zm-36.225 0q0-18.67-7.523-33.717-7.523-15.325-20.898-24.242-13.376-8.917-30.094-8.917-16.998 0-30.373 8.917-13.096 8.638-20.62 23.964-7.245 15.325-7.245 33.995 0 18.669 7.245 33.995 7.524 15.325 20.62 24.242 13.375 8.638 30.373 8.638 16.718 0 30.094-8.917 13.375-8.916 20.898-23.963 7.523-15.326 7.523-33.995zm216.445-97.528q6.687 0 10.867 4.46 4.18 4.458 4.18 11.145v162.452q0 7.245-5.016 12.26-4.737 4.737-11.982 4.737-3.9 0-7.802-1.114-3.622-1.393-5.294-3.623l-102.264-129.85V-402.9q0 6.688-4.459 11.146-4.18 4.458-11.145 4.458-6.688 0-10.868-4.458-4.18-4.458-4.18-11.146v-162.452q0-7.244 4.738-11.981 5.015-5.016 12.26-5.016 4.18 0 8.08 1.672 4.18 1.672 6.131 4.458l101.428 129.293v-119.819q0-6.687 4.18-11.146 4.458-4.458 11.146-4.458z" style="-inkscape-font-specification:'Quicksand Bold'" font-weight="700" font-size="105.833" font-family="Quicksand" letter-spacing="0" word-spacing="0" transform="translate(-4679.002 845.723)" fill="url(#k)"/></g></svg>