<svg width="15" height="15" viewBox="0 0 15 15" fill="none" xmlns="http://www.w3.org/2000/svg"><circle cx="7.5" cy="7.5" r="7" stroke="#fff"/><g clip-path="url(#a)"><path d="M4.834 8.983A9.549 9.549 0 0 0 8.01 11.47c.464.22 1.085.481 1.777.526.043.002.084.004.127.004a1.472 1.472 0 0 0 1.149-.5c.108-.13.231-.248.36-.373.087-.084.177-.171.263-.26.397-.415.397-.94-.004-1.342l-1.12-1.12a.907.907 0 0 0-.657-.303c-.239 0-.468.105-.664.3l-.668.668c-.061-.035-.125-.067-.184-.097a2.307 2.307 0 0 1-.206-.112c-.608-.386-1.16-.89-1.687-1.536-.267-.338-.446-.621-.571-.91.175-.159.34-.325.498-.487l.172-.174c.2-.2.31-.434.31-.67 0-.238-.107-.47-.31-.672l-.556-.556c-.066-.065-.127-.129-.19-.194a10.233 10.233 0 0 0-.379-.375A.93.93 0 0 0 4.814 3c-.237 0-.465.099-.664.29l-.698.697a1.433 1.433 0 0 0-.427.917c-.035.446.047.92.26 1.492.326.886.818 1.708 1.55 2.587zM3.48 4.943a.986.986 0 0 1 .297-.634l.693-.694a.502.502 0 0 1 .344-.158c.113 0 .229.054.335.162.125.116.243.237.37.366l.193.197.556.556c.116.116.175.233.175.349 0 .115-.06.233-.175.349-.058.057-.115.117-.173.175-.174.175-.336.341-.515.5a8.194 8.194 0 0 0-.01.009c-.154.155-.13.302-.093.414l.006.015c.144.345.343.673.655 1.065.56.69 1.148 1.225 1.797 1.637.08.052.166.093.247.134.074.038.143.073.205.112l.02.011a.39.39 0 0 0 .181.047c.15 0 .246-.095.278-.127l.697-.697c.109-.108.226-.166.342-.166.141 0 .257.088.33.166l1.124 1.123c.224.223.222.466-.005.703-.079.083-.16.164-.248.248-.13.126-.267.257-.39.404-.214.232-.47.34-.8.34-.032 0-.065-.002-.097-.004-.612-.04-1.18-.278-1.608-.481a9.07 9.07 0 0 1-3.023-2.369c-.695-.837-1.163-1.616-1.473-2.452-.192-.513-.265-.925-.235-1.3z" fill="#fff"/></g><defs><clipPath id="a"><path fill="#fff" transform="translate(3 3)" d="M0 0h9v9H0z"/></clipPath></defs></svg>