<svg width="15" height="15" viewBox="0 0 15 15" fill="none" xmlns="http://www.w3.org/2000/svg">
<circle cx="7.5" cy="7.5" r="7" stroke="#3A7FE7"/>
<g clip-path="url(#clip0_2:338)">
<path d="M4.83426 8.98259C5.72195 10.0437 6.79053 10.8792 8.01018 11.4704C8.47454 11.6904 9.09555 11.9515 9.78743 11.9963C9.83032 11.9981 9.87135 12 9.91424 12C10.3786 12 10.7516 11.8396 11.0556 11.5095C11.0574 11.5077 11.0612 11.5039 11.063 11.5002C11.1712 11.3697 11.2943 11.2522 11.4229 11.1272C11.5106 11.0433 11.6001 10.9557 11.6859 10.8661C12.0831 10.4521 12.0831 9.92623 11.6822 9.52528L10.5614 8.40448C10.3711 8.2068 10.1436 8.10236 9.90492 8.10236C9.66621 8.10236 9.43683 8.2068 9.24101 8.40261L8.57338 9.07024C8.51184 9.03481 8.44843 9.00311 8.38875 8.97327C8.31416 8.93597 8.24516 8.90054 8.18361 8.86138C7.57566 8.47534 7.02365 7.97182 6.49588 7.3247C6.2292 6.98715 6.05017 6.70369 5.92522 6.41463C6.10052 6.25611 6.26463 6.09014 6.42315 5.92789C6.4791 5.87008 6.53691 5.81227 6.59472 5.75445C6.79613 5.55305 6.90429 5.31993 6.90429 5.08309C6.90429 4.84625 6.79799 4.61314 6.59472 4.41173L6.03898 3.85599C5.97371 3.79072 5.91217 3.72731 5.84876 3.66204C5.72568 3.53523 5.597 3.40468 5.47019 3.28719C5.2781 3.09884 5.05245 3 4.81374 3C4.5769 3 4.34938 3.09884 4.14984 3.28906L3.45237 3.98653C3.19874 4.24016 3.05514 4.54787 3.0253 4.90406C2.98987 5.34977 3.07193 5.82346 3.28453 6.39598C3.61088 7.28181 4.10322 8.10423 4.83426 8.98259ZM3.48034 4.94322C3.50272 4.69519 3.59783 4.48819 3.77686 4.30916L4.4706 3.61542C4.57876 3.51098 4.69812 3.4569 4.81374 3.4569C4.9275 3.4569 5.04312 3.51098 5.14942 3.61915C5.27437 3.73477 5.39186 3.85599 5.51867 3.98467C5.58208 4.04994 5.64735 4.11521 5.71262 4.18235L6.26836 4.73809C6.38399 4.85371 6.44366 4.9712 6.44366 5.08682C6.44366 5.20245 6.38399 5.31993 6.26836 5.43556C6.21055 5.49337 6.15274 5.55305 6.09493 5.61086C5.92149 5.78616 5.75925 5.95213 5.58022 6.11065C5.57649 6.11438 5.57462 6.11625 5.57089 6.11998C5.4161 6.27476 5.44035 6.42209 5.47765 6.53398C5.47951 6.53958 5.48138 6.54331 5.48324 6.5489C5.62684 6.89391 5.82638 7.22213 6.13782 7.61376C6.69729 8.30377 7.2866 8.839 7.93558 9.25114C8.01577 9.30336 8.10156 9.34438 8.18175 9.38541C8.25634 9.42271 8.32535 9.45814 8.38689 9.49731C8.39435 9.50104 8.39994 9.50477 8.4074 9.5085C8.46894 9.5402 8.52862 9.55512 8.5883 9.55512C8.73749 9.55512 8.83446 9.46001 8.86617 9.42831L9.56364 8.73083C9.6718 8.62267 9.78929 8.56486 9.90492 8.56486C10.0466 8.56486 10.1623 8.65251 10.235 8.73083L11.3595 9.8535C11.5833 10.0773 11.5815 10.3197 11.3539 10.5566C11.2756 10.6405 11.1936 10.7207 11.1059 10.8046C10.9754 10.9314 10.8392 11.062 10.7161 11.2093C10.5017 11.4405 10.2462 11.5487 9.9161 11.5487C9.8844 11.5487 9.85083 11.5468 9.81913 11.545C9.20744 11.5058 8.63865 11.2671 8.21159 11.0638C7.05162 10.5025 6.03339 9.70617 5.18859 8.6954C4.49298 7.85806 4.02489 7.07853 3.71532 6.24306C3.52323 5.73021 3.4505 5.31807 3.48034 4.94322Z" fill="#3A7FE7"/>
</g>
<defs>
<clipPath id="clip0_2:338">
<rect width="9" height="9" fill="white" transform="translate(3 3)"/>
</clipPath>
</defs>
</svg>
