<svg width="15" height="15" viewBox="0 0 15 15" fill="none" xmlns="http://www.w3.org/2000/svg"><circle cx="7.5" cy="7.5" r="7" stroke="#3A7FE7"/><g clip-path="url(#a)"><path d="M4.834 8.983A9.549 9.549 0 0 0 8.01 11.47c.465.22 1.086.481 1.777.526.043.002.084.004.127.004.465 0 .838-.16 1.142-.49l.007-.01c.108-.13.231-.248.36-.373.088-.084.177-.171.263-.26.397-.415.397-.94-.004-1.342l-1.12-1.12a.907.907 0 0 0-.657-.303c-.239 0-.468.105-.664.3l-.668.668c-.061-.035-.125-.067-.184-.097a2.31 2.31 0 0 1-.205-.112c-.608-.386-1.16-.89-1.688-1.536-.267-.338-.446-.621-.57-.91.175-.159.339-.325.497-.487l.172-.174c.201-.2.31-.434.31-.67 0-.238-.107-.47-.31-.672l-.556-.556-.19-.194a10.233 10.233 0 0 0-.379-.375A.93.93 0 0 0 4.814 3c-.237 0-.465.099-.664.29l-.698.697a1.433 1.433 0 0 0-.427.917c-.035.446.047.92.26 1.492.326.886.818 1.708 1.55 2.587zM3.48 4.943a.986.986 0 0 1 .297-.634l.694-.694a.502.502 0 0 1 .343-.158c.114 0 .23.054.335.162.125.116.243.237.37.366l.194.197.555.556c.116.116.176.233.176.349 0 .115-.06.233-.176.349l-.173.175c-.174.175-.336.341-.515.5l-.01.009c-.154.155-.13.302-.092.414l.005.015c.144.345.343.673.655 1.065.56.69 1.149 1.225 1.798 1.637.08.052.166.093.246.134.074.038.143.073.205.112l.02.011a.39.39 0 0 0 .181.047c.15 0 .246-.095.278-.127l.698-.697c.108-.108.225-.166.34-.166.143 0 .258.088.331.166l1.125 1.123c.223.223.222.466-.006.703-.078.083-.16.164-.248.248-.13.126-.267.257-.39.404-.214.232-.47.34-.8.34-.032 0-.065-.002-.097-.004-.612-.04-1.18-.278-1.607-.481a9.07 9.07 0 0 1-3.023-2.369c-.696-.837-1.164-1.616-1.474-2.452-.192-.513-.264-.925-.235-1.3z" fill="#3A7FE7"/></g><defs><clipPath id="a"><path fill="#fff" transform="translate(3 3)" d="M0 0h9v9H0z"/></clipPath></defs></svg>