<svg width="50" height="50" viewBox="0 0 50 50" fill="none" xmlns="http://www.w3.org/2000/svg"><circle cx="25" cy="25" r="24.5" stroke="#fff"/><g clip-path="url(#a)"><path d="M16.113 29.942c2.96 3.537 6.521 6.322 10.587 8.293 1.548.733 3.618 1.604 5.924 1.753.143.006.28.012.423.012 1.548 0 2.79-.534 3.804-1.635a.136.136 0 0 0 .025-.03c.36-.436.77-.827 1.2-1.244.292-.28.59-.572.876-.87 1.324-1.38 1.324-3.133-.012-4.47l-3.736-3.736c-.634-.659-1.393-1.007-2.188-1.007-.796 0-1.56.348-2.213 1.001l-2.226 2.226a11.781 11.781 0 0 0-.615-.324 7.733 7.733 0 0 1-.684-.373c-2.027-1.287-3.867-2.965-5.626-5.122-.889-1.125-1.486-2.07-1.902-3.034a37.46 37.46 0 0 0 1.66-1.622c.186-.193.379-.385.572-.578.671-.671 1.032-1.448 1.032-2.238s-.355-1.566-1.032-2.238l-1.853-1.852c-.217-.218-.423-.43-.634-.647-.41-.423-.84-.858-1.262-1.25-.64-.627-1.392-.957-2.188-.957-.79 0-1.548.33-2.213.964l-2.325 2.325a4.777 4.777 0 0 0-1.423 3.058c-.119 1.486.155 3.065.864 4.973 1.088 2.953 2.729 5.695 5.165 8.622zM11.6 16.478a3.288 3.288 0 0 1 .989-2.114l2.312-2.312c.36-.348.759-.529 1.144-.529.38 0 .765.18 1.119.541.416.386.808.79 1.23 1.219.212.217.43.435.647.659l1.853 1.852c.385.385.584.777.584 1.162 0 .386-.199.777-.584 1.163-.193.193-.386.392-.578.584-.578.585-1.12 1.138-1.716 1.666l-.031.031c-.516.516-.435 1.007-.311 1.38.006.019.012.031.019.05.478 1.15 1.143 2.244 2.182 3.55 1.864 2.3 3.829 4.084 5.992 5.457.267.175.553.311.82.448.25.124.48.242.684.373.025.012.044.025.069.037a1.3 1.3 0 0 0 .603.156c.497 0 .82-.317.926-.423l2.325-2.325c.36-.36.752-.553 1.138-.553.472 0 .858.292 1.1.553l3.748 3.742c.746.746.74 1.555-.018 2.344a20.8 20.8 0 0 1-.827.827c-.435.422-.889.858-1.3 1.349-.714.77-1.566 1.131-2.666 1.131-.106 0-.218-.006-.323-.012-2.04-.131-3.935-.927-5.359-1.604-3.866-1.871-7.26-4.526-10.076-7.895-2.32-2.791-3.88-5.39-4.911-8.174-.64-1.71-.883-3.084-.784-4.333z" fill="#fff"/></g><defs><clipPath id="a"><path fill="#fff" transform="translate(10 10)" d="M0 0h30v30H0z"/></clipPath></defs></svg>