<svg width="50" height="50" viewBox="0 0 50 50" fill="none" xmlns="http://www.w3.org/2000/svg">
<circle cx="25" cy="25.0004" r="24.5" stroke="white"/>
<g clip-path="url(#clip0_2:122)">
<path d="M16.1134 29.9423C19.0724 33.4794 22.6343 36.2644 26.6998 38.2349C28.2477 38.9685 30.3177 39.8387 32.624 39.9879C32.767 39.9942 32.9037 40.0004 33.0467 40.0004C34.5946 40.0004 35.8378 39.4658 36.8511 38.3655C36.8573 38.3593 36.8697 38.3468 36.8759 38.3344C37.2365 37.8992 37.6468 37.5076 38.0757 37.0911C38.3679 36.8114 38.6663 36.5192 38.9522 36.2208C40.2763 34.8408 40.2763 33.0878 38.9398 31.7513L35.2038 28.0153C34.5697 27.3564 33.8113 27.0082 33.0156 27.0082C32.2199 27.0082 31.4553 27.3564 30.8026 28.0091L28.5772 30.2345C28.372 30.1164 28.1607 30.0107 27.9617 29.9113C27.7131 29.7869 27.4831 29.6688 27.2779 29.5383C25.2514 28.2515 23.4114 26.5731 21.6522 24.416C20.7632 23.2909 20.1665 22.346 19.75 21.3825C20.3343 20.8541 20.8813 20.3008 21.4097 19.76C21.5962 19.5673 21.7889 19.3746 21.9816 19.1819C22.653 18.5105 23.0135 17.7335 23.0135 16.944C23.0135 16.1545 22.6592 15.3775 21.9816 14.7061L20.1292 12.8537C19.9116 12.6361 19.7065 12.4247 19.4951 12.2072C19.0848 11.7845 18.6559 11.3493 18.2332 10.9577C17.5929 10.3298 16.8407 10.0004 16.045 10.0004C15.2556 10.0004 14.4972 10.3298 13.832 10.9639L11.5071 13.2888C10.6617 14.1342 10.183 15.1599 10.0836 16.3472C9.96546 17.8329 10.239 19.4119 10.9476 21.3203C12.0355 24.2731 13.6766 27.0145 16.1134 29.9423ZM11.6004 16.4778C11.675 15.651 11.992 14.961 12.5888 14.3642L14.9012 12.0518C15.2618 11.7036 15.6596 11.5234 16.045 11.5234C16.4242 11.5234 16.8096 11.7036 17.164 12.0642C17.5805 12.4496 17.9721 12.8537 18.3948 13.2826C18.6062 13.5002 18.8237 13.7177 19.0413 13.9415L20.8938 15.794C21.2792 16.1794 21.4781 16.571 21.4781 16.9564C21.4781 17.3418 21.2792 17.7335 20.8938 18.1189C20.7011 18.3116 20.5084 18.5105 20.3157 18.7032C19.7375 19.2876 19.1967 19.8408 18.5999 20.3692C18.5875 20.3816 18.5813 20.3879 18.5689 20.4003C18.0529 20.9162 18.1337 21.4073 18.258 21.7803C18.2643 21.799 18.2705 21.8114 18.2767 21.83C18.7554 22.9801 19.4205 24.0741 20.4586 25.3796C22.3235 27.6796 24.2879 29.4637 26.4512 30.8375C26.7185 31.0116 27.0044 31.1483 27.2717 31.2851C27.5204 31.4094 27.7504 31.5275 27.9555 31.6581C27.9804 31.6705 27.999 31.6829 28.0239 31.6954C28.229 31.801 28.428 31.8508 28.6269 31.8508C29.1242 31.8508 29.4474 31.5337 29.5531 31.4281L31.878 29.1031C32.2386 28.7426 32.6302 28.5499 33.0156 28.5499C33.4881 28.5499 33.8735 28.8421 34.1159 29.1031L37.8643 32.8454C38.6103 33.5913 38.6041 34.3995 37.8457 35.1889C37.5846 35.4687 37.3111 35.736 37.0189 36.0157C36.5838 36.4384 36.13 36.8736 35.7197 37.3646C35.0048 38.1355 34.1532 38.496 33.0529 38.496C32.9472 38.496 32.8353 38.4898 32.7297 38.4836C30.6907 38.353 28.7947 37.5573 27.3712 36.8798C23.5046 35.0087 20.1105 32.3543 17.2945 28.985C14.9758 26.1939 13.4155 23.5955 12.3836 20.8106C11.7433 19.1011 11.5009 17.7273 11.6004 16.4778Z" fill="white"/>
</g>
<defs>
<clipPath id="clip0_2:122">
<rect width="30" height="30" fill="white" transform="translate(10 10.0004)"/>
</clipPath>
</defs>
</svg>
