<svg width="50" height="50" viewBox="0 0 50 50" fill="none" xmlns="http://www.w3.org/2000/svg"><circle cx="25" cy="25" r="24.5" stroke="#3A7FE7"/><g clip-path="url(#a)"><path d="M16.113 29.942c2.959 3.537 6.521 6.322 10.587 8.293 1.547.733 3.617 1.603 5.924 1.753.143.006.28.012.422.012 1.548 0 2.791-.535 3.805-1.635a.176.176 0 0 0 .025-.031c.36-.435.77-.827 1.2-1.243.291-.28.59-.572.876-.87 1.324-1.38 1.324-3.134-.013-4.47l-3.736-3.736c-.634-.659-1.392-1.007-2.188-1.007-.795 0-1.56.348-2.213 1l-2.225 2.226a11.485 11.485 0 0 0-.616-.323 7.654 7.654 0 0 1-.683-.373c-2.027-1.287-3.867-2.965-5.626-5.122-.89-1.125-1.486-2.07-1.902-3.034a37.407 37.407 0 0 0 1.66-1.622c.186-.193.379-.386.571-.579.672-.67 1.032-1.448 1.032-2.237 0-.79-.354-1.567-1.032-2.238l-1.852-1.853c-.218-.217-.423-.429-.634-.646a34.03 34.03 0 0 0-1.262-1.25c-.64-.628-1.393-.957-2.188-.957-.79 0-1.548.33-2.213.963l-2.325 2.325a4.778 4.778 0 0 0-1.424 3.059c-.118 1.486.156 3.064.864 4.973 1.088 2.953 2.73 5.694 5.166 8.622zM11.6 16.477a3.288 3.288 0 0 1 .988-2.113l2.313-2.313c.36-.348.758-.528 1.144-.528.379 0 .764.18 1.119.54.416.386.808.79 1.23 1.22.212.217.43.434.647.658l1.852 1.853c.386.385.585.777.585 1.162 0 .386-.2.777-.585 1.163-.192.192-.385.391-.578.584-.578.584-1.119 1.137-1.715 1.666l-.032.03c-.516.517-.435 1.008-.31 1.38.006.02.012.032.018.05.479 1.15 1.144 2.245 2.182 3.55 1.865 2.3 3.83 4.084 5.993 5.458.267.174.553.31.82.448.249.124.479.242.684.373.025.012.044.025.069.037a1.3 1.3 0 0 0 .602.155c.498 0 .821-.317.927-.422l2.325-2.325c.36-.36.752-.554 1.137-.554.473 0 .858.293 1.1.554l3.749 3.742c.746.746.74 1.554-.019 2.344-.26.28-.534.547-.826.826-.436.423-.89.858-1.3 1.35-.715.77-1.566 1.13-2.666 1.13-.106 0-.218-.006-.324-.012-2.039-.13-3.935-.926-5.358-1.604-3.867-1.87-7.26-4.525-10.077-7.894-2.319-2.791-3.879-5.39-4.91-8.175-.641-1.71-.883-3.083-.784-4.333z" fill="#3A7FE7"/></g><defs><clipPath id="a"><path fill="#fff" transform="translate(10 10)" d="M0 0h30v30H0z"/></clipPath></defs></svg>