<svg width="320" height="766" viewBox="0 0 320 766" fill="none" xmlns="http://www.w3.org/2000/svg">
<g opacity="0.6">
<circle opacity="0.1" cx="250.974" cy="388.554" r="251.144" transform="rotate(-41.2971 250.974 388.554)" fill="#3A7FE7" stroke="#3A7FE7"/>
<circle opacity="0.2" cx="250.974" cy="388.554" r="258.787" transform="rotate(-41.2971 250.974 388.554)" stroke="#3A7FE7"/>
<circle opacity="0.8" cx="250.975" cy="388.554" r="266.43" transform="rotate(-41.2971 250.975 388.554)" stroke="#3A7FE7"/>
<path d="M71.4219 184.581L72.6578 190.277L76.9112 186.541L71.4219 184.581Z" fill="#3A7FE7"/>
<circle cx="219.386" cy="123.556" r="1.69839" transform="rotate(-41.2971 219.386 123.556)" fill="#3A7FE7"/>
<g opacity="0.2">
<path d="M54.9623 196.565C54.1116 197.513 53.0907 198.007 51.8997 198.049C50.7087 198.091 49.6465 197.69 48.7131 196.846C47.7736 195.996 47.266 194.978 47.1902 193.79C47.1084 192.597 47.4928 191.527 48.3435 190.58C48.855 190.011 49.4625 189.609 50.166 189.376C50.8689 189.132 51.5718 189.083 52.2747 189.23L51.9409 190.867C51.5161 190.766 51.0956 190.787 50.6796 190.933C50.2575 191.072 49.8849 191.322 49.5618 191.682C49.0126 192.293 48.7624 192.963 48.8111 193.691C48.8652 194.414 49.2013 195.055 49.8196 195.614C50.4317 196.167 51.0987 196.434 51.8204 196.413C52.5476 196.386 53.1857 196.067 53.7349 195.456C54.058 195.096 54.27 194.701 54.3708 194.271C54.471 193.829 54.449 193.407 54.3048 193.005L55.8932 192.502C56.1116 193.189 56.1418 193.895 55.9838 194.621C55.8197 195.342 55.4792 195.99 54.9623 196.565Z" fill="#3A7FE7"/>
<path d="M57.5656 184.608L58.3873 183.789L62.7067 188.138L61.6283 189.213L59.1748 186.743L59.6168 191.218L58.7951 192.037L54.4757 187.687L55.5542 186.612L58.0076 189.083L57.5656 184.608Z" fill="#3A7FE7"/>
<path d="M65.4423 181.584C66.0998 181.4 66.6524 181.557 67.1002 182.056C67.4496 182.445 67.5829 182.913 67.5001 183.46C67.4173 184.007 67.0882 184.539 66.5128 185.056C65.6019 185.874 64.654 186.066 63.6692 185.632L64.1053 184.219C64.6204 184.503 65.1147 184.433 65.5881 184.007C65.8039 183.814 65.9305 183.623 65.9679 183.436C66.0113 183.243 65.9675 183.073 65.8365 182.927C65.5853 182.648 65.2829 182.667 64.9293 182.984L64.2911 183.558L63.3902 182.554L63.8756 182.118C64.2232 181.806 64.2714 181.51 64.0202 181.23C63.9001 181.096 63.7536 181.035 63.5808 181.048C63.4079 181.06 63.2376 181.142 63.0698 181.293C62.6802 181.642 62.5735 182.084 62.7497 182.618L61.3234 182.911C61.0371 181.904 61.3074 181.03 62.1345 180.287C62.6499 179.824 63.1775 179.592 63.7174 179.59C64.2578 179.577 64.6973 179.759 65.0358 180.136C65.4344 180.58 65.5699 181.063 65.4423 181.584Z" fill="#3A7FE7"/>
<path d="M69.8927 173.885L71.1048 172.905L74.9649 177.667L73.7528 178.647L73.2973 178.086C73.3097 178.843 72.9871 179.487 72.3293 180.019C71.7029 180.526 70.9686 180.72 70.1265 180.602C69.2854 180.473 68.5792 180.056 68.0079 179.351C67.4366 178.647 67.1778 177.873 67.2314 177.031C67.2861 176.177 67.6266 175.497 68.253 174.991C68.9108 174.459 69.6091 174.278 70.3482 174.447L69.8927 173.885ZM70.3739 179.046C70.819 179.096 71.2294 178.969 71.6052 178.666C71.9811 178.362 72.1908 177.987 72.2344 177.542C72.2791 177.085 72.1419 176.66 71.8228 176.266C71.5036 175.873 71.1185 175.653 70.6672 175.608C70.217 175.552 69.804 175.676 69.4281 175.98C69.0523 176.284 68.8451 176.661 68.8067 177.113C68.7631 177.558 68.9009 177.978 69.22 178.371C69.5391 178.765 69.9238 178.99 70.3739 179.046Z" fill="#3A7FE7"/>
<path d="M78.1989 167.166L81.9225 172.035L80.6823 172.98L77.8822 169.318L76.5554 170.329L77.7991 171.955C78.951 173.461 78.7936 174.655 77.3271 175.535L76.426 174.357C76.732 174.227 76.8952 174.035 76.9156 173.784C76.931 173.525 76.7948 173.208 76.5068 172.831L74.3918 170.066L78.1989 167.166Z" fill="#3A7FE7"/>
<path d="M84.2562 165.501C84.8078 165.095 85.3665 164.923 85.9323 164.983C86.4933 165.037 86.9609 165.317 87.3352 165.823C87.7094 166.329 87.842 166.86 87.7329 167.418C87.6191 167.968 87.2863 168.446 86.7347 168.852L84.5349 170.471L80.89 165.543L82.1456 164.619L83.312 166.196L84.2562 165.501ZM85.9134 167.721C86.0886 167.592 86.195 167.438 86.2324 167.258C86.2714 167.067 86.2302 166.89 86.1087 166.725C85.9872 166.561 85.8292 166.469 85.6346 166.45C85.4465 166.426 85.2649 166.479 85.0897 166.608L84.1358 167.31L84.9595 168.423L85.9134 167.721Z" fill="#3A7FE7"/>
</g>
</g>
</svg>
