<svg width="1484" height="396" viewBox="0 0 1484 396" fill="none" xmlns="http://www.w3.org/2000/svg">
<g opacity="0.25">
<circle opacity="0.8" cx="747.117" cy="777.327" r="604.043" transform="rotate(-14.4424 747.117 777.327)" stroke="white"/>
<path d="M592.628 180.205L589.095 193.754L602.266 190.362L592.628 180.205Z" fill="white"/>
<circle cx="275.529" cy="399.505" r="4.08015" transform="rotate(-14.4424 275.529 399.505)" fill="white"/>
<circle cx="976.87" cy="218.879" r="4.08015" transform="rotate(-14.4424 976.87 218.879)" fill="white"/>
<path d="M258.527 405.557C259.291 407.997 258.856 410.284 257.222 412.418C255.587 414.551 253.486 415.575 250.918 415.489C248.346 415.374 245.663 414.245 242.869 412.105C240.075 409.964 238.295 407.674 237.531 405.234C236.762 402.764 237.195 400.462 238.83 398.329C240.465 396.195 242.568 395.186 245.139 395.301C247.707 395.387 250.388 396.501 253.183 398.641C255.977 400.782 257.758 403.087 258.527 405.557ZM250.736 413.254C252.715 413.372 254.301 412.652 255.494 411.094C256.688 409.536 256.963 407.826 256.321 405.963C255.692 404.084 254.191 402.236 251.82 400.419C249.45 398.603 247.275 397.636 245.296 397.518C243.33 397.382 241.751 398.094 240.557 399.652C239.364 401.21 239.082 402.929 239.711 404.808C240.353 406.671 241.86 408.51 244.231 410.327C246.602 412.143 248.77 413.119 250.736 413.254Z" fill="white"/>
<path d="M278.291 385.864L276.654 387.833L265.41 386.392L268.881 397.184L267.244 399.152L263.066 386.108L250.326 384.463L251.942 382.519L262.334 383.835L259.143 373.858L260.759 371.914L264.703 384.139L278.291 385.864Z" fill="white"/>
<path d="M270.401 361.079L271.679 359.646L288.398 374.553L286.907 376.225L272.027 362.958L269.806 367.708L267.99 366.861L270.401 361.079Z" fill="white"/>
<path d="M299.046 359.011C299.572 361.513 298.919 363.748 297.086 365.714C295.253 367.68 293.063 368.497 290.516 368.164C287.967 367.801 285.405 366.42 282.83 364.02C280.255 361.62 278.705 359.169 278.179 356.667C277.652 354.134 278.305 351.885 280.137 349.918C281.97 347.952 284.161 347.15 286.709 347.513C289.257 347.846 291.818 349.213 294.393 351.613C296.968 354.013 298.519 356.479 299.046 359.011ZM290.55 365.922C292.508 366.23 294.156 365.666 295.494 364.231C296.832 362.795 297.271 361.119 296.811 359.203C296.366 357.272 295.051 355.288 292.866 353.251C290.681 351.215 288.61 350.043 286.652 349.734C284.708 349.41 283.067 349.966 281.729 351.402C280.391 352.838 279.945 354.521 280.39 356.453C280.85 358.369 282.172 360.345 284.357 362.381C286.542 364.417 288.606 365.598 290.55 365.922Z" fill="white"/>
<path d="M311.294 346.586C311.751 349.101 311.037 351.317 309.152 353.233C307.266 355.148 305.055 355.905 302.517 355.503C299.979 355.07 297.456 353.619 294.947 351.15C292.439 348.681 290.956 346.189 290.498 343.673C290.041 341.127 290.755 338.896 292.64 336.981C294.526 335.065 296.737 334.323 299.275 334.756C301.813 335.158 304.336 336.594 306.845 339.063C309.353 341.532 310.836 344.04 311.294 346.586ZM302.612 353.262C304.561 353.624 306.224 353.105 307.601 351.706C308.978 350.307 309.462 348.644 309.055 346.717C308.662 344.774 307.402 342.755 305.273 340.66C303.145 338.564 301.106 337.336 299.157 336.974C297.223 336.597 295.568 337.108 294.191 338.507C292.814 339.906 292.322 341.577 292.715 343.52C293.122 345.447 294.39 347.459 296.519 349.554C298.647 351.649 300.679 352.885 302.612 353.262Z" fill="white"/>
<path d="M515.897 192.943L515.095 190.68L518.993 182.246C519.952 180.226 520.239 178.671 519.853 177.582C519.55 176.727 519.056 176.156 518.371 175.871C517.697 175.563 516.968 175.548 516.182 175.827C514.711 176.349 513.883 177.464 513.698 179.172L510.758 178.602C510.893 177.233 511.356 176.068 512.145 175.109C512.934 174.149 513.939 173.453 515.159 173.02C516.697 172.474 518.19 172.491 519.637 173.072C521.085 173.652 522.106 174.781 522.7 176.458C523.336 178.251 523.019 180.516 521.749 183.25L519.195 188.63L526.467 186.048L527.456 188.84L515.897 192.943Z" fill="white"/>
<path d="M544.6 176.574L545.491 179.287L543.469 179.951L544.517 183.145L541.585 184.109L540.536 180.915L531.841 183.773L530.951 181.061L533.156 167.221L536.316 166.182L534.11 180.022L539.646 178.203L538.132 173.589L541.064 172.626L542.578 177.239L544.6 176.574Z" fill="white"/>
<path d="M563.724 174.832C563.008 176.886 561.545 178.245 559.337 178.909C557.129 179.573 555.151 179.248 553.405 177.934C551.675 176.615 550.388 174.55 549.544 171.739C548.7 168.929 548.636 166.496 549.353 164.442C550.087 162.383 551.557 161.021 553.766 160.358C555.974 159.694 557.943 160.022 559.673 161.34C561.419 162.654 562.714 164.716 563.559 167.527C564.403 170.338 564.458 172.773 563.724 174.832ZM558.478 176.047C559.803 175.649 560.647 174.791 561.011 173.475C561.375 172.158 561.247 170.469 560.628 168.408C560.009 166.347 559.185 164.867 558.156 163.969C557.127 163.071 555.95 162.821 554.625 163.22C553.317 163.613 552.473 164.47 552.092 165.792C551.728 167.108 551.856 168.797 552.475 170.859C553.094 172.92 553.918 174.399 554.947 175.297C555.993 176.19 557.17 176.44 558.478 176.047Z" fill="white"/>
<path d="M597.315 168.086L593.94 168.957L588.285 163.445L586.005 171.005L582.63 171.876L585.898 161.113L578.298 153.706L581.647 152.842L586.859 157.917L588.963 150.954L592.338 150.083L589.272 160.242L597.315 168.086Z" fill="white"/>
<path d="M619.132 151.71C620.518 151.736 621.718 152.12 622.734 152.863C623.763 153.586 624.427 154.633 624.727 156.006C625.125 157.831 624.823 159.398 623.82 160.709C622.817 162.02 621.423 162.87 619.638 163.26C618.252 163.562 616.934 163.513 615.684 163.112C614.452 162.707 613.459 161.94 612.704 160.812L614.927 158.771C615.806 160.218 617.164 160.741 619.001 160.34C620.041 160.114 620.807 159.673 621.3 159.02C621.789 158.349 621.935 157.561 621.737 156.658C621.54 155.754 621.081 155.108 620.361 154.719C619.641 154.33 618.76 154.249 617.721 154.475L617.045 154.623L615.456 153.085L618.249 147.042L610.633 148.703L610.018 145.888L621.196 143.45L621.754 146.005L619.132 151.71Z" fill="white"/>
<path d="M644.961 151.435L645.503 154.238L643.413 154.642L644.051 157.942L641.021 158.527L640.383 155.227L631.396 156.961L630.854 154.158L634.785 140.71L638.05 140.08L634.12 153.528L639.841 152.424L638.919 147.656L641.949 147.071L642.871 151.839L644.961 151.435Z" fill="white"/>
<path d="M664.155 152.126C663.186 154.073 661.563 155.236 659.289 155.615C657.014 155.994 655.093 155.421 653.526 153.897C651.976 152.37 650.959 150.16 650.475 147.265C649.992 144.37 650.234 141.95 651.204 140.003C652.191 138.054 653.822 136.889 656.097 136.51C658.371 136.131 660.283 136.705 661.833 138.232C663.401 139.756 664.426 141.965 664.91 144.86C665.394 147.755 665.142 150.177 664.155 152.126ZM658.796 152.668C660.161 152.44 661.107 151.697 661.634 150.437C662.161 149.177 662.247 147.486 661.892 145.363C661.537 143.24 660.906 141.669 659.998 140.648C659.09 139.627 657.954 139.23 656.589 139.458C655.242 139.682 654.296 140.426 653.752 141.688C653.225 142.948 653.139 144.64 653.493 146.762C653.848 148.885 654.479 150.457 655.387 151.477C656.313 152.495 657.449 152.892 658.796 152.668Z" fill="white"/>
<path d="M935.666 173.965L937.509 174.503L931.24 196.007L929.089 195.38L934.669 176.241L929.425 176.279L929.41 174.275L935.666 173.965Z" fill="white"/>
<path d="M952.383 195.707L951.749 197.722L949.002 196.857L947.657 201.13L945.52 200.458L946.865 196.185L935.572 192.629L936.206 190.615L948.889 178.035L951.239 178.774L938.556 191.355L947.5 194.17L949.556 187.638L951.692 188.311L949.636 194.843L952.383 195.707Z" fill="white"/>
<path d="M965.059 204.213C962.987 205.71 960.68 206.022 958.138 205.147C955.596 204.272 953.96 202.603 953.228 200.14C952.524 197.663 952.745 194.761 953.891 191.433C955.037 188.105 956.646 185.692 958.718 184.194C960.818 182.683 963.138 182.365 965.68 183.24C968.221 184.115 969.844 185.791 970.549 188.267C971.28 190.73 971.073 193.626 969.927 196.954C968.781 200.282 967.158 202.702 965.059 204.213ZM955.291 199.259C955.806 201.174 956.991 202.45 958.846 203.089C960.702 203.728 962.412 203.448 963.975 202.249C965.559 201.057 966.837 199.049 967.809 196.225C968.781 193.401 969.01 191.032 968.496 189.117C968.002 187.21 966.827 185.937 964.971 185.298C963.116 184.659 961.396 184.936 959.812 186.128C958.249 187.327 956.981 189.338 956.009 192.162C955.036 194.986 954.797 197.352 955.291 199.259Z" fill="white"/>
<path d="M989.984 216.737L987.599 215.806L985.413 204.683L976.271 211.386L973.886 210.456L984.941 202.369L982.475 189.762L984.83 190.681L986.867 200.956L995.324 194.775L997.679 195.694L987.326 203.3L989.984 216.737Z" fill="white"/>
<path d="M997.408 219.943L998.213 218.095L1008.85 213.858C1011.88 212.664 1013.72 211.314 1014.38 209.808C1014.95 208.497 1014.98 207.301 1014.47 206.22C1014 205.127 1013.19 204.335 1012.05 203.841C1009.94 202.922 1007.99 203.222 1006.18 204.742L1004.9 202.962C1006.1 201.971 1007.4 201.396 1008.79 201.235C1010.2 201.055 1011.57 201.258 1012.92 201.846C1014.57 202.56 1015.76 203.743 1016.51 205.395C1017.28 207.035 1017.26 208.804 1016.43 210.701C1015.91 211.894 1015.08 212.894 1013.94 213.7C1012.8 214.507 1011.36 215.252 1009.62 215.938L1001.21 219.224L1011.33 223.628L1010.47 225.623L997.408 219.943Z" fill="white"/>
<path d="M1025.64 229.7C1023.42 230.974 1021.09 231.044 1018.66 229.909C1016.22 228.774 1014.76 226.944 1014.29 224.418C1013.85 221.882 1014.37 219.019 1015.86 215.828C1017.34 212.637 1019.2 210.404 1021.41 209.131C1023.66 207.846 1026 207.772 1028.44 208.907C1030.87 210.041 1032.31 211.877 1032.76 214.413C1033.23 216.938 1032.72 219.797 1031.23 222.988C1029.75 226.179 1027.88 228.416 1025.64 229.7ZM1016.44 223.757C1016.75 225.715 1017.79 227.108 1019.57 227.936C1021.35 228.765 1023.08 228.664 1024.76 227.634C1026.46 226.614 1027.94 224.749 1029.2 222.042C1030.46 219.334 1030.94 217.002 1030.63 215.045C1030.33 213.096 1029.3 211.708 1027.52 210.879C1025.74 210.051 1024 210.147 1022.3 211.168C1020.62 212.197 1019.15 214.066 1017.89 216.773C1016.63 219.481 1016.14 221.809 1016.44 223.757Z" fill="white"/>
<path d="M1041.23 237.509C1038.98 238.721 1036.65 238.726 1034.25 237.524C1031.84 236.323 1030.44 234.453 1030.04 231.915C1029.67 229.368 1030.27 226.52 1031.84 223.371C1033.42 220.223 1035.33 218.042 1037.58 216.83C1039.86 215.609 1042.2 215.599 1044.61 216.801C1047.01 218.002 1048.4 219.877 1048.77 222.424C1049.17 224.962 1048.59 227.805 1047.01 230.954C1045.44 234.102 1043.51 236.287 1041.23 237.509ZM1032.2 231.314C1032.46 233.279 1033.47 234.7 1035.22 235.578C1036.98 236.455 1038.71 236.403 1040.42 235.42C1042.14 234.446 1043.67 232.624 1045.01 229.952C1046.34 227.281 1046.88 224.962 1046.62 222.997C1046.39 221.041 1045.39 219.624 1043.63 218.747C1041.88 217.87 1040.14 217.918 1038.41 218.891C1036.7 219.874 1035.18 221.701 1033.85 224.373C1032.51 227.044 1031.96 229.358 1032.2 231.314Z" fill="white"/>
</g>
<g opacity="0.1">
<circle opacity="0.8" cx="749.244" cy="778.551" r="586.044" transform="rotate(-93.4378 749.244 778.551)" stroke="white"/>
<path d="M290.515 398.555C291.275 400.996 290.836 403.282 289.197 405.413C287.559 407.544 285.456 408.564 282.888 408.473C280.316 408.353 277.636 407.219 274.845 405.074C272.055 402.928 270.28 400.634 269.52 398.193C268.756 395.722 269.193 393.421 270.832 391.29C272.47 389.159 274.575 388.154 277.147 388.275C279.715 388.365 282.394 389.484 285.184 391.629C287.974 393.775 289.751 396.084 290.515 398.555ZM282.71 406.237C284.689 406.359 286.276 405.642 287.472 404.087C288.669 402.531 288.948 400.821 288.309 398.957C287.683 397.076 286.186 395.226 283.818 393.405C281.451 391.584 279.278 390.613 277.3 390.491C275.334 390.352 273.753 391.061 272.557 392.616C271.36 394.172 271.075 395.891 271.701 397.771C272.34 399.635 273.843 401.477 276.211 403.298C278.578 405.119 280.745 406.098 282.71 406.237Z" fill="white"/>
</g>
<g opacity="0.05">
<circle opacity="0.8" cx="739.651" cy="788.675" r="576.514" transform="rotate(-93.4378 739.651 788.675)" fill="white" stroke="white"/>
</g>
</svg>
