<svg width="1484" height="396" viewBox="0 0 1484 396" fill="none" xmlns="http://www.w3.org/2000/svg"><g opacity=".25"><circle opacity=".8" cx="747.117" cy="777.327" r="604.043" transform="rotate(-14.442 747.117 777.327)" stroke="#fff"/><path d="M592.628 180.205l-3.533 13.549 13.171-3.392-9.638-10.157z" fill="#fff"/><circle cx="275.529" cy="399.505" r="4.08" transform="rotate(-14.442 275.529 399.505)" fill="#fff"/><circle cx="976.87" cy="218.879" r="4.08" transform="rotate(-14.442 976.87 218.879)" fill="#fff"/><path d="M258.527 405.557c.764 2.44.329 4.727-1.305 6.861-1.635 2.133-3.736 3.157-6.304 3.071-2.572-.115-5.255-1.244-8.049-3.384-2.794-2.141-4.574-4.431-5.338-6.871-.769-2.47-.336-4.772 1.299-6.905 1.635-2.134 3.738-3.143 6.309-3.028 2.568.086 5.249 1.2 8.044 3.34 2.794 2.141 4.575 4.446 5.344 6.916zm-7.791 7.697c1.979.118 3.565-.602 4.758-2.16 1.194-1.558 1.469-3.268.827-5.131-.629-1.879-2.13-3.727-4.501-5.544-2.37-1.816-4.545-2.783-6.524-2.901-1.966-.136-3.545.576-4.739 2.134-1.193 1.558-1.475 3.277-.846 5.156.642 1.863 2.149 3.702 4.52 5.519 2.371 1.816 4.539 2.792 6.505 2.927zm27.555-27.39l-1.637 1.969-11.244-1.441 3.471 10.792-1.637 1.968-4.178-13.044-12.74-1.645 1.616-1.944 10.392 1.316-3.191-9.977 1.616-1.944 3.944 12.225 13.588 1.725zm-7.89-24.785l1.278-1.433 16.719 14.907-1.491 1.672-14.88-13.267-2.221 4.75-1.816-.847 2.411-5.782zm28.645-2.068c.526 2.502-.127 4.737-1.96 6.703-1.833 1.966-4.023 2.783-6.57 2.45-2.549-.363-5.111-1.744-7.686-4.144-2.575-2.4-4.125-4.851-4.651-7.353-.527-2.533.126-4.782 1.958-6.749 1.833-1.966 4.024-2.768 6.572-2.405 2.548.333 5.109 1.7 7.684 4.1 2.575 2.4 4.126 4.866 4.653 7.398zm-8.496 6.911c1.958.308 3.606-.256 4.944-1.691 1.338-1.436 1.777-3.112 1.317-5.028-.445-1.931-1.76-3.915-3.945-5.952-2.185-2.036-4.256-3.208-6.214-3.517-1.944-.324-3.585.232-4.923 1.668s-1.784 3.119-1.339 5.051c.46 1.916 1.782 3.892 3.967 5.928s4.249 3.217 6.193 3.541zm20.744-19.336c.457 2.515-.257 4.731-2.142 6.647-1.886 1.915-4.097 2.672-6.635 2.27-2.538-.433-5.061-1.884-7.57-4.353-2.508-2.469-3.991-4.961-4.449-7.477-.457-2.546.257-4.777 2.142-6.692 1.886-1.916 4.097-2.658 6.635-2.225 2.538.402 5.061 1.838 7.57 4.307 2.508 2.469 3.991 4.977 4.449 7.523zm-8.682 6.676c1.949.362 3.612-.157 4.989-1.556 1.377-1.399 1.861-3.062 1.454-4.989-.393-1.943-1.653-3.962-3.782-6.057-2.128-2.096-4.167-3.324-6.116-3.686-1.934-.377-3.589.134-4.966 1.533-1.377 1.399-1.869 3.07-1.476 5.013.407 1.927 1.675 3.939 3.804 6.034 2.128 2.095 4.16 3.331 6.093 3.708zm213.285-160.319l-.802-2.263 3.898-8.434c.959-2.02 1.246-3.575.86-4.664-.303-.855-.797-1.426-1.482-1.711-.674-.308-1.403-.323-2.189-.044-1.471.522-2.299 1.637-2.484 3.345l-2.94-.57c.135-1.369.598-2.534 1.387-3.493.789-.96 1.794-1.656 3.014-2.089 1.538-.546 3.031-.529 4.478.052 1.448.58 2.469 1.709 3.063 3.386.636 1.793.319 4.058-.951 6.792l-2.554 5.38 7.272-2.582.989 2.792-11.559 4.103zm28.703-16.369l.891 2.713-2.022.664 1.048 3.194-2.932.964-1.049-3.194-8.695 2.858-.89-2.712 2.205-13.84 3.16-1.039-2.206 13.84 5.536-1.819-1.514-4.614 2.932-.963 1.514 4.613 2.022-.665zm19.124-1.742c-.716 2.054-2.179 3.413-4.387 4.077-2.208.664-4.186.339-5.932-.975-1.73-1.319-3.017-3.384-3.861-6.195-.844-2.81-.908-5.243-.191-7.297.734-2.059 2.204-3.421 4.413-4.084 2.208-.664 4.177-.336 5.907.982 1.746 1.314 3.041 3.376 3.886 6.187.844 2.811.899 5.246.165 7.305zm-5.246 1.215c1.325-.398 2.169-1.256 2.533-2.572.364-1.317.236-3.006-.383-5.067-.619-2.061-1.443-3.541-2.472-4.439-1.029-.898-2.206-1.148-3.531-.749-1.308.393-2.152 1.25-2.533 2.572-.364 1.316-.236 3.005.383 5.067.619 2.061 1.443 3.54 2.472 4.438 1.046.893 2.223 1.143 3.531.75zm38.837-7.961l-3.375.871-5.655-5.512-2.28 7.56-3.375.871 3.268-10.763-7.6-7.407 3.349-.864 5.212 5.075 2.104-6.963 3.375-.871-3.066 10.159 8.043 7.844zm21.817-16.376c1.386.026 2.586.41 3.602 1.153 1.029.723 1.693 1.77 1.993 3.143.398 1.825.096 3.392-.907 4.703-1.003 1.311-2.397 2.161-4.182 2.551-1.386.302-2.704.253-3.954-.148-1.232-.405-2.225-1.172-2.98-2.3l2.223-2.041c.879 1.447 2.237 1.97 4.074 1.569 1.04-.226 1.806-.667 2.299-1.32.489-.671.635-1.459.437-2.362-.197-.904-.656-1.55-1.376-1.939-.72-.389-1.601-.47-2.64-.244l-.676.148-1.589-1.538 2.793-6.043-7.616 1.661-.615-2.815 11.178-2.438.558 2.555-2.622 5.705zm25.829-.275l.542 2.803-2.09.404.638 3.3-3.03.585-.638-3.3-8.987 1.734-.542-2.803 3.931-13.448 3.265-.63-3.93 13.448 5.721-1.104-.922-4.768 3.03-.585.922 4.768 2.09-.404zm19.194.691c-.969 1.947-2.592 3.11-4.866 3.489-2.275.379-4.196-.194-5.763-1.718-1.55-1.527-2.567-3.737-3.051-6.632-.483-2.895-.241-5.315.729-7.262.987-1.949 2.618-3.114 4.893-3.493 2.274-.379 4.186.195 5.736 1.722 1.568 1.524 2.593 3.733 3.077 6.628s.232 5.317-.755 7.266zm-5.359.542c1.365-.228 2.311-.971 2.838-2.231.527-1.26.613-2.951.258-5.074-.355-2.123-.986-3.694-1.894-4.715-.908-1.021-2.044-1.418-3.409-1.19-1.347.224-2.293.968-2.837 2.23-.527 1.26-.613 2.952-.259 5.074.355 2.123.986 3.695 1.894 4.715.926 1.018 2.062 1.415 3.409 1.191zm276.87 21.297l1.843.538-6.269 21.504-2.151-.627 5.58-19.139-5.244.038-.015-2.004 6.256-.31zm16.717 21.742l-.634 2.015-2.747-.865-1.345 4.273-2.137-.672 1.345-4.273-11.293-3.556.634-2.014 12.683-12.58 2.35.739-12.683 12.581 8.944 2.815 2.056-6.532 2.136.673-2.056 6.532 2.747.864zm12.676 8.506c-2.072 1.497-4.379 1.809-6.921.934-2.542-.875-4.178-2.544-4.91-5.007-.704-2.477-.483-5.379.663-8.707 1.146-3.328 2.755-5.741 4.827-7.239 2.1-1.511 4.42-1.829 6.962-.954 2.541.875 4.164 2.551 4.869 5.027.731 2.463.524 5.359-.622 8.687-1.146 3.328-2.769 5.748-4.868 7.259zm-9.768-4.954c.515 1.915 1.7 3.191 3.555 3.83 1.856.639 3.566.359 5.129-.84 1.584-1.192 2.862-3.2 3.834-6.024s1.201-5.193.687-7.108c-.494-1.907-1.669-3.18-3.525-3.819-1.855-.639-3.575-.362-5.159.83-1.563 1.199-2.831 3.21-3.803 6.034-.973 2.824-1.212 5.19-.718 7.097zm34.693 17.478l-2.385-.931-2.186-11.123-9.142 6.703-2.385-.93 11.055-8.087-2.466-12.607 2.355.919 2.037 10.275 8.457-6.181 2.355.919-10.353 7.606 2.658 13.437zm7.424 3.206l.805-1.848 10.637-4.237c3.03-1.194 4.87-2.544 5.53-4.05.57-1.311.6-2.507.09-3.588-.47-1.093-1.28-1.885-2.42-2.379-2.11-.919-4.06-.619-5.87.901l-1.28-1.78c1.2-.991 2.5-1.566 3.89-1.727 1.41-.18 2.78.023 4.13.611 1.65.714 2.84 1.897 3.59 3.549.77 1.64.75 3.409-.08 5.306-.52 1.193-1.35 2.193-2.49 2.999-1.14.807-2.58 1.552-4.32 2.238l-8.41 3.286 10.12 4.404-.86 1.995-13.062-5.68zm28.232 9.757c-2.22 1.274-4.55 1.344-6.98.209-2.44-1.135-3.9-2.965-4.37-5.491-.44-2.536.08-5.399 1.57-8.59 1.48-3.191 3.34-5.424 5.55-6.697 2.25-1.285 4.59-1.359 7.03-.224 2.43 1.134 3.87 2.97 4.32 5.506.47 2.525-.04 5.384-1.53 8.575-1.48 3.191-3.35 5.428-5.59 6.712zm-9.2-5.943c.31 1.958 1.35 3.351 3.13 4.179 1.78.829 3.51.728 5.19-.302 1.7-1.02 3.18-2.885 4.44-5.592 1.26-2.708 1.74-5.04 1.43-6.997-.3-1.949-1.33-3.337-3.11-4.166-1.78-.828-3.52-.732-5.22.289-1.68 1.029-3.15 2.898-4.41 5.605-1.26 2.708-1.75 5.036-1.45 6.984zm24.79 13.752c-2.25 1.212-4.58 1.217-6.98.015-2.41-1.201-3.81-3.071-4.21-5.609-.37-2.547.23-5.395 1.8-8.544 1.58-3.148 3.49-5.329 5.74-6.541 2.28-1.221 4.62-1.231 7.03-.029 2.4 1.201 3.79 3.076 4.16 5.623.4 2.538-.18 5.381-1.76 8.53-1.57 3.148-3.5 5.333-5.78 6.555zm-9.03-6.195c.26 1.965 1.27 3.386 3.02 4.264 1.76.877 3.49.825 5.2-.158 1.72-.974 3.25-2.796 4.59-5.468 1.33-2.671 1.87-4.99 1.61-6.955-.23-1.956-1.23-3.373-2.99-4.25-1.75-.877-3.49-.829-5.22.144-1.71.983-3.23 2.81-4.56 5.482-1.34 2.671-1.89 4.985-1.65 6.941z" fill="#fff"/></g><g opacity=".1"><circle opacity=".8" cx="749.244" cy="778.551" r="586.044" transform="rotate(-93.438 749.244 778.551)" stroke="#fff"/><path d="M290.515 398.555c.76 2.441.321 4.727-1.318 6.858-1.638 2.131-3.741 3.151-6.309 3.06-2.572-.12-5.252-1.254-8.043-3.399-2.79-2.146-4.565-4.44-5.325-6.881-.764-2.471-.327-4.772 1.312-6.903 1.638-2.131 3.743-3.136 6.315-3.015 2.568.09 5.247 1.209 8.037 3.354 2.79 2.146 4.567 4.455 5.331 6.926zm-7.805 7.682c1.979.122 3.566-.595 4.762-2.15 1.197-1.556 1.476-3.266.837-5.13-.626-1.881-2.123-3.731-4.491-5.552-2.367-1.821-4.54-2.792-6.518-2.914-1.966-.139-3.547.57-4.743 2.125-1.197 1.556-1.482 3.275-.856 5.155.639 1.864 2.142 3.706 4.51 5.527 2.367 1.821 4.534 2.8 6.499 2.939z" fill="#fff"/></g><g opacity=".05"><circle opacity=".8" cx="739.651" cy="788.675" r="576.514" transform="rotate(-93.438 739.651 788.675)" fill="#fff" stroke="#fff"/></g></svg>