<svg width="30" height="30" viewBox="0 0 30 30" fill="none" xmlns="http://www.w3.org/2000/svg"><circle cx="15" cy="15" r="15" fill="#fff"/><path d="M25.4 8.065a8.386 8.386 0 0 1-2.41.694 4.342 4.342 0 0 0 1.84-2.431c-.808.507-1.7.865-2.652 1.065C21.41 6.533 20.317 6 19.123 6c-2.315 0-4.18 1.976-4.18 4.4 0 .349.029.684.098 1.003-3.477-.178-6.554-1.931-8.62-4.601a4.606 4.606 0 0 0-.573 2.223c0 1.524.746 2.874 1.858 3.656a3.975 3.975 0 0 1-1.89-.542v.049c0 2.137 1.45 3.913 3.35 4.322a3.98 3.98 0 0 1-1.096.145c-.268 0-.538-.016-.792-.075.542 1.742 2.08 3.023 3.908 3.064A8.144 8.144 0 0 1 5 21.461a11.356 11.356 0 0 0 6.416 1.975c7.696 0 11.903-6.706 11.903-12.519 0-.194-.006-.382-.015-.568A8.597 8.597 0 0 0 25.4 8.065z" fill="#3A7FE7"/></svg>