<svg width="30" height="30" viewBox="0 0 30 30" fill="none" xmlns="http://www.w3.org/2000/svg">
<circle cx="15" cy="15.0004" r="15" fill="white"/>
<path d="M21.9277 16.1824C21.5979 15.7441 21.6923 15.549 21.9277 15.1571C21.932 15.1527 24.6545 11.1928 24.935 9.84991L24.9367 9.84902C25.0761 9.35963 24.9367 8.99997 24.2627 8.99997H22.0323C21.4645 8.99997 21.2027 9.30863 21.0624 9.65398C21.0624 9.65398 19.9268 12.5152 18.3203 14.3698C17.8018 14.9057 17.5621 15.0775 17.2791 15.0775C17.1397 15.0775 16.9229 14.9057 16.9229 14.4164V9.84902C16.9229 9.26211 16.764 8.99997 16.2939 8.99997H12.7868C12.4307 8.99997 12.219 9.27374 12.219 9.52872C12.219 10.0852 13.0223 10.2132 13.1056 11.7788V15.1759C13.1056 15.9203 12.9772 16.0572 12.6925 16.0572C11.9343 16.0572 10.094 13.1844 9.00349 9.89644C8.78335 9.25853 8.5683 9.00086 7.99625 9.00086H5.765C5.12835 9.00086 5 9.30953 5 9.65487C5 10.265 5.7582 13.2989 8.5258 17.3071C10.3703 20.043 12.9679 21.5255 15.3309 21.5255C16.7512 21.5255 16.9246 21.1962 16.9246 20.6299C16.9246 18.0156 16.7963 17.7687 17.5077 17.7687C17.8375 17.7687 18.4053 17.9405 19.7313 19.2601C21.2469 20.8249 21.4959 21.5255 22.3442 21.5255H24.5746C25.2104 21.5255 25.5326 21.1962 25.3473 20.5467C24.9231 19.1805 22.0569 16.3703 21.9277 16.1824Z" fill="#3A7FE7"/>
</svg>
