<svg width="30" height="30" viewBox="0 0 30 30" fill="none" xmlns="http://www.w3.org/2000/svg"><circle cx="15" cy="15" r="15" fill="#fff"/><path d="M21.928 16.182c-.33-.438-.236-.633 0-1.025.004-.004 2.726-3.964 3.007-5.307l.002-.001c.14-.49 0-.849-.674-.849h-2.23c-.569 0-.83.309-.97.654 0 0-1.136 2.861-2.743 4.716-.518.536-.758.708-1.04.708-.14 0-.357-.172-.357-.662V9.85c0-.587-.159-.849-.63-.849h-3.506a.546.546 0 0 0-.568.529c0 .556.803.684.887 2.25v3.397c0 .744-.129.881-.413.881-.759 0-2.599-2.873-3.69-6.16C8.783 9.258 8.568 9 7.996 9H5.765C5.128 9 5 9.31 5 9.655c0 .61.758 3.644 3.526 7.652 1.844 2.736 4.442 4.219 6.805 4.219 1.42 0 1.594-.33 1.594-.896 0-2.614-.129-2.861.583-2.861.33 0 .897.172 2.223 1.491 1.516 1.565 1.765 2.265 2.613 2.265h2.23c.636 0 .959-.329.773-.978-.424-1.367-3.29-4.177-3.42-4.365z" fill="#3A7FE7"/></svg>