<svg width="30" height="30" viewBox="0 0 30 30" fill="none" xmlns="http://www.w3.org/2000/svg"><circle cx="15" cy="15" r="15" fill="#fff"/><path d="M24.533 9.423c-.553-1.036-1.154-1.227-2.377-1.3C20.935 8.037 17.863 8 15.203 8c-2.666 0-5.74.036-6.96.122-1.22.074-1.821.263-2.38 1.3C5.293 10.458 5 12.24 5 15.378v.011c0 3.124.293 4.92.863 5.943.559 1.037 1.16 1.224 2.38 1.312 1.22.075 4.293.12 6.96.12 2.66 0 5.732-.045 6.955-.119 1.222-.087 1.823-.275 2.376-1.311.575-1.024.866-2.82.866-5.944v-.01c0-3.14-.29-4.922-.867-5.956zM12.65 19.407v-8.052l6.375 4.026-6.375 4.026z" fill="#3A7FE7"/></svg>